<svg width="12" height="12" viewBox="0 0 12 12" fill="none" xmlns="http://www.w3.org/2000/svg">
<g clip-path="url(#clip0_15908_22849)">
<path d="M10.9286 4.92857H7.28572C7.16738 4.92857 7.07143 4.83262 7.07143 4.71429V1.07143C7.07143 0.479736 6.59169 0 6 0C5.40831 0 4.92857 0.479736 4.92857 1.07143V4.71429C4.92857 4.83262 4.83262 4.92857 4.71429 4.92857H1.07143C0.479736 4.92857 0 5.40831 0 6C0 6.59169 0.479736 7.07143 1.07143 7.07143H4.71429C4.83262 7.07143 4.92857 7.16738 4.92857 7.28572V10.9286C4.92857 11.5203 5.40831 12 6 12C6.59169 12 7.07143 11.5203 7.07143 10.9286V7.28572C7.07143 7.16738 7.16738 7.07143 7.28572 7.07143H10.9286C11.5203 7.07143 12 6.59169 12 6C12 5.40831 11.5203 4.92857 10.9286 4.92857Z" fill="#4263EB"/>
</g>
<defs>
<clipPath id="clip0_15908_22849">
<rect width="12" height="12" fill="white"/>
</clipPath>
</defs>
</svg>
