<svg width="30" height="30" viewBox="0 0 30 30" fill="none" xmlns="http://www.w3.org/2000/svg">
<path d="M9.95938 20.5675C9.71599 20.618 9.5596 20.8561 9.61004 21.0995C9.93676 22.6764 10.0549 23.9218 9.98194 25.0188C9.96541 25.2667 10.1531 25.4811 10.4011 25.4976C10.4113 25.4983 10.4213 25.4987 10.4314 25.4987C10.6663 25.4987 10.8641 25.3163 10.8799 25.0785C10.9585 23.8981 10.835 22.5757 10.4913 20.9169C10.4409 20.6735 10.2024 20.5172 9.95938 20.5675Z" fill="#37303F"/>
<path d="M26.1015 17.9173L25.7996 16.9512C25.3541 15.5254 25.1062 14.0454 25.0628 12.5523C25.0053 10.5769 24.4018 5.7432 20.0482 3.52918C18.0069 2.49105 15.6537 2.29599 13.4221 2.97972C11.2659 3.64042 9.45221 5.03097 8.31537 6.89524C8.186 7.10744 8.25309 7.38433 8.46525 7.51373C8.67742 7.64308 8.95434 7.57605 9.08377 7.36382C10.0911 5.712 11.7684 4.42771 13.6858 3.84025C15.6932 3.22513 17.808 3.39954 19.6403 4.33138C23.564 6.32688 24.1104 10.7636 24.1632 12.5785C24.209 14.1538 24.4705 15.7154 24.9406 17.2196L25.0599 17.6015H23.6547C23.4278 17.6015 23.2364 17.7705 23.2081 17.9956C23.2068 18.0066 23.0669 19.1061 22.756 20.239C22.3938 21.5581 21.9262 22.423 21.505 22.5526C21.2758 22.6232 20.535 22.6947 18.4117 22.0185C18.4054 22.0165 18.3992 22.0143 18.3929 22.0126C18.1628 21.9391 17.917 21.8572 17.6535 21.7653C17.4188 21.6834 17.1622 21.8073 17.0803 22.0419C16.9985 22.2766 17.1224 22.5332 17.3571 22.615C17.4529 22.6484 17.5724 22.6901 17.7093 22.7366C17.524 23.4453 17.4786 24.324 17.575 25.3574C17.5968 25.5907 17.7928 25.7657 18.0225 25.7657C18.0365 25.7657 18.0507 25.765 18.0648 25.7637C18.3123 25.7406 18.4942 25.5213 18.4711 25.2738C18.3878 24.3798 18.4217 23.6087 18.5684 23.0122C19.3741 23.2533 20.3595 23.4941 21.1218 23.4941C21.3648 23.4941 21.5853 23.4695 21.7697 23.4128C22.5415 23.1753 23.1488 22.212 23.6264 20.4678C23.84 19.6878 23.9746 18.9397 24.044 18.5015H25.672C25.8152 18.5015 25.9497 18.4334 26.0346 18.318C26.1194 18.2027 26.1442 18.0539 26.1015 17.9173Z" fill="#37303F"/>
<path d="M11.8094 15.4019C10.893 15.4019 10.1232 16.0398 9.91962 16.8948H5.03838C4.78982 16.8948 4.58838 17.0962 4.58838 17.3448C4.58838 17.5933 4.78982 17.7948 5.03838 17.7948H9.91962C10.1232 18.6497 10.893 19.2877 11.8094 19.2877C12.8807 19.2877 13.7523 18.4161 13.7523 17.3448C13.7523 16.2734 12.8807 15.4019 11.8094 15.4019ZM11.8094 18.3877C11.2343 18.3877 10.7664 17.9198 10.7664 17.3448C10.7664 16.7697 11.2343 16.3019 11.8094 16.3019C12.3845 16.3019 12.8523 16.7697 12.8523 17.3448C12.8523 17.9198 12.3844 18.3877 11.8094 18.3877Z" fill="#37303F"/>
<path d="M5.03838 9.81478H9.91962C10.1232 10.6698 10.893 11.3077 11.8094 11.3077C12.8807 11.3077 13.7523 10.4361 13.7523 9.36478C13.7523 8.29346 12.8807 7.42188 11.8094 7.42188C10.893 7.42188 10.1232 8.05981 9.91962 8.91478H5.03838C4.78982 8.91478 4.58838 9.11626 4.58838 9.36478C4.58838 9.61331 4.78982 9.81478 5.03838 9.81478ZM11.8094 8.32188C12.3845 8.32188 12.8523 8.78972 12.8523 9.36478C12.8523 9.93985 12.3844 10.4077 11.8094 10.4077C11.2343 10.4077 10.7664 9.93985 10.7664 9.36478C10.7664 8.78972 11.2343 8.32188 11.8094 8.32188Z" fill="#37303F"/>
<path d="M15.0191 11.4204C14.1027 11.4204 13.3329 12.0583 13.1293 12.9133H6.40215C6.15359 12.9133 5.95215 13.1148 5.95215 13.3633C5.95215 13.6118 6.15359 13.8133 6.40215 13.8133H13.1293C13.3329 14.6683 14.1027 15.3063 15.0191 15.3063C16.0904 15.3063 16.962 14.4346 16.962 13.3633C16.962 12.292 16.0904 11.4204 15.0191 11.4204ZM15.0191 14.4063C14.444 14.4063 13.9762 13.9384 13.9762 13.3633C13.9762 12.7883 14.444 12.3204 15.0191 12.3204C15.5941 12.3204 16.062 12.7883 16.062 13.3633C16.062 13.9384 15.5941 14.4063 15.0191 14.4063Z" fill="#37303F"/>
</svg>
