<svg width="30" height="30" viewBox="0 0 30 30" fill="none" xmlns="http://www.w3.org/2000/svg">
<g clip-path="url(#clip0_15878_22856)">
<path d="M28.8943 18.1749L27.8595 17.5774C28.0333 16.7131 28.1212 15.8475 28.1212 15C28.1212 14.1402 28.0347 13.2738 27.8638 12.42L28.8943 11.825C29.2134 11.6408 29.4417 11.3433 29.5371 10.9873C29.6324 10.6314 29.5835 10.2596 29.3992 9.94045L26.5812 5.05949C26.397 4.74035 26.0995 4.51204 25.7435 4.41669C25.3875 4.32135 25.0158 4.37025 24.6966 4.55454L23.6653 5.14996C22.3626 4.00391 20.8295 3.11695 19.1975 2.56509V1.37965C19.1975 0.618904 18.5786 0 17.8179 0H12.1819C11.4211 0 10.8022 0.618904 10.8022 1.37965V2.56515C9.17895 3.11477 7.64795 4.00292 6.34046 5.15348L5.30314 4.55454C4.98394 4.37025 4.61214 4.32129 4.25619 4.41669C3.90024 4.51209 3.60276 4.74035 3.41848 5.05949L0.600475 9.94045C0.416189 10.2596 0.367285 10.6314 0.462628 10.9873C0.55797 11.3433 0.786287 11.6408 1.10543 11.825L2.14022 12.4225C1.96656 13.2869 1.87856 14.1524 1.87856 15C1.87856 15.8597 1.96509 16.7261 2.13593 17.5799L1.10549 18.1749C0.446659 18.5553 0.220162 19.4007 0.600475 20.0595L3.41848 24.9405C3.79885 25.5993 4.64425 25.8258 5.30314 25.4455L6.33435 24.85C7.63709 25.9961 9.17014 26.8831 10.8022 27.435V28.6204C10.8022 29.3811 11.4211 30 12.1819 30H17.8179C18.5786 30 19.1975 29.3811 19.1975 28.6204V27.4349C20.8209 26.8852 22.3519 25.9971 23.6594 24.8466L24.6966 25.4455C25.3554 25.8258 26.2009 25.5993 26.5813 24.9405L29.3993 20.0595C29.7796 19.4007 29.5531 18.5553 28.8943 18.1749ZM28.6366 19.6192L25.8186 24.5001C25.6811 24.7385 25.3752 24.8204 25.137 24.6828L23.8224 23.9238C23.6553 23.8273 23.4449 23.8509 23.3033 23.9819C21.9592 25.2249 20.3422 26.1628 18.627 26.6941C18.4426 26.7513 18.3169 26.9217 18.3169 27.1147V28.6204C18.3169 28.8955 18.0931 29.1194 17.8179 29.1194H12.1819C11.9067 29.1194 11.6829 28.8955 11.6829 28.6204V27.1148C11.6829 26.9218 11.5572 26.7513 11.3729 26.6942C9.64709 26.1595 8.02803 25.2228 6.69059 23.9854C6.60717 23.9082 6.49979 23.8683 6.39147 23.8683C6.31597 23.8683 6.24006 23.8877 6.17143 23.9273L4.86282 24.6828C4.62447 24.8203 4.31871 24.7384 4.18116 24.5001L1.36316 19.6192C1.2256 19.3809 1.30756 19.0751 1.5458 18.9375L2.85335 18.1826C3.02032 18.0862 3.10515 17.8924 3.06271 17.7043C2.86128 16.8116 2.75918 15.9016 2.75918 15C2.75918 14.1135 2.8628 13.2045 3.06723 12.2981C3.10961 12.1101 3.02478 11.9163 2.85787 11.8199L1.5458 11.0624C1.43038 10.9958 1.34783 10.8882 1.31331 10.7594C1.27885 10.6307 1.29652 10.4962 1.36316 10.3808L4.18116 5.4998C4.24779 5.38438 4.35541 5.30178 4.48421 5.26732C4.6129 5.2328 4.74746 5.25053 4.86288 5.31716L6.17748 6.07614C6.34456 6.17266 6.55498 6.14906 6.69658 6.01808C8.04065 4.77505 9.65766 3.83718 11.3729 3.30581C11.5572 3.24869 11.6829 3.0782 11.6829 2.88523V1.37965C11.6829 1.10448 11.9068 0.880626 12.1819 0.880626H17.818C18.0931 0.880626 18.317 1.10448 18.317 1.37965V2.88523C18.317 3.0782 18.4427 3.24869 18.627 3.30581C20.3527 3.84041 21.9717 4.7771 23.3092 6.01456C23.4508 6.1456 23.6613 6.16914 23.8284 6.07268L25.137 5.31716C25.2525 5.25053 25.387 5.2328 25.5157 5.26732C25.6444 5.30184 25.752 5.38438 25.8187 5.4998L28.6367 10.3808C28.7034 10.4962 28.7211 10.6307 28.6866 10.7594C28.6521 10.8882 28.5695 10.9958 28.4541 11.0624L27.1465 11.8174C26.9796 11.9138 26.8947 12.1076 26.9372 12.2956C27.1386 13.1883 27.2407 14.0982 27.2407 15C27.2407 15.8865 27.1371 16.7955 26.9327 17.7018C26.8903 17.8899 26.9751 18.0836 27.142 18.18L28.4541 18.9375C28.6923 19.0751 28.7742 19.3809 28.6366 19.6192Z" fill="#37303F"/>
<path d="M14.9998 6.10571C10.0954 6.10571 6.10547 10.0957 6.10547 15C6.10547 19.9044 10.0954 23.8944 14.9998 23.8944C19.9042 23.8944 23.8941 19.9044 23.8941 15C23.8941 10.0957 19.9042 6.10571 14.9998 6.10571ZM14.9998 23.0137C10.581 23.0137 6.9861 19.4188 6.9861 15C6.9861 10.5813 10.581 6.98634 14.9998 6.98634C19.4185 6.98634 23.0135 10.5813 23.0135 15C23.0135 19.4188 19.4185 23.0137 14.9998 23.0137Z" fill="#37303F"/>
<path d="M16.6437 12.6809H14.9999C14.7567 12.6809 14.5596 12.8781 14.5596 13.1212V16.8786C14.5596 17.1217 14.7567 17.3189 14.9999 17.3189C15.2431 17.3189 15.4402 17.1217 15.4402 16.8786V15.9099H16.6437C17.534 15.9099 18.2582 15.1856 18.2582 14.2954C18.2582 13.4051 17.534 12.6809 16.6437 12.6809ZM16.6437 15.0292H15.4402V13.5615H16.6437C17.0484 13.5615 17.3776 13.8907 17.3776 14.2954C17.3776 14.7001 17.0484 15.0292 16.6437 15.0292Z" fill="#37303F"/>
<path d="M12.5941 12.9666C12.5297 12.7948 12.3654 12.6809 12.1819 12.6809H11.7122C11.5287 12.6809 11.3644 12.7947 11.3 12.9666L9.89096 16.724C9.80554 16.9517 9.92096 17.2054 10.1486 17.2909C10.3763 17.3763 10.6301 17.2609 10.7155 17.0332L10.9606 16.3795H12.9335L13.1786 17.0331C13.2449 17.2099 13.4126 17.319 13.5909 17.319C13.6423 17.319 13.6945 17.3099 13.7454 17.2909C13.9731 17.2055 14.0885 16.9517 14.0031 16.724L12.5941 12.9666ZM11.2908 15.4989L11.947 13.749L12.6033 15.4989H11.2908Z" fill="#37303F"/>
<path d="M19.2269 12.6809C18.9838 12.6809 18.7866 12.8781 18.7866 13.1212V16.8786C18.7866 17.1217 18.9838 17.3189 19.2269 17.3189C19.4701 17.3189 19.6672 17.1217 19.6672 16.8786V13.1212C19.6672 12.8781 19.4701 12.6809 19.2269 12.6809Z" fill="#37303F"/>
</g>
<defs>
<clipPath id="clip0_15878_22856">
<rect width="30" height="30" fill="white"/>
</clipPath>
</defs>
</svg>
