<svg width="100" height="100" viewBox="0 0 100 100" fill="none" xmlns="http://www.w3.org/2000/svg">
<path d="M35.7038 42.0142H17.1091C16.6947 42.0142 16.2973 42.1788 16.0043 42.4718C15.7113 42.7648 15.5466 43.1623 15.5466 43.5767C15.5466 43.9911 15.7113 44.3885 16.0043 44.6815C16.2973 44.9745 16.6947 45.1392 17.1091 45.1392H35.7038C36.1126 45.1308 36.5019 44.9625 36.7881 44.6704C37.0743 44.3783 37.2346 43.9856 37.2346 43.5767C37.2346 43.1677 37.0743 42.7751 36.7881 42.483C36.5019 42.1908 36.1126 42.0225 35.7038 42.0142Z" fill="#4263EB"/>
<path d="M35.7038 51.3115H17.1091C16.6947 51.3115 16.2973 51.4761 16.0043 51.7692C15.7113 52.0622 15.5466 52.4596 15.5466 52.874C15.5466 53.2884 15.7113 53.6859 16.0043 53.9789C16.2973 54.2719 16.6947 54.4365 17.1091 54.4365H35.7038C36.1126 54.4281 36.5019 54.2598 36.7881 53.9677C37.0743 53.6756 37.2346 53.283 37.2346 52.874C37.2346 52.4651 37.0743 52.0724 36.7881 51.7803C36.5019 51.4882 36.1126 51.3199 35.7038 51.3115Z" fill="#4263EB"/>
<path d="M35.7038 60.6089H17.1091C16.6947 60.6089 16.2973 60.7735 16.0043 61.0665C15.7113 61.3596 15.5466 61.757 15.5466 62.1714C15.5466 62.5858 15.7113 62.9832 16.0043 63.2762C16.2973 63.5693 16.6947 63.7339 17.1091 63.7339H35.7038C36.1126 63.7255 36.5019 63.5572 36.7881 63.2651C37.0743 62.973 37.2346 62.5803 37.2346 62.1714C37.2346 61.7624 37.0743 61.3698 36.7881 61.0777C36.5019 60.7856 36.1126 60.6173 35.7038 60.6089Z" fill="#4263EB"/>
<path d="M35.7038 69.9061H17.1091C16.6947 69.9061 16.2973 70.0707 16.0043 70.3638C15.7113 70.6568 15.5466 71.0542 15.5466 71.4686C15.5466 71.883 15.7113 72.2805 16.0043 72.5735C16.2973 72.8665 16.6947 73.0311 17.1091 73.0311H35.7038C36.1126 73.0227 36.5019 72.8544 36.7881 72.5623C37.0743 72.2702 37.2346 71.8776 37.2346 71.4686C37.2346 71.0597 37.0743 70.667 36.7881 70.3749C36.5019 70.0828 36.1126 69.9145 35.7038 69.9061Z" fill="#4263EB"/>
<path d="M54.294 45.1309H60.4113C60.8257 45.1309 61.2232 44.9662 61.5162 44.6732C61.8092 44.3802 61.9738 43.9828 61.9738 43.5684C61.9738 43.154 61.8092 42.7565 61.5162 42.4635C61.2232 42.1705 60.8257 42.0059 60.4113 42.0059H54.294C53.8851 42.0142 53.4958 42.1825 53.2097 42.4747C52.9235 42.7668 52.7632 43.1594 52.7632 43.5684C52.7632 43.9773 52.9235 44.37 53.2097 44.6621C53.4958 44.9542 53.8851 45.1225 54.294 45.1309Z" fill="#4263EB"/>
<path d="M54.2938 54.448H57.4257C57.8347 54.4398 58.2241 54.2716 58.5105 53.9794C58.7968 53.6873 58.9572 53.2945 58.9572 52.8855C58.9572 52.4764 58.7968 52.0836 58.5104 51.7915C58.2241 51.4994 57.8346 51.3312 57.4256 51.323H54.2938C53.8848 51.3312 53.4953 51.4994 53.2089 51.7915C52.9226 52.0837 52.7622 52.4764 52.7622 52.8855C52.7622 53.2946 52.9226 53.6873 53.2089 53.9795C53.4953 54.2716 53.8848 54.4398 54.2938 54.448Z" fill="#4263EB"/>
<path d="M54.2938 63.7407H56.9458C57.3602 63.7407 57.7576 63.5761 58.0506 63.2831C58.3437 62.9901 58.5083 62.5926 58.5083 62.1782C58.5083 61.7638 58.3437 61.3664 58.0506 61.0734C57.7576 60.7803 57.3602 60.6157 56.9458 60.6157H54.2938C53.8848 60.6239 53.4953 60.7921 53.2089 61.0843C52.9226 61.3764 52.7622 61.7692 52.7622 62.1782C52.7622 62.5873 52.9226 62.9801 53.2089 63.2722C53.4953 63.5643 53.8848 63.7325 54.2938 63.7407Z" fill="#4263EB"/>
<path d="M72.893 69.9061H54.2983C53.8839 69.9061 53.4865 70.0707 53.1935 70.3638C52.9005 70.6568 52.7358 71.0542 52.7358 71.4686C52.7358 71.883 52.9005 72.2805 53.1935 72.5735C53.4865 72.8665 53.8839 73.0311 54.2983 73.0311H72.893C73.3019 73.0227 73.6912 72.8544 73.9773 72.5623C74.2635 72.2702 74.4238 71.8776 74.4238 71.4686C74.4238 71.0597 74.2635 70.667 73.9773 70.3749C73.6912 70.0828 73.3019 69.9145 72.893 69.9061Z" fill="#4263EB"/>
<path d="M90.3366 12.0447C89.5879 11.5023 88.7317 11.1267 87.8255 10.9431C86.9194 10.7596 85.9845 10.7723 85.0838 10.9806C84.183 11.1888 83.3373 11.5877 82.6037 12.1503C81.8701 12.7129 81.2656 13.4263 80.831 14.2422L74.2216 27.2102C64.4353 24.7624 54.1032 25.7824 44.9845 30.0964C39.0585 27.2818 32.5708 25.8492 26.0107 25.9066C19.4505 25.9641 12.9889 27.5101 7.11317 30.4281C6.8536 30.5578 6.63531 30.7573 6.48276 31.0042C6.33022 31.2511 6.24945 31.5356 6.24951 31.8258V87.6097C6.25281 87.8748 6.32298 88.1348 6.45353 88.3655C6.58407 88.5963 6.77076 88.7904 6.99628 88.9298C7.22181 89.0691 7.47887 89.1493 7.74365 89.1629C8.00842 89.1765 8.27234 89.123 8.51093 89.0074C14.0716 86.2434 20.197 84.8051 26.4067 84.8051C32.6164 84.8051 38.7418 86.2434 44.3025 89.0074C44.5187 89.1171 44.7575 89.1752 45 89.1772C45.2425 89.1792 45.4821 89.125 45.7002 89.0188C51.2619 86.2541 57.3884 84.8153 63.5994 84.8153C69.8104 84.8153 75.9369 86.2541 81.4986 89.0188C81.7372 89.1345 82.0012 89.1881 82.266 89.1745C82.5308 89.161 82.7879 89.0808 83.0134 88.9414C83.239 88.802 83.4257 88.6079 83.5562 88.377C83.6867 88.1462 83.7568 87.8862 83.76 87.6211V38.7397L93.0718 20.4844C93.8231 19.0017 93.9572 17.2818 93.4447 15.7005C92.9322 14.1192 91.8148 12.8049 90.3366 12.0447ZM83.618 15.6558C83.9993 14.9161 84.6573 14.357 85.4487 14.1001C86.2402 13.8432 87.1011 13.9093 87.844 14.284L88.9228 14.8318C89.6637 15.2164 90.2225 15.8784 90.4772 16.6734C90.7319 17.4683 90.6619 18.3318 90.2824 19.0753L88.7962 21.9891L82.1233 18.5882L83.618 15.6558ZM80.7997 37.6654C80.7412 37.8296 72.1422 54.6215 72.0703 54.7803L70.1345 53.7992L85.4309 23.7819L87.376 24.7732L80.7997 37.6654ZM66.6851 59.8245L64.3414 61.7228C64.4277 60.0045 64.6326 56.3009 64.7282 54.5596L67.3275 55.8808L69.9087 57.1883L66.6851 59.8245ZM80.7039 21.3729L82.6461 22.3627L67.3473 52.3848L65.4011 51.3955L80.7039 21.3729ZM9.3745 85.1629V32.8047C14.7067 30.3128 20.5208 29.0212 26.4066 29.0212C32.2924 29.0212 38.1065 30.3128 43.4387 32.8047V85.163C38.0542 82.8658 32.2607 81.6816 26.4066 81.6816C20.5526 81.6816 14.759 82.8658 9.3745 85.1629ZM46.5638 85.1744V32.7924C54.7474 28.9966 63.9655 28.0473 72.751 30.0955L61.9067 51.3726C61.8236 51.5715 61.7674 51.7807 61.7397 51.9945C61.5623 55.2539 61.1985 61.8104 61.0209 65.0692C61.008 65.3698 61.0816 65.6678 61.233 65.9279C61.3844 66.1879 61.6072 66.3991 61.875 66.5363C62.1427 66.6736 62.4442 66.7311 62.7437 66.7022C63.0432 66.6733 63.3281 66.559 63.5647 66.373L68.6642 62.2432L73.7271 58.1027C73.7539 58.0639 73.7895 58.032 73.8309 58.0096C73.9524 57.8825 74.058 57.7411 74.1452 57.5885L80.6349 44.8772V85.1744C75.2494 82.8765 69.4546 81.6919 63.5994 81.6919C57.7441 81.6919 51.9493 82.8765 46.5638 85.1744Z" fill="#4263EB"/>
</svg>
