<svg width="16" height="16" viewBox="0 0 16 16" fill="none" xmlns="http://www.w3.org/2000/svg">
<g clip-path="url(#clip0_15878_22095)">
<path d="M5.81249 0C4.54894 0 3.4674 0.793577 3.03967 1.90844C4.05736 1.92639 5.01061 2.3302 5.73082 3.05041C5.73351 3.05297 5.73619 3.05566 5.73876 3.05834C6.05699 3.38146 5.72606 3.91625 5.29271 3.78259C5.15294 3.73949 5.02477 3.66601 4.9143 3.57006C4.32543 3.05834 3.58129 2.81799 2.84619 2.84802V2.84619C1.26587 2.91076 0 4.21654 0 5.81249C0 6.6538 0.356933 7.44432 0.962156 7.99998C0.356933 8.55565 0 9.34617 0 10.1875C0 11.7834 1.26587 13.0892 2.84631 13.1538C2.91076 14.7341 4.21654 16 5.81249 16C5.84044 16 5.86827 15.9996 5.89586 15.9989C6.50218 15.982 7.07384 15.7591 7.53123 15.3656V0.634398C7.07384 0.240844 6.50218 0.0179443 5.89598 0.00109863C5.86827 0.000366212 5.84044 0 5.81249 0Z" fill="white"/>
<path d="M15.0378 7.99998C15.6431 7.44432 16 6.6538 16 5.81249C16 4.21654 14.7341 2.91076 13.1538 2.84619C13.0892 1.26587 11.7834 0 10.1875 0C10.1595 0 10.1317 0.000366212 10.1042 0.00109863C9.4978 0.0179443 8.92627 0.240844 8.46875 0.634398V15.3657C8.92627 15.7591 9.4978 15.982 10.104 15.9989C10.1317 15.9996 10.1595 16 10.1875 16C11.451 16 12.5326 15.2064 12.9604 14.0915C11.9426 14.0736 10.9894 13.6698 10.2692 12.9497C10.2665 12.947 10.2639 12.9443 10.2612 12.9416C9.94299 12.6185 10.2739 12.0837 10.7073 12.2174C10.8472 12.2605 10.9752 12.334 11.0857 12.4299C11.6747 12.9416 12.4188 13.182 13.1538 13.152V13.1538C14.7341 13.0892 16 11.7834 16 10.1875C16 9.34617 15.6431 8.55565 15.0378 7.99998Z" fill="white"/>
</g>
<defs>
<clipPath id="clip0_15878_22095">
<rect width="16" height="16" fill="white"/>
</clipPath>
</defs>
</svg>
