<svg width="30" height="30" viewBox="0 0 30 30" fill="none" xmlns="http://www.w3.org/2000/svg">
<g clip-path="url(#clip0_16272_22071)">
<path d="M29.7598 8.78389C29.5435 8.45356 29.2072 8.22533 28.8228 8.14726L7.96997 3.82293C7.58559 3.74485 7.18318 3.81692 6.85886 4.03915C6.52853 4.24936 6.3003 4.58569 6.22222 4.97008L5.83784 6.81993L5.45946 8.65777H1.47748C0.660661 8.65777 0 9.31843 0 10.1352V24.7298C0 25.5467 0.660661 26.2073 1.47748 26.2073H22.7748C23.4414 26.2073 24.03 25.7569 24.1982 25.1082L25.2613 25.3304C25.3574 25.3485 25.4595 25.3605 25.5616 25.3605C26.2643 25.3605 26.8649 24.868 27.009 24.1833L28.8529 15.2944L29.5976 11.6908L29.97 9.889C30.048 9.50461 29.976 9.10822 29.7598 8.78389ZM6.3964 7.67278L11.2072 8.65777H6.19219L6.3964 7.67278ZM22.7748 25.4866H1.47748C1.05706 25.4866 0.720721 25.1503 0.720721 24.7298V10.1352C0.714715 9.72083 1.05105 9.38449 1.46547 9.37849H1.47748H22.7748C23.1952 9.37849 23.5315 9.71482 23.5315 10.1352V24.7298C23.5375 25.1443 23.2012 25.4806 22.7868 25.4866C22.7808 25.4866 22.7808 25.4866 22.7748 25.4866ZM24.2523 11.3304L28.7447 12.2554L28.2883 14.4536L24.2523 13.6788V11.3304ZM26.3003 24.0391C26.2222 24.4415 25.8318 24.7058 25.4234 24.6277C25.4174 24.6277 25.4114 24.6277 25.4054 24.6217L24.2523 24.3875V14.4115L28.1441 15.1563L26.3003 24.0391ZM24.2523 10.5977V10.1352C24.2523 9.31843 23.5916 8.65777 22.7748 8.65777H14.7928L6.54655 6.96407L6.93093 5.11422C6.96697 4.91602 7.08709 4.74786 7.25526 4.63975C7.37538 4.55566 7.51952 4.51362 7.66967 4.51362C7.71772 4.51362 7.77177 4.51963 7.81982 4.53164L28.6787 8.84996C29.0871 8.93404 29.3453 9.33644 29.2613 9.74485L28.8889 11.5467L24.2523 10.5977Z" fill="#37303F"/>
<path d="M3.7897 14.4777H5.52543C5.95186 14.4717 6.2942 14.1293 6.2882 13.7029V13.6969V12.3996C6.2942 11.9732 5.95186 11.6188 5.52543 11.6128H3.7897C3.36327 11.6188 3.02093 11.9732 3.02693 12.3996V13.6969C3.02093 14.1233 3.35726 14.4717 3.7897 14.4777ZM3.74766 12.3996C3.74766 12.3575 3.77168 12.3335 3.7897 12.3335H5.52543C5.54345 12.3335 5.56747 12.3575 5.56747 12.3996V13.6969C5.56747 13.7329 5.54345 13.7569 5.52543 13.7569H3.7897C3.77168 13.7569 3.74766 13.7329 3.74766 13.6969V12.3996Z" fill="#37303F"/>
<path d="M2.06592 21.0481H3.14099V21.7688H2.06592V21.0481Z" fill="#37303F"/>
<path d="M3.81396 21.0481H4.88904V21.7688H3.81396V21.0481Z" fill="#37303F"/>
<path d="M5.58545 21.0481H6.66052V21.7688H5.58545V21.0481Z" fill="#37303F"/>
<path d="M7.3335 21.0481H8.40857V21.7688H7.3335V21.0481Z" fill="#37303F"/>
<path d="M9.11133 21.0481H10.1864V21.7688H9.11133V21.0481Z" fill="#37303F"/>
<path d="M18.8408 10.7178H19.5615V11.7928H18.8408V10.7178Z" fill="#37303F"/>
<path d="M20.3184 10.7178H21.0391V11.7928H20.3184V10.7178Z" fill="#37303F"/>
<path d="M15.6396 10.7178H16.3604V11.7928H15.6396V10.7178Z" fill="#37303F"/>
<path d="M17.1172 10.7178H17.8379V11.7928H17.1172V10.7178Z" fill="#37303F"/>
<path d="M2.06592 23.4084H10.186V24.1292H2.06592V23.4084Z" fill="#37303F"/>
</g>
<defs>
<clipPath id="clip0_16272_22071">
<rect width="30" height="30" fill="white"/>
</clipPath>
</defs>
</svg>
