<svg width="16" height="16" viewBox="0 0 16 16" fill="none" xmlns="http://www.w3.org/2000/svg">
<path d="M9.05723 8.00008L5.52864 11.5287C5.26829 11.789 5.26829 12.2111 5.52864 12.4715C5.78899 12.7318 6.2111 12.7318 6.47145 12.4715L10.4714 8.47148C10.7318 8.21114 10.7318 7.78903 10.4714 7.52868L6.47145 3.52868C6.2111 3.26833 5.78899 3.26833 5.52864 3.52868C5.26829 3.78902 5.26829 4.21113 5.52864 4.47148L9.05723 8.00008Z" fill="#37303F"/>
<mask id="mask0_15908_22561" style="mask-type:alpha" maskUnits="userSpaceOnUse" x="5" y="3" width="6" height="10">
<path d="M9.05723 8.00008L5.52864 11.5287C5.26829 11.789 5.26829 12.2111 5.52864 12.4715C5.78899 12.7318 6.2111 12.7318 6.47145 12.4715L10.4714 8.47148C10.7318 8.21114 10.7318 7.78903 10.4714 7.52868L6.47145 3.52868C6.2111 3.26833 5.78899 3.26833 5.52864 3.52868C5.26829 3.78902 5.26829 4.21113 5.52864 4.47148L9.05723 8.00008Z" fill="white"/>
</mask>
<g mask="url(#mask0_15908_22561)">
</g>
</svg>
