<svg width="16" height="16" viewBox="0 0 16 16" fill="none" xmlns="http://www.w3.org/2000/svg">
<path d="M8.00016 9.05735L4.47157 5.52876C4.21122 5.26841 3.78911 5.26841 3.52876 5.52876C3.26841 5.78911 3.26841 6.21122 3.52876 6.47157L7.52876 10.4716C7.78911 10.7319 8.21122 10.7319 8.47157 10.4716L12.4716 6.47157C12.7319 6.21122 12.7319 5.78911 12.4716 5.52876C12.2112 5.26841 11.7891 5.26841 11.5288 5.52876L8.00016 9.05735Z" fill="#37303F"/>
<mask id="mask0_15884_26436" style="mask-type:alpha" maskUnits="userSpaceOnUse" x="3" y="5" width="10" height="6">
<path d="M8.00016 9.05735L4.47157 5.52876C4.21122 5.26841 3.78911 5.26841 3.52876 5.52876C3.26841 5.78911 3.26841 6.21122 3.52876 6.47157L7.52876 10.4716C7.78911 10.7319 8.21122 10.7319 8.47157 10.4716L12.4716 6.47157C12.7319 6.21122 12.7319 5.78911 12.4716 5.52876C12.2112 5.26841 11.7891 5.26841 11.5288 5.52876L8.00016 9.05735Z" fill="white"/>
</mask>
<g mask="url(#mask0_15884_26436)">
</g>
</svg>
