<svg width="24" height="24" viewBox="0 0 24 24" fill="none" xmlns="http://www.w3.org/2000/svg">
<circle cx="12" cy="12" r="12" fill="#4263EB"/>
<path d="M12.6268 12L15.8668 8.76001C15.9396 8.67499 15.9776 8.56562 15.9733 8.45377C15.969 8.34191 15.9226 8.23581 15.8435 8.15665C15.7643 8.0775 15.6582 8.03113 15.5463 8.02681C15.4345 8.02249 15.3251 8.06054 15.2401 8.13335L12.0001 11.3733L8.7601 8.1289C8.67507 8.05609 8.56571 8.01804 8.45385 8.02237C8.34199 8.02669 8.23589 8.07306 8.15674 8.15221C8.07758 8.23136 8.03121 8.33747 8.02689 8.44932C8.02257 8.56118 8.06062 8.67055 8.13343 8.75557L11.3734 12L8.12899 15.24C8.08246 15.2799 8.04467 15.3289 8.018 15.384C7.99132 15.4392 7.97633 15.4992 7.97396 15.5604C7.9716 15.6216 7.98191 15.6827 8.00426 15.7397C8.0266 15.7967 8.06049 15.8485 8.10381 15.8919C8.14712 15.9352 8.19892 15.9691 8.25595 15.9914C8.31299 16.0138 8.37402 16.0241 8.43523 16.0217C8.49644 16.0193 8.5565 16.0043 8.61164 15.9777C8.66678 15.951 8.71581 15.9132 8.75565 15.8667L12.0001 12.6267L15.2401 15.8667C15.3251 15.9395 15.4345 15.9775 15.5463 15.9732C15.6582 15.9689 15.7643 15.9225 15.8435 15.8434C15.9226 15.7642 15.969 15.6581 15.9733 15.5463C15.9776 15.4344 15.9396 15.325 15.8668 15.24L12.6268 12Z" fill="white"/>
</svg>
