<svg width="16" height="16" viewBox="0 0 16 16" fill="none" xmlns="http://www.w3.org/2000/svg">
<path fill-rule="evenodd" clip-rule="evenodd" d="M2.6665 9.33342H3.33317C3.70136 9.33342 3.99984 9.63189 3.99984 10.0001C3.99984 10.3683 3.70136 10.6667 3.33317 10.6667H2.6665C1.56193 10.6667 0.666504 9.77132 0.666504 8.66675V2.66675C0.666504 1.56218 1.56193 0.666748 2.6665 0.666748H8.6665C9.77107 0.666748 10.6665 1.56218 10.6665 2.66675V3.33341C10.6665 3.7016 10.368 4.00008 9.99984 4.00008C9.63165 4.00008 9.33317 3.7016 9.33317 3.33341V2.66675C9.33317 2.29856 9.03469 2.00008 8.6665 2.00008H2.6665C2.29831 2.00008 1.99984 2.29856 1.99984 2.66675V8.66675C1.99984 9.03494 2.29831 9.33342 2.6665 9.33342ZM7.33317 5.33341H13.3332C14.4377 5.33341 15.3332 6.22885 15.3332 7.33341V13.3334C15.3332 14.438 14.4377 15.3334 13.3332 15.3334H7.33317C6.2286 15.3334 5.33317 14.438 5.33317 13.3334V7.33341C5.33317 6.22885 6.2286 5.33341 7.33317 5.33341ZM7.33317 6.66675C6.96498 6.66675 6.6665 6.96522 6.6665 7.33341V13.3334C6.6665 13.7016 6.96498 14.0001 7.33317 14.0001H13.3332C13.7014 14.0001 13.9998 13.7016 13.9998 13.3334V7.33341C13.9998 6.96522 13.7014 6.66675 13.3332 6.66675H7.33317Z" fill="#37303F"/>
</svg>
