<svg width="100" height="100" viewBox="0 0 100 100" fill="none" xmlns="http://www.w3.org/2000/svg">
<path fill-rule="evenodd" clip-rule="evenodd" d="M54.7634 74.856C54.0253 74.856 53.4255 74.2562 53.4255 73.518V67.6126C53.4255 65.8595 56.1014 65.8595 56.1014 67.6126V73.518C56.1014 74.2562 55.5016 74.856 54.7634 74.856ZM98.6619 97.0936H1.33783C0.599651 97.0936 0.0229492 96.4938 0.0229492 95.7556V81.6611C0.0229492 80.0924 1.72999 80.3231 2.65271 80.3231V27.728C2.65271 26.9898 3.25248 26.39 3.96759 26.39H35.0864C36.0091 19.262 38.5466 13.9333 41.4532 10.0578C44.2675 6.29775 48.858 2.62993 50.196 2.92981C52.0414 3.36811 56.1014 6.57456 59.0541 10.7729C61.6146 14.4177 64.0137 19.5157 64.9134 26.39H96.0091C96.7473 26.39 97.3471 26.9898 97.3471 27.728V80.3231C98.2698 80.3231 99.9768 80.0924 99.9768 81.6611V95.7556C99.9768 96.4938 99.4001 97.0936 98.6619 97.0936ZM2.67578 94.4177H97.324V82.9759H67.7738L62.3067 89.5273C62.0529 89.8272 61.6839 90.0117 61.2917 90.0117H38.7081C38.3159 90.0117 37.9238 89.8272 37.67 89.5273L32.2259 82.9759H2.67578V94.4177ZM39.3309 87.3589H60.6689L64.3136 82.9759H35.6862L39.3309 87.3589ZM34.8096 29.0659H5.30553V80.3231H8.51199V33.5872C8.51199 32.8491 9.11176 32.2493 9.84994 32.2493H34.7173C34.7173 31.1651 34.7404 30.0809 34.8096 29.0659ZM91.4878 80.3231H94.6942V29.0659H65.1671C65.2363 30.0809 65.2825 31.1651 65.2825 32.2724H90.1498C90.888 32.2724 91.4878 32.8491 91.4878 33.5872V80.3231ZM34.7865 34.9252H11.1648V80.3231H88.8349V34.9252H65.2133C65.1902 35.202 65.1902 35.4788 65.1671 35.7556C67.4047 38.3854 70.6804 45.0751 70.6804 61.6149C70.6804 62.8145 69.204 63.3912 68.3736 62.5146L61.1533 54.6253C60.2536 57.2781 60.4612 57.0244 57.6008 57.0244V62.8145C57.6008 63.5526 57.0241 64.1524 56.2859 64.1524H43.7138C42.9757 64.1524 42.399 63.5526 42.399 62.8145V57.0244C39.5155 57.0244 39.7461 57.2781 38.8465 54.6253L31.6262 62.5146C30.7957 63.3912 29.3194 62.8145 29.3194 61.6149C29.3194 45.0982 32.595 38.4085 34.8326 35.7556C34.8096 35.4788 34.7865 35.202 34.7865 34.9252ZM49.9883 76.8168C49.2732 76.8168 48.6735 76.217 48.6735 75.4788V69.5503C48.6735 67.7972 51.3263 67.7972 51.3263 69.5503V75.4788C51.3263 76.217 50.7265 76.8168 49.9883 76.8168ZM54.948 57.0244H45.0518V61.4996H54.948V57.0244ZM37.9007 51.7187C36.6089 47.4973 35.7554 43.6219 35.2709 40.0463C33.8407 43.0452 32.3182 48.4661 32.0183 58.1317L37.9007 51.7187ZM64.7288 40.0232C64.2213 43.6219 63.3909 47.4973 62.0991 51.7187L67.9814 58.1317C67.6815 48.4431 66.136 43.0221 64.7288 40.0232ZM41.5454 54.3716H58.4313C64.452 37.0244 63.091 25.3058 59.8384 17.7164C54.0022 22.0302 45.9976 22.0302 40.1383 17.6934C36.4243 26.4131 36.0552 38.5238 41.5454 54.3716ZM58.6619 15.2482C55.4555 9.29659 51.2802 6.48229 49.9883 5.72105C48.7196 6.48229 44.5212 9.29659 41.3378 15.2482C46.3897 19.3081 53.61 19.3081 58.6619 15.2482ZM49.9883 44.4292C46.2744 44.4292 43.2294 41.3843 43.2294 37.6472C43.2294 33.9333 46.2744 30.8883 49.9883 30.8883C53.7254 30.8883 56.7704 33.9333 56.7704 37.6472C56.7704 41.3843 53.7254 44.4292 49.9883 44.4292ZM49.9883 33.5642C47.7277 33.5642 45.8822 35.3866 45.8822 37.6472C45.8822 39.931 47.7277 41.7533 49.9883 41.7533C52.249 41.7533 54.0945 39.931 54.0945 37.6472C54.0945 35.3866 52.249 33.5642 49.9883 33.5642ZM45.2363 74.856C44.4982 74.856 43.8984 74.2562 43.8984 73.518V67.6126C43.8984 65.8595 46.5743 65.8595 46.5743 67.6126V73.518C46.5743 74.2562 45.9745 74.856 45.2363 74.856Z" fill="#4263EB"/>
</svg>
