<svg width="16" height="16" viewBox="0 0 16 16" fill="none" xmlns="http://www.w3.org/2000/svg">
<path d="M4.09814 0H9.45161L13.9833 4.72797V13.9186C13.9833 15.0682 13.0515 16 11.9019 16H4.09814C2.9485 16 2.01672 15.0682 2.01672 13.9186V2.08141C2.01672 0.931794 2.9485 0 4.09814 0Z" fill="#0263D1"/>
<path opacity="0.302" fill-rule="evenodd" clip-rule="evenodd" d="M9.4451 0V4.68913H13.9833L9.4451 0Z" fill="white"/>
<path d="M3.94928 11.4166V8.76787H4.88754C5.07519 8.76787 5.24991 8.79591 5.41168 8.84769C5.57345 8.9016 5.72012 8.97925 5.8517 9.0828C5.98327 9.18632 6.08681 9.32438 6.1623 9.49692C6.23779 9.66946 6.27662 9.8679 6.27662 10.0922C6.27662 10.3165 6.23779 10.515 6.1623 10.6875C6.08681 10.8601 5.98327 10.9981 5.8517 11.1016C5.72014 11.2052 5.57345 11.2828 5.41168 11.3368C5.24991 11.3885 5.07521 11.4166 4.88754 11.4166H3.94928ZM4.61145 10.8407H4.80773C4.91342 10.8407 5.01264 10.8277 5.10106 10.804C5.19165 10.7781 5.27361 10.7371 5.35126 10.6832C5.42891 10.6293 5.48929 10.5516 5.53243 10.4503C5.57774 10.351 5.59929 10.2303 5.59929 10.0922C5.59929 9.95419 5.57772 9.8334 5.53243 9.73201C5.48929 9.63279 5.42891 9.55514 5.35126 9.50123C5.27361 9.44515 5.19165 9.40633 5.10106 9.38044C5.01264 9.3567 4.91342 9.34377 4.80773 9.34377H4.61145V10.8407ZM7.88351 11.4468C7.48448 11.4468 7.15448 11.3173 6.89349 11.0607C6.6325 10.804 6.50308 10.4805 6.50308 10.0922C6.50308 9.70399 6.6325 9.38046 6.89349 9.1238C7.15448 8.86711 7.48448 8.73771 7.88351 8.73771C8.27606 8.73771 8.60176 8.86713 8.86275 9.1238C9.12157 9.38048 9.25099 9.70401 9.25099 10.0922C9.25099 10.4805 9.12157 10.804 8.86275 11.0607C8.60176 11.3173 8.27606 11.4468 7.88351 11.4468ZM7.37447 10.6509C7.50603 10.7975 7.67427 10.8709 7.87918 10.8709C8.08409 10.8709 8.25016 10.7975 8.38175 10.6509C8.51331 10.502 8.57803 10.3165 8.57803 10.0922C8.57803 9.8679 8.51331 9.6824 8.38175 9.53357C8.25018 9.38691 8.08409 9.31356 7.87918 9.31356C7.67427 9.31356 7.50603 9.38691 7.37447 9.53357C7.2429 9.6824 7.17603 9.8679 7.17603 10.0922C7.17603 10.3165 7.2429 10.502 7.37447 10.6509ZM10.8255 11.4468C10.4394 11.4468 10.1181 11.326 9.86356 11.0887C9.60688 10.8493 9.47964 10.5171 9.47964 10.0922C9.47964 9.66946 9.60906 9.3373 9.86788 9.09788C10.1289 8.85846 10.4459 8.73767 10.8256 8.73767C11.1685 8.73767 11.4489 8.82179 11.6711 8.99219C11.8911 9.16043 12.0183 9.38474 12.0507 9.66514L11.382 9.80103C11.354 9.65436 11.2871 9.53574 11.1836 9.44729C11.0801 9.35885 10.9593 9.31356 10.8212 9.31356C10.6314 9.31356 10.474 9.38044 10.3467 9.51631C10.2194 9.65434 10.1547 9.84415 10.1547 10.0922C10.1547 10.3403 10.2194 10.5301 10.3445 10.6659C10.4718 10.804 10.6293 10.8709 10.8212 10.8709C10.9592 10.8709 11.0779 10.832 11.1749 10.7544C11.272 10.6767 11.3324 10.5732 11.3583 10.4438L12.042 10.5991C11.9795 10.8666 11.8414 11.0736 11.6257 11.2224C11.4122 11.3713 11.1448 11.4468 10.8255 11.4468Z" fill="white"/>
</svg>
