<svg width="30" height="30" viewBox="0 0 30 30" fill="none" xmlns="http://www.w3.org/2000/svg">
<path d="M27.3396 11.666C26.8533 11.0039 26.1033 10.623 25.283 10.623H24.6619V8.95313C24.6619 7.54688 23.5193 6.4043 22.1072 6.4043H14.6541C14.2263 6.4043 13.8162 6.23438 13.5115 5.93555L12.3396 4.76953C11.8591 4.28906 11.2205 4.02539 10.5408 4.02539H4.71657C3.31032 4.02539 2.16774 5.16797 2.16774 6.58008V21.4453C2.15016 22.0137 2.32008 22.5762 2.66579 23.0449C3.15798 23.7129 3.91383 24.0996 4.74587 24.0996H22.6697C23.7888 24.0996 24.7674 23.3789 25.1072 22.3066L27.7263 13.9336C27.9666 13.1543 27.8259 12.3281 27.3396 11.666ZM3.09938 6.58008C3.09938 5.68945 3.82594 4.96289 4.71071 4.96289H10.5408C10.9685 4.96289 11.3728 5.13281 11.6834 5.43164L12.8552 6.59766C13.3357 7.07812 13.9744 7.3418 14.6541 7.3418H22.1131C23.0037 7.3418 23.7302 8.06836 23.7302 8.95313V10.623H7.32399C6.20485 10.623 5.22633 11.3438 4.88649 12.4102L3.09352 18.1289V6.58008H3.09938ZM26.824 13.6582L24.2049 22.0312C23.9939 22.7109 23.3728 23.1621 22.6638 23.1621H4.74001C4.21266 23.1621 3.73219 22.916 3.41579 22.4941C3.10524 22.0664 3.01149 21.5332 3.16969 21.0293L5.77712 12.6914C5.98805 12.0117 6.60915 11.5605 7.31813 11.5605H25.2771C25.7986 11.5605 26.2732 11.8008 26.5779 12.2168C26.8943 12.6387 26.9822 13.1602 26.824 13.6582Z" fill="#37303F"/>
</svg>
