<svg width="16" height="16" viewBox="0 0 16 16" fill="none" xmlns="http://www.w3.org/2000/svg">
<path d="M12.5 4H6.73415L5.745 2.2534C5.70138 2.17646 5.63814 2.11248 5.56172 2.06796C5.4853 2.02344 5.39844 1.99999 5.31 2H1C0.867392 2 0.740215 2.05268 0.646447 2.14645C0.552678 2.24021 0.5 2.36739 0.5 2.5V13.5C0.500043 13.6168 0.540926 13.7298 0.615567 13.8196C0.690208 13.9094 0.793906 13.9703 0.9087 13.9917C0.938921 13.9971 0.969551 13.9999 1.00025 14C1.10127 14 1.19992 13.9694 1.2832 13.9122C1.36648 13.855 1.43049 13.774 1.4668 13.6797L3.8435 7.5H12.5C12.6326 7.5 12.7598 7.44732 12.8536 7.35355C12.9473 7.25979 13 7.13261 13 7V4.5C13 4.36739 12.9473 4.24021 12.8536 4.14645C12.7598 4.05268 12.6326 4 12.5 4Z" fill="#E8A113"/>
<path d="M15.4121 6.7168C15.3662 6.64994 15.3046 6.59527 15.2329 6.5575C15.1611 6.51973 15.0812 6.49999 15 6.5H3.50003C3.39898 6.50004 3.30032 6.53066 3.217 6.58783C3.13368 6.64499 3.06962 6.72604 3.03323 6.8203L0.533225 13.3203C0.504048 13.3961 0.493757 13.4778 0.50324 13.5584C0.512724 13.639 0.541697 13.7161 0.587656 13.7831C0.633616 13.85 0.695179 13.9047 0.767026 13.9425C0.838873 13.9803 0.918843 14 1.00003 14H12.5C12.6011 14 12.6997 13.9693 12.7831 13.9122C12.8664 13.855 12.9304 13.774 12.9668 13.6797L15.4668 7.1797C15.4959 7.10389 15.5061 7.02214 15.4966 6.9415C15.4871 6.86086 15.4581 6.78374 15.4121 6.7168Z" fill="#FFC431"/>
</svg>
