<svg width="12" height="12" viewBox="0 0 12 12" fill="none" xmlns="http://www.w3.org/2000/svg">
<g clip-path="url(#clip0_15878_23614)">
<path d="M6 0C2.69147 0 0 2.69147 0 6C0 9.30853 2.69147 12 6 12C9.30853 12 12 9.30853 12 6C12 2.69147 9.30853 0 6 0ZM6 9.49997C5.72397 9.49997 5.50003 9.27603 5.50003 9C5.50003 8.72397 5.72397 8.50003 6 8.50003C6.27603 8.50003 6.49997 8.72397 6.49997 9C6.49997 9.27603 6.27603 9.49997 6 9.49997ZM6.79147 6.32098C6.6145 6.40247 6.49997 6.58099 6.49997 6.77554V7.00003C6.49997 7.27597 6.27649 7.5 6 7.5C5.72351 7.5 5.50003 7.27597 5.50003 7.00003V6.77554C5.50003 6.19199 5.84299 5.65704 6.37253 5.41251C6.88202 5.17804 7.24997 4.55548 7.24997 4.24997C7.24997 3.56104 6.68948 3 6 3C5.31052 3 4.75003 3.56104 4.75003 4.24997C4.75003 4.526 4.52646 4.75003 4.24997 4.75003C3.97348 4.75003 3.75 4.526 3.75 4.24997C3.75 3.00952 4.75946 1.99997 6 1.99997C7.24054 1.99997 8.25 3.00952 8.25 4.24997C8.25 4.92554 7.66397 5.91852 6.79147 6.32098Z" fill="#4263EB"/>
</g>
<defs>
<clipPath id="clip0_15878_23614">
<rect width="12" height="12" fill="white"/>
</clipPath>
</defs>
</svg>
