<svg width="30" height="30" viewBox="0 0 30 30" fill="none" xmlns="http://www.w3.org/2000/svg">
<path d="M14.7205 26.25H4.14681C5.37695 24.6885 6.04319 22.757 6.03737 20.7692V3.75H22.3495V12.7249C22.3495 12.8492 22.3989 12.9685 22.4868 13.0564C22.5747 13.1443 22.694 13.1937 22.8183 13.1937C22.9426 13.1937 23.0618 13.1443 23.1498 13.0564C23.2377 12.9685 23.287 12.8492 23.287 12.7249V3.28125C23.2871 3.21969 23.275 3.15873 23.2514 3.10185C23.2278 3.04497 23.1933 2.99329 23.1498 2.94976C23.1063 2.90623 23.0546 2.8717 22.9977 2.84815C22.9408 2.8246 22.8799 2.81248 22.8183 2.8125H5.56862C5.50706 2.81248 5.4461 2.8246 5.38922 2.84815C5.33234 2.8717 5.28066 2.90623 5.23713 2.94976C5.1936 2.99329 5.15907 3.04497 5.13552 3.10185C5.11197 3.15873 5.09986 3.21969 5.09987 3.28125V20.7692C5.10276 21.813 4.89859 22.847 4.49919 23.8113C4.0998 24.7757 3.5131 25.6512 2.77306 26.3873C2.70749 26.4529 2.66285 26.5364 2.64475 26.6273C2.62666 26.7182 2.63594 26.8125 2.67142 26.8982C2.70689 26.9838 2.76697 27.057 2.84406 27.1085C2.92114 27.16 3.01177 27.1875 3.10448 27.1875H14.7205C14.8448 27.1875 14.964 27.1381 15.0519 27.0502C15.1398 26.9623 15.1892 26.8431 15.1892 26.7188C15.1892 26.5944 15.1398 26.4752 15.0519 26.3873C14.964 26.2994 14.8448 26.25 14.7205 26.25Z" fill="#37303F"/>
<path d="M19.57 8.7168H8.81689C8.69257 8.7168 8.57335 8.76618 8.48544 8.85409C8.39753 8.942 8.34814 9.06123 8.34814 9.18555C8.34814 9.30987 8.39753 9.4291 8.48544 9.517C8.57335 9.60491 8.69257 9.6543 8.81689 9.6543H19.57C19.6943 9.6543 19.8136 9.60491 19.9015 9.517C19.9894 9.4291 20.0388 9.30987 20.0388 9.18555C20.0388 9.06123 19.9894 8.942 19.9015 8.85409C19.8136 8.76618 19.6943 8.7168 19.57 8.7168Z" fill="#37303F"/>
<path d="M20.0388 12.3616C20.0388 12.3 20.0267 12.239 20.0031 12.1822C19.9796 12.1253 19.945 12.0736 19.9015 12.0301C19.858 11.9865 19.8063 11.952 19.7494 11.9285C19.6925 11.9049 19.6316 11.8928 19.57 11.8928H8.81689C8.69257 11.8928 8.57335 11.9422 8.48544 12.0301C8.39753 12.118 8.34814 12.2373 8.34814 12.3616C8.34814 12.4859 8.39753 12.6051 8.48544 12.693C8.57335 12.7809 8.69257 12.8303 8.81689 12.8303H19.57C19.6316 12.8303 19.6925 12.8182 19.7494 12.7947C19.8063 12.7711 19.858 12.7366 19.9015 12.6931C19.945 12.6495 19.9796 12.5979 20.0031 12.541C20.0267 12.4841 20.0388 12.4231 20.0388 12.3616Z" fill="#37303F"/>
<path d="M15.365 15.5374C15.365 15.4758 15.3529 15.4148 15.3293 15.358C15.3058 15.3011 15.2712 15.2494 15.2277 15.2059C15.1842 15.1623 15.1325 15.1278 15.0756 15.1043C15.0187 15.0807 14.9578 15.0686 14.8962 15.0686H8.81689C8.69257 15.0686 8.57335 15.118 8.48544 15.2059C8.39753 15.2938 8.34814 15.413 8.34814 15.5374C8.34814 15.6617 8.39753 15.7809 8.48544 15.8688C8.57335 15.9567 8.69257 16.0061 8.81689 16.0061H14.8962C14.9578 16.0061 15.0187 15.994 15.0756 15.9705C15.1325 15.9469 15.1842 15.9124 15.2277 15.8688C15.2712 15.8253 15.3058 15.7736 15.3293 15.7168C15.3529 15.6599 15.365 15.5989 15.365 15.5374Z" fill="#37303F"/>
<path d="M8.81689 18.2446C8.69257 18.2446 8.57335 18.294 8.48544 18.3819C8.39753 18.4698 8.34814 18.5891 8.34814 18.7134C8.34814 18.8377 8.39753 18.9569 8.48544 19.0448C8.57335 19.1327 8.69257 19.1821 8.81689 19.1821H12.6404C12.7647 19.1821 12.8839 19.1327 12.9718 19.0448C13.0597 18.9569 13.1091 18.8377 13.1091 18.7134C13.1091 18.5891 13.0597 18.4698 12.9718 18.3819C12.8839 18.294 12.7647 18.2446 12.6404 18.2446H8.81689Z" fill="#37303F"/>
<path d="M25.5893 16.8433C24.8052 16.0579 23.8204 15.5031 22.7424 15.2396C21.6643 14.976 20.5346 15.0139 19.4766 15.349C18.4187 15.6841 17.4732 16.3036 16.7435 17.1398C16.0138 17.9759 15.5279 18.9966 15.3391 20.0902L14.9666 19.7176C14.8787 19.6297 14.7595 19.5804 14.6352 19.5804C14.5109 19.5804 14.3917 19.6297 14.3038 19.7176C14.2159 19.8055 14.1665 19.9248 14.1665 20.0491C14.1665 20.1734 14.2159 20.2926 14.3038 20.3805L15.3824 21.4591C15.4706 21.5468 15.5898 21.596 15.7142 21.596C15.8385 21.596 15.9578 21.5468 16.0459 21.4591L17.1248 20.3805C17.2127 20.2926 17.262 20.1734 17.262 20.0491C17.262 19.9248 17.2127 19.8055 17.1248 19.7176C17.0369 19.6297 16.9176 19.5804 16.7933 19.5804C16.669 19.5804 16.5498 19.6297 16.4619 19.7176L16.3555 19.8241C16.6437 18.7342 17.2837 17.7701 18.1761 17.0813C19.0686 16.3925 20.1635 16.0177 21.2908 16.0151C22.4181 16.0124 23.5147 16.3821 24.4104 17.0666C25.306 17.7512 25.9506 18.7123 26.244 19.8008C26.5373 20.8893 26.4631 22.0442 26.0327 23.0861C25.6023 24.128 24.84 24.9987 23.864 25.5629C22.8881 26.1271 21.7531 26.3533 20.6354 26.2062C19.5177 26.0592 18.4799 25.5472 17.683 24.7498C17.5951 24.6619 17.4759 24.6126 17.3516 24.6126C17.2273 24.6126 17.1081 24.6619 17.0202 24.7498C16.9323 24.8377 16.8829 24.957 16.8829 25.0813C16.8829 25.2056 16.9323 25.3248 17.0202 25.4127C18.1567 26.5481 19.6977 27.1857 21.3042 27.1853C22.9107 27.1849 24.4513 26.5465 25.5873 25.4105C26.7233 24.2745 27.3616 22.7339 27.362 21.1273C27.3624 19.5208 26.7247 17.9799 25.5893 16.8433Z" fill="#37303F"/>
<path d="M21.3052 17.0696C21.2436 17.0696 21.1827 17.0817 21.1258 17.1052C21.0689 17.1288 21.0172 17.1633 20.9737 17.2068C20.9302 17.2504 20.8956 17.302 20.8721 17.3589C20.8485 17.4158 20.8364 17.4768 20.8364 17.5383V21.1281C20.8372 21.2525 20.8866 21.3716 20.9742 21.46L22.673 23.1588C22.7611 23.2457 22.88 23.2943 23.0038 23.2939C23.1275 23.2935 23.2461 23.2442 23.3337 23.1566C23.4212 23.0691 23.4705 22.9505 23.4709 22.8267C23.4713 22.703 23.4228 22.584 23.3358 22.4959L21.7739 20.9341V17.5383C21.7739 17.4768 21.7618 17.4158 21.7383 17.3589C21.7147 17.302 21.6802 17.2504 21.6367 17.2068C21.5931 17.1633 21.5415 17.1288 21.4846 17.1052C21.4277 17.0817 21.3667 17.0696 21.3052 17.0696Z" fill="#37303F"/>
</svg>
