<svg width="124" height="14" viewBox="0 0 124 14" fill="none" xmlns="http://www.w3.org/2000/svg">
<path d="M8.32308 9.76814V4.27051L2.64697 6.98141L8.32308 9.76814Z" fill="black"/>
<path d="M3.62158 5.65403L8.57145 3.22749L6.52653 1.19905C6.25896 0.933649 5.83851 0.933649 5.57095 1.19905L3.62158 3.15166V5.65403Z" fill="black"/>
<path d="M11.8965 6.5261L9.22091 3.87207L9.16357 3.89103V10.1659L11.8965 7.45501C12.1641 7.20856 12.1641 6.7915 11.8965 6.5261Z" fill="black"/>
<path d="M2.76161 7.91001L0.888683 6.9811L2.76161 6.07115V3.98584L0.20067 6.52612C-0.0668902 6.79153 -0.0668902 7.20859 0.20067 7.47399L2.76161 10.0143V7.91001Z" fill="black"/>
<path d="M3.62158 8.32715V10.8485L5.59006 12.8011C5.85762 13.0665 6.27808 13.0665 6.54564 12.8011L8.59056 10.7726L3.62158 8.32715Z" fill="black"/>
<path d="M20.9883 3.86133C21.9095 3.86133 22.5817 4.04199 23.0049 4.40332C23.4313 4.76139 23.6445 5.27572 23.6445 5.94629C23.6445 6.24902 23.5941 6.53711 23.4932 6.81055C23.3955 7.08073 23.236 7.31999 23.0146 7.52832C22.7933 7.7334 22.502 7.89616 22.1406 8.0166C21.7826 8.13379 21.3431 8.19238 20.8223 8.19238H19.9531V11H19.123V3.86133H20.9883ZM20.9102 4.56934H19.9531V7.47949H20.7295C21.1852 7.47949 21.5645 7.43066 21.8672 7.33301C22.1732 7.23535 22.4027 7.07747 22.5557 6.85938C22.7087 6.63802 22.7852 6.34505 22.7852 5.98047C22.7852 5.50521 22.6338 5.15202 22.3311 4.9209C22.0283 4.68652 21.5547 4.56934 20.9102 4.56934ZM29.6309 8.31445C29.6309 8.75391 29.5739 9.14616 29.46 9.49121C29.346 9.83626 29.1816 10.1276 28.9668 10.3652C28.752 10.6029 28.4915 10.7852 28.1855 10.9121C27.8828 11.0358 27.5394 11.0977 27.1553 11.0977C26.7972 11.0977 26.4684 11.0358 26.1689 10.9121C25.8727 10.7852 25.6156 10.6029 25.3975 10.3652C25.1826 10.1276 25.015 9.83626 24.8945 9.49121C24.7773 9.14616 24.7188 8.75391 24.7188 8.31445C24.7188 7.72852 24.818 7.23047 25.0166 6.82031C25.2152 6.4069 25.4984 6.09277 25.8662 5.87793C26.2373 5.65983 26.6784 5.55078 27.1895 5.55078C27.6777 5.55078 28.1042 5.65983 28.4688 5.87793C28.8366 6.09603 29.1214 6.41178 29.3232 6.8252C29.5283 7.23535 29.6309 7.73177 29.6309 8.31445ZM25.5586 8.31445C25.5586 8.74414 25.6156 9.11686 25.7295 9.43262C25.8434 9.74837 26.0192 9.99251 26.2568 10.165C26.4945 10.3376 26.8005 10.4238 27.1748 10.4238C27.5459 10.4238 27.8503 10.3376 28.0879 10.165C28.3288 9.99251 28.5062 9.74837 28.6201 9.43262C28.734 9.11686 28.791 8.74414 28.791 8.31445C28.791 7.88802 28.734 7.52018 28.6201 7.21094C28.5062 6.89844 28.3304 6.65755 28.0928 6.48828C27.8551 6.31901 27.5475 6.23438 27.1699 6.23438C26.6133 6.23438 26.2048 6.41829 25.9443 6.78613C25.6872 7.15397 25.5586 7.66341 25.5586 8.31445ZM35.3877 10.9902L34.4355 7.875C34.3932 7.74154 34.3525 7.61133 34.3135 7.48438C34.2777 7.35417 34.2435 7.23047 34.2109 7.11328C34.1816 6.99284 34.154 6.88216 34.1279 6.78125C34.1051 6.67708 34.0856 6.58757 34.0693 6.5127H34.0352C34.0221 6.58757 34.0042 6.67708 33.9814 6.78125C33.9587 6.88216 33.931 6.99284 33.8984 7.11328C33.8691 7.23372 33.8366 7.36068 33.8008 7.49414C33.765 7.62435 33.7243 7.75618 33.6787 7.88965L32.6826 10.9902H31.7695L30.2949 5.63867H31.1348L31.9062 8.59277C31.9583 8.78809 32.0072 8.98177 32.0527 9.17383C32.1016 9.36263 32.1423 9.54167 32.1748 9.71094C32.2106 9.87695 32.2367 10.0218 32.2529 10.1455H32.292C32.3115 10.0641 32.3327 9.96647 32.3555 9.85254C32.3815 9.73861 32.4092 9.61816 32.4385 9.49121C32.471 9.361 32.5052 9.23242 32.541 9.10547C32.5768 8.97526 32.6126 8.85319 32.6484 8.73926L33.6348 5.63867H34.5088L35.4609 8.73438C35.5098 8.89062 35.557 9.05339 35.6025 9.22266C35.6514 9.39193 35.6953 9.55632 35.7344 9.71582C35.7734 9.87207 35.8011 10.012 35.8174 10.1357H35.8564C35.8695 10.0251 35.8939 9.88835 35.9297 9.72559C35.9655 9.56283 36.0062 9.38379 36.0518 9.18848C36.1006 8.99316 36.151 8.7946 36.2031 8.59277L36.9844 5.63867H37.8096L36.3301 10.9902H35.3877ZM40.8467 5.55078C41.3024 5.55078 41.693 5.65169 42.0186 5.85352C42.3441 6.05534 42.5931 6.33854 42.7656 6.70312C42.9382 7.06445 43.0244 7.48763 43.0244 7.97266V8.47559H39.3281C39.3379 9.10384 39.4941 9.58236 39.7969 9.91113C40.0996 10.2399 40.526 10.4043 41.0762 10.4043C41.4147 10.4043 41.7142 10.3734 41.9746 10.3115C42.235 10.2497 42.5052 10.1585 42.7852 10.0381V10.751C42.515 10.8714 42.2464 10.9593 41.9795 11.0146C41.7158 11.07 41.4033 11.0977 41.042 11.0977C40.5277 11.0977 40.0785 10.9935 39.6943 10.7852C39.3135 10.5736 39.0173 10.2643 38.8057 9.85742C38.5941 9.45052 38.4883 8.95247 38.4883 8.36328C38.4883 7.78711 38.5843 7.28906 38.7764 6.86914C38.9717 6.44596 39.2451 6.12044 39.5967 5.89258C39.9515 5.66471 40.3682 5.55078 40.8467 5.55078ZM40.8369 6.21484C40.404 6.21484 40.0589 6.35645 39.8018 6.63965C39.5446 6.92285 39.3916 7.31836 39.3428 7.82617H42.1748C42.1715 7.50716 42.1211 7.22721 42.0234 6.98633C41.929 6.74219 41.7842 6.55339 41.5889 6.41992C41.3936 6.2832 41.1429 6.21484 40.8369 6.21484ZM46.833 5.55078C46.9404 5.55078 47.0527 5.55729 47.1699 5.57031C47.2871 5.58008 47.3913 5.59473 47.4824 5.61426L47.3799 6.36621C47.292 6.34342 47.1943 6.32552 47.0869 6.3125C46.9795 6.29948 46.8786 6.29297 46.7842 6.29297C46.5693 6.29297 46.3659 6.33691 46.1738 6.4248C45.985 6.50944 45.819 6.63314 45.6758 6.7959C45.5326 6.9554 45.4202 7.14909 45.3389 7.37695C45.2575 7.60156 45.2168 7.85221 45.2168 8.12891V11H44.4014V5.64844H45.0752L45.1631 6.63477H45.1973C45.3079 6.4362 45.4414 6.25553 45.5977 6.09277C45.7539 5.92676 45.9346 5.79492 46.1396 5.69727C46.348 5.59961 46.5791 5.55078 46.833 5.55078ZM50.5537 5.55078C51.0094 5.55078 51.4001 5.65169 51.7256 5.85352C52.0511 6.05534 52.3001 6.33854 52.4727 6.70312C52.6452 7.06445 52.7314 7.48763 52.7314 7.97266V8.47559H49.0352C49.0449 9.10384 49.2012 9.58236 49.5039 9.91113C49.8066 10.2399 50.2331 10.4043 50.7832 10.4043C51.1217 10.4043 51.4212 10.3734 51.6816 10.3115C51.9421 10.2497 52.2122 10.1585 52.4922 10.0381V10.751C52.222 10.8714 51.9535 10.9593 51.6865 11.0146C51.4229 11.07 51.1104 11.0977 50.749 11.0977C50.2347 11.0977 49.7855 10.9935 49.4014 10.7852C49.0205 10.5736 48.7243 10.2643 48.5127 9.85742C48.3011 9.45052 48.1953 8.95247 48.1953 8.36328C48.1953 7.78711 48.2913 7.28906 48.4834 6.86914C48.6787 6.44596 48.9521 6.12044 49.3037 5.89258C49.6585 5.66471 50.0752 5.55078 50.5537 5.55078ZM50.5439 6.21484C50.111 6.21484 49.766 6.35645 49.5088 6.63965C49.2516 6.92285 49.0986 7.31836 49.0498 7.82617H51.8818C51.8786 7.50716 51.8281 7.22721 51.7305 6.98633C51.6361 6.74219 51.4912 6.55339 51.2959 6.41992C51.1006 6.2832 50.8499 6.21484 50.5439 6.21484ZM56.0127 11.0977C55.3356 11.0977 54.7985 10.8665 54.4014 10.4043C54.0075 9.94206 53.8105 9.25521 53.8105 8.34375C53.8105 7.42253 54.0124 6.72754 54.416 6.25879C54.8197 5.78678 55.3568 5.55078 56.0273 5.55078C56.3105 5.55078 56.5579 5.58822 56.7695 5.66309C56.9811 5.73796 57.1634 5.83887 57.3164 5.96582C57.4694 6.08952 57.598 6.23112 57.7021 6.39062H57.7607C57.7477 6.28971 57.7347 6.15137 57.7217 5.97559C57.7087 5.7998 57.7021 5.65658 57.7021 5.5459V3.40234H58.5127V11H57.8584L57.7363 10.2383H57.7021C57.6012 10.3978 57.4727 10.5426 57.3164 10.6729C57.1634 10.8031 56.9795 10.9072 56.7646 10.9854C56.5531 11.0602 56.3024 11.0977 56.0127 11.0977ZM56.1396 10.4238C56.7126 10.4238 57.1178 10.2611 57.3555 9.93555C57.5931 9.61003 57.7119 9.12663 57.7119 8.48535V8.33887C57.7119 7.65853 57.598 7.13607 57.3701 6.77148C57.1455 6.4069 56.7354 6.22461 56.1396 6.22461C55.6416 6.22461 55.2689 6.41667 55.0215 6.80078C54.7741 7.18164 54.6504 7.70247 54.6504 8.36328C54.6504 9.02083 54.7725 9.52865 55.0166 9.88672C55.264 10.2448 55.6383 10.4238 56.1396 10.4238ZM63.6396 3.40234V5.30176C63.6396 5.51986 63.6331 5.73145 63.6201 5.93652C63.6104 6.1416 63.6022 6.30111 63.5957 6.41504H63.6396C63.7861 6.17415 63.9977 5.9707 64.2744 5.80469C64.5511 5.63867 64.9043 5.55566 65.334 5.55566C66.0046 5.55566 66.5384 5.78841 66.9355 6.25391C67.3359 6.71615 67.5361 7.40462 67.5361 8.31934C67.5361 8.92155 67.445 9.42936 67.2627 9.84277C67.0804 10.2562 66.8232 10.5687 66.4912 10.7803C66.1592 10.9919 65.7669 11.0977 65.3145 11.0977C64.8913 11.0977 64.543 11.0195 64.2695 10.8633C63.9993 10.7038 63.791 10.5101 63.6445 10.2822H63.5811L63.415 11H62.8291V3.40234H63.6396ZM65.2021 6.23438C64.8148 6.23438 64.5072 6.31087 64.2793 6.46387C64.0514 6.61361 63.887 6.84147 63.7861 7.14746C63.6885 7.4502 63.6396 7.83431 63.6396 8.2998V8.34375C63.6396 9.01758 63.752 9.53353 63.9766 9.8916C64.2012 10.2464 64.6097 10.4238 65.2021 10.4238C65.7002 10.4238 66.0729 10.2415 66.3203 9.87695C66.571 9.51237 66.6963 8.99154 66.6963 8.31445C66.6963 7.62435 66.5726 7.10514 66.3252 6.75684C66.0811 6.40853 65.7067 6.23438 65.2021 6.23438ZM68.1074 5.64844H68.9766L70.1582 8.75391C70.2266 8.9362 70.29 9.11198 70.3486 9.28125C70.4072 9.44727 70.4593 9.60677 70.5049 9.75977C70.5505 9.91276 70.5863 10.0609 70.6123 10.2041H70.6465C70.6921 10.0413 70.7572 9.82812 70.8418 9.56445C70.9264 9.29753 71.0176 9.02572 71.1152 8.74902L72.2334 5.64844H73.1074L70.7783 11.7861C70.6546 12.1149 70.5098 12.4014 70.3438 12.6455C70.181 12.8896 69.9824 13.0768 69.748 13.207C69.5137 13.3405 69.2305 13.4072 68.8984 13.4072C68.7454 13.4072 68.6104 13.3975 68.4932 13.3779C68.376 13.3617 68.2751 13.3421 68.1904 13.3193V12.6699C68.262 12.6862 68.3483 12.7008 68.4492 12.7139C68.5534 12.7269 68.6608 12.7334 68.7715 12.7334C68.9733 12.7334 69.1475 12.6943 69.2939 12.6162C69.4437 12.5413 69.5723 12.4307 69.6797 12.2842C69.7871 12.1377 69.8799 11.9635 69.958 11.7617L70.251 11.0098L68.1074 5.64844ZM81.8281 11H80.8467L78.2734 7.52832L77.5117 8.21191V11H76.6816V3.86133H77.5117V7.4209C77.6973 7.20931 77.8877 6.99935 78.083 6.79102C78.2783 6.57943 78.472 6.36621 78.6641 6.15137L80.749 3.86133H81.7207L78.8789 6.95703L81.8281 11ZM87.2822 11L86.4033 8.73438H83.542L82.668 11H81.8281L84.6211 3.83203H85.3682L88.1416 11H87.2822ZM86.1543 7.99707L85.3193 5.74609C85.2998 5.6875 85.2673 5.59147 85.2217 5.45801C85.1794 5.32454 85.1354 5.1862 85.0898 5.04297C85.0443 4.89974 85.0068 4.78418 84.9775 4.69629C84.945 4.82975 84.9092 4.96322 84.8701 5.09668C84.8343 5.22689 84.7985 5.34896 84.7627 5.46289C84.7269 5.57357 84.696 5.66797 84.6699 5.74609L83.8203 7.99707H86.1543ZM91.0615 3.86133C91.6475 3.86133 92.1309 3.93457 92.5117 4.08105C92.8958 4.22428 93.1823 4.44401 93.3711 4.74023C93.5599 5.03646 93.6543 5.41406 93.6543 5.87305C93.6543 6.25065 93.5859 6.56641 93.4492 6.82031C93.3125 7.07096 93.1335 7.27441 92.9121 7.43066C92.6908 7.58691 92.4548 7.70736 92.2041 7.79199L94.1621 11H93.1953L91.4473 8.02148H89.9629V11H89.1328V3.86133H91.0615ZM91.0127 4.5791H89.9629V7.31836H91.0957C91.6784 7.31836 92.1064 7.19954 92.3799 6.96191C92.6566 6.72428 92.7949 6.37435 92.7949 5.91211C92.7949 5.42708 92.6484 5.08366 92.3555 4.88184C92.0658 4.68001 91.6182 4.5791 91.0127 4.5791ZM99.7822 11L98.9033 8.73438H96.042L95.168 11H94.3281L97.1211 3.83203H97.8682L100.642 11H99.7822ZM98.6543 7.99707L97.8193 5.74609C97.7998 5.6875 97.7673 5.59147 97.7217 5.45801C97.6794 5.32454 97.6354 5.1862 97.5898 5.04297C97.5443 4.89974 97.5068 4.78418 97.4775 4.69629C97.445 4.82975 97.4092 4.96322 97.3701 5.09668C97.3343 5.22689 97.2985 5.34896 97.2627 5.46289C97.2269 5.57357 97.196 5.66797 97.1699 5.74609L96.3203 7.99707H98.6543ZM106.779 11H105.798L103.225 7.52832L102.463 8.21191V11H101.633V3.86133H102.463V7.4209C102.648 7.20931 102.839 6.99935 103.034 6.79102C103.229 6.57943 103.423 6.36621 103.615 6.15137L105.7 3.86133H106.672L103.83 6.95703L106.779 11ZM113.156 3.86133V8.48047C113.156 8.98503 113.054 9.43424 112.849 9.82812C112.647 10.222 112.341 10.5329 111.931 10.7607C111.521 10.9854 111.006 11.0977 110.388 11.0977C109.506 11.0977 108.833 10.8584 108.371 10.3799C107.912 9.90137 107.683 9.26172 107.683 8.46094V3.86133H108.518V8.48535C108.518 9.09082 108.677 9.55794 108.996 9.88672C109.318 10.2155 109.799 10.3799 110.437 10.3799C110.873 10.3799 111.229 10.3018 111.506 10.1455C111.786 9.986 111.993 9.76465 112.126 9.48145C112.263 9.19499 112.331 8.86458 112.331 8.49023V3.86133H113.156ZM116.979 3.86133C117.565 3.86133 118.049 3.93457 118.43 4.08105C118.814 4.22428 119.1 4.44401 119.289 4.74023C119.478 5.03646 119.572 5.41406 119.572 5.87305C119.572 6.25065 119.504 6.56641 119.367 6.82031C119.23 7.07096 119.051 7.27441 118.83 7.43066C118.609 7.58691 118.373 7.70736 118.122 7.79199L120.08 11H119.113L117.365 8.02148H115.881V11H115.051V3.86133H116.979ZM116.931 4.5791H115.881V7.31836H117.014C117.596 7.31836 118.024 7.19954 118.298 6.96191C118.575 6.72428 118.713 6.37435 118.713 5.91211C118.713 5.42708 118.566 5.08366 118.273 4.88184C117.984 4.68001 117.536 4.5791 116.931 4.5791ZM121.223 11V3.86133H122.053V11H121.223Z" fill="black"/>
</svg>
