<svg width="100" height="100" viewBox="0 0 100 100" fill="none" xmlns="http://www.w3.org/2000/svg">
<g clip-path="url(#clip0_15878_21936)">
<path d="M91.905 52.4217C91.6038 50.8524 90.2313 49.7176 88.6333 49.7167H85.415L85.1783 48.2984C84.9422 46.8738 83.8198 45.7608 82.3933 45.5367C82.0767 45.4867 81.7567 45.4534 81.4417 45.41C81.9874 42.862 81.534 40.2017 80.175 37.9784C80.893 36.1158 80.759 34.0322 79.8083 32.277C78.8576 30.5218 77.1856 29.2712 75.2333 28.855C73.9852 22.175 68.1738 17.3193 61.3783 17.2784C61.2117 17.2784 61.0633 17.3 60.905 17.305C59.8191 15.5998 58.029 14.468 56.0228 14.2185C54.0167 13.969 52.0038 14.6277 50.5333 16.015C48.6809 14.8109 46.5194 14.1689 44.31 14.1667C40.7501 14.1813 37.395 15.8336 35.2133 18.6467C32.7909 17.9403 30.1786 18.374 28.1145 19.8254C26.0503 21.2767 24.7583 23.5881 24.6033 26.1067C22.0589 27.1763 20.4033 29.6666 20.4016 32.4267C20.4069 32.9051 20.4627 33.3817 20.5683 33.8484C18.3181 37.2406 17.7301 41.4711 18.97 45.3484C18.5233 45.41 18.0666 45.465 17.6366 45.5284C16.2027 45.7447 15.0703 46.8583 14.83 48.2884L14.5933 49.7117H11.3666C9.7714 49.7128 8.40054 50.844 8.09665 52.41L0.798313 89.88C0.513289 91.3475 0.899797 92.8655 1.85189 94.0179C2.80399 95.1704 4.22178 95.8364 5.71665 95.8334H40.4733C41.8533 98.11 46.0467 99.1667 50 99.1667C53.9117 99.1667 58.065 98.135 59.485 95.8334H94.2833C95.7778 95.8363 97.1953 95.1705 98.1473 94.0185C99.0993 92.8664 99.4861 91.3489 99.2017 89.8817L91.905 52.4217ZM25.4417 35.4434C24.0884 34.6297 23.4426 33.0145 23.8618 31.4922C24.281 29.9698 25.6627 28.9129 27.2416 28.9067C28.3467 28.9034 29.3867 29.4287 30.04 30.32C30.3949 30.7982 30.9779 31.0507 31.5694 30.9824C32.1609 30.9141 32.6711 30.5355 32.9077 29.9891C33.1444 29.4427 33.0715 28.8115 32.7167 28.3334C31.5849 26.8208 29.8699 25.8532 27.99 25.6667C28.4869 23.3326 30.5452 21.6616 32.9317 21.655C33.135 21.6653 33.3376 21.6876 33.5383 21.7217C33.4042 22.0634 33.2874 22.4116 33.1883 22.765C32.9809 23.6473 33.5165 24.5336 34.394 24.7602C35.2715 24.9868 36.1693 24.4707 36.415 23.5984C36.6045 22.8658 36.8957 22.1635 37.28 21.5117C38.7584 19.0349 41.4256 17.5129 44.31 17.5C45.8798 17.507 47.4137 17.9702 48.725 18.8334C48.4752 19.5352 48.3429 20.2735 48.3333 21.0184C48.3333 21.9388 49.0795 22.685 50 22.685C50.9205 22.685 51.6667 21.9388 51.6667 21.0184C51.6667 19.0822 53.2363 17.5125 55.1725 17.5125C57.1087 17.5125 58.6783 19.0822 58.6783 21.0184C58.6783 21.9388 59.4245 22.685 60.345 22.685C61.2655 22.685 62.0117 21.9388 62.0117 21.0184C62.0117 20.89 61.98 20.7684 61.9733 20.64C66.7456 20.9345 70.7585 24.3267 71.8433 28.9834C71.0659 29.2097 70.3354 29.5738 69.6867 30.0584C69.2103 30.4156 68.9607 30.9999 69.032 31.5911C69.1032 32.1822 69.4844 32.6905 70.032 32.9244C70.5795 33.1583 71.2103 33.0823 71.6867 32.725C73.0185 31.739 74.8583 31.8176 76.1011 32.9137C77.344 34.0099 77.6519 35.8254 76.84 37.27C76.4772 37.9079 75.9258 38.4179 75.2617 38.73C74.5651 39.0673 74.1924 39.8396 74.3617 40.5947C74.531 41.3499 75.1978 41.8891 75.9717 41.8967C76.216 41.8971 76.4575 41.843 76.6783 41.7384C77.12 41.5243 77.5374 41.2634 77.9233 40.96C78.7849 43.4093 78.2445 46.1334 76.5133 48.0684L76.4733 48.11C74.302 50.4622 70.8383 51.0979 67.9733 49.67C67.6927 49.5218 67.4231 49.3536 67.1666 49.1667C68.3943 47.4456 68.5638 45.185 67.6067 43.3C67.3387 42.768 66.8073 42.4193 66.2126 42.3854C65.6178 42.3514 65.0502 42.6373 64.7234 43.1354C64.3966 43.6334 64.3604 44.268 64.6283 44.8C65.1764 45.9016 64.8345 47.2384 63.825 47.9417C63.2321 48.3364 62.4997 48.4612 61.8096 48.2852C61.1195 48.1092 60.5364 47.6488 60.205 47.0184C59.9385 46.4857 59.4082 46.1357 58.8137 46.1002C58.2192 46.0646 57.6509 46.3489 57.3228 46.846C56.9948 47.3431 56.9569 47.9774 57.2233 48.51C58.2008 50.4832 60.2147 51.7293 62.4167 51.7234C63.1335 51.7185 63.8431 51.5789 64.5083 51.3117C65.1036 51.8329 65.7594 52.2805 66.4617 52.645C68.837 53.8763 71.5992 54.1316 74.16 53.3567C72.5129 55.6056 70.048 57.1171 67.2967 57.565C66.4407 57.7044 65.8347 58.4768 65.903 59.3413C65.9713 60.2058 66.6911 60.8735 67.5583 60.8767C67.647 60.8767 67.7356 60.87 67.8233 60.8567C68.8382 60.681 69.83 60.3914 70.78 59.9934C71.2934 60.9011 71.7101 61.8603 72.0233 62.855C72.0807 63.0287 72.1099 63.2105 72.11 63.3934C72.1096 64.1137 71.6793 64.7643 71.0167 65.0467C70.25 65.3432 69.3796 65.1093 68.865 64.4684C67.5742 62.9526 65.884 61.8295 63.9866 61.2267C60.385 60.02 58.995 58.9417 58.405 57.7684C59.2698 57.6605 60.1243 57.4821 60.96 57.235C61.5292 57.06 61.9618 56.5945 62.0949 56.014C62.2279 55.4335 62.0411 54.8261 61.6049 54.4207C61.1686 54.0152 60.5492 53.8733 59.98 54.0484C59.0448 54.3353 58.0794 54.5126 57.1033 54.5767C55.2228 54.7237 53.3335 54.4386 51.58 53.7434C50.9216 53.4866 50.1729 53.673 49.7117 54.2084C47.285 56.9958 43.1319 57.4696 40.1399 55.3003C37.1478 53.131 36.3068 49.0364 38.2017 45.8634C38.5086 45.351 38.5189 44.7138 38.2286 44.1918C37.9384 43.6697 37.3917 43.3422 36.7945 43.3326C36.1973 43.323 35.6403 43.6327 35.3333 44.145C34.9357 44.8218 34.6159 45.5414 34.38 46.29C33.0675 46.221 32.0326 45.1475 32.0117 43.8334V43.7917C32.0108 43.3519 31.8342 42.9307 31.5212 42.6218C31.2082 42.3129 30.7847 42.1418 30.345 42.1467C29.4205 42.1559 28.6764 42.9089 28.6783 43.8334C28.6857 46.7891 30.9147 49.2665 33.8533 49.585C33.8593 50.1437 33.91 50.7011 34.005 51.2517C30.2837 52.0569 26.424 50.7193 23.999 47.784C21.574 44.8487 20.9887 40.8059 22.4816 37.3034C22.8545 37.6806 23.2708 38.0124 23.7216 38.2917C24.509 38.7529 25.5208 38.4953 25.9917 37.7137C26.4625 36.9321 26.2174 35.9172 25.4417 35.4367V35.4434ZM18.1083 48.8317C18.8766 48.7184 19.67 48.6184 20.4583 48.515C23.5399 53.4394 29.4335 55.8305 35.075 54.445C36.5908 57.322 39.3607 59.3283 42.5668 59.8717C45.7729 60.4151 49.0492 59.4335 51.4283 57.2167C52.5609 57.5545 53.7275 57.7658 54.9067 57.8467C55.7117 60.9 58.0383 62.75 62.9267 64.3884C64.2445 64.8015 65.4201 65.5758 66.32 66.6234C67.3205 67.8131 68.7922 68.5045 70.3467 68.515C71.0265 68.5148 71.6993 68.3776 72.325 68.1117C74.2142 67.3043 75.4398 65.4479 75.44 63.3934C75.4415 62.8576 75.356 62.3251 75.1867 61.8167C74.8118 60.6391 74.3182 59.5027 73.7133 58.425C76.5474 56.3877 78.5217 53.3683 79.2517 49.955C79.6066 49.5333 79.9276 49.0841 80.2117 48.6117C80.77 48.6834 81.3283 48.7467 81.89 48.84L87.9067 85.03C76.1458 81.1029 63.4275 81.1029 51.6667 85.03V64.1667C51.6667 63.2462 50.9205 62.5 50 62.5C49.0795 62.5 48.3333 63.2462 48.3333 64.1667V85.0367C36.5738 81.1059 23.8557 81.1012 12.0933 85.0234L18.1083 48.8317ZM4.41831 91.8867C4.10339 91.5063 3.97501 91.005 4.06831 90.52L11.3666 53.05H14.0333L8.80331 84.4817C8.61936 85.6258 9.04061 86.7835 9.91676 87.5419C10.7929 88.3002 11.9991 88.5511 13.105 88.205C21.99 85.3265 31.4557 84.7259 40.6333 86.4584L40.1367 92.5H5.71665C5.21385 92.5004 4.73737 92.2753 4.41831 91.8867ZM50 95.8334C45.985 95.8334 43.6817 94.6467 43.3433 94.1184L43.9167 87.2017C45.7493 87.658 47.5427 88.2593 49.28 89C49.5047 89.1083 49.7506 89.1652 50 89.1667C50.25 89.1663 50.4968 89.1093 50.7217 89C52.4579 88.255 54.2508 87.6497 56.0833 87.19L56.6567 94.1167C56.3183 94.6467 54.015 95.8334 50 95.8334ZM95.5817 91.8867C95.2626 92.2753 94.7861 92.5004 94.2833 92.5H59.8683L59.3683 86.4467C68.551 84.7178 78.0208 85.3235 86.9083 88.2084C88.0139 88.5499 89.2175 88.2954 90.0903 87.5357C90.9631 86.7759 91.3809 85.6188 91.195 84.4767L85.97 53.0517H88.6367L95.9367 90.5184C96.0291 91.0046 95.8988 91.5067 95.5817 91.8867Z" fill="#4263EB"/>
<path d="M44.4767 38.6417C43.7944 39.259 43.7415 40.3124 44.3584 40.995C45.7722 42.556 47.6407 43.6334 49.7 44.075C48.7674 45.3893 47.2549 46.1691 45.6434 46.1667C44.7229 46.1667 43.9767 46.9129 43.9767 47.8333C43.9767 48.7538 44.7229 49.5 45.6434 49.5C49.0936 49.5138 52.1894 47.3828 53.4084 44.155C57.5526 43.4682 60.8336 40.2783 61.6367 36.155C61.7608 35.5652 61.5568 34.9544 61.1032 34.5575C60.6497 34.1607 60.0172 34.0396 59.4491 34.2409C58.881 34.4421 58.4659 34.9344 58.3634 35.5283C58.0365 37.2473 57.0447 38.768 55.6034 39.76C52.8304 41.6276 49.1115 41.2037 46.83 38.76C46.2127 38.0777 45.1593 38.0248 44.4767 38.6417Z" fill="#4263EB"/>
<path d="M38.6667 36.8333C39.5871 36.8333 40.3333 36.0871 40.3333 35.1667C40.3333 34.0174 40.7899 32.9152 41.6025 32.1025C42.4152 31.2899 43.5174 30.8333 44.6667 30.8333C45.5871 30.8333 46.3333 30.0871 46.3333 29.1667C46.3333 28.2462 45.5871 27.5 44.6667 27.5C40.4344 27.5046 37.0046 30.9344 37 35.1667C37 35.6087 37.1756 36.0326 37.4882 36.3452C37.8007 36.6577 38.2246 36.8333 38.6667 36.8333Z" fill="#4263EB"/>
<path d="M51.6668 4.16671V2.50004C51.6668 1.57957 50.9206 0.833374 50.0002 0.833374C49.0797 0.833374 48.3335 1.57957 48.3335 2.50004V4.16671C48.3335 5.08718 49.0797 5.83337 50.0002 5.83337C50.9206 5.83337 51.6668 5.08718 51.6668 4.16671Z" fill="#4263EB"/>
<path d="M77.3498 12.7934L75.6832 14.4601C75.2499 14.8785 75.0762 15.4982 75.2287 16.0809C75.3812 16.6636 75.8363 17.1187 76.419 17.2712C77.0017 17.4238 77.6214 17.25 78.0398 16.8167L79.7065 15.1501C80.1398 14.7316 80.3135 14.1119 80.161 13.5292C80.0085 12.9465 79.5534 12.4914 78.9707 12.3389C78.388 12.1864 77.7683 12.3601 77.3498 12.7934Z" fill="#4263EB"/>
<path d="M23.1385 17.3051C23.8125 17.3049 24.4201 16.8989 24.678 16.2762C24.9359 15.6535 24.7934 14.9367 24.3169 14.4601L22.6502 12.7934C22.2317 12.3601 21.6121 12.1864 21.0293 12.3389C20.4466 12.4914 19.9916 12.9465 19.839 13.5292C19.6865 14.1119 19.8603 14.7316 20.2935 15.1501L21.9602 16.8167C22.2727 17.1293 22.6965 17.305 23.1385 17.3051Z" fill="#4263EB"/>
<path d="M35.9685 10.2918C36.1875 10.2913 36.4043 10.2483 36.6069 10.1651C37.0154 9.99588 37.3399 9.67127 37.509 9.26273C37.6781 8.85418 37.6779 8.39518 37.5085 7.98676L35.5935 3.36676C35.3742 2.80405 34.8676 2.40405 34.2693 2.32121C33.6711 2.23836 33.0748 2.48564 32.7108 2.96757C32.3468 3.44949 32.2719 4.09063 32.5152 4.64343L34.4285 9.26343C34.6867 9.88608 35.2945 10.2919 35.9685 10.2918Z" fill="#4263EB"/>
<path d="M66.5832 2.46503C65.7331 2.11337 64.7589 2.51694 64.4065 3.3667L62.4915 7.9867C62.3216 8.39531 62.3212 8.85473 62.4903 9.26367C62.6595 9.67261 62.9843 9.9975 63.3932 10.1667C63.5958 10.2499 63.8126 10.2929 64.0315 10.2934C64.7056 10.2935 65.3134 9.88768 65.5715 9.26503L67.4849 4.64503C67.6548 4.23642 67.6552 3.777 67.4861 3.36806C67.3169 2.95912 66.9921 2.63423 66.5832 2.46503Z" fill="#4263EB"/>
<path d="M83.875 30.1367C84.0942 30.1363 84.3111 30.0927 84.5134 30.0084L89.1317 28.0951C89.6819 27.8673 90.0688 27.3633 90.1466 26.773C90.2245 26.1826 89.9815 25.5956 89.5091 25.233C89.0368 24.8704 88.4069 24.7873 87.8567 25.0151L83.2367 26.9284C82.4995 27.2312 82.0798 28.0136 82.2353 28.7953C82.3909 29.577 83.078 30.1392 83.875 30.1367Z" fill="#4263EB"/>
<path d="M15.4869 30.0083C16.3374 30.3609 17.3127 29.9572 17.6652 29.1067C18.0177 28.2561 17.6141 27.2809 16.7635 26.9283L12.1435 25.015C11.293 24.6629 10.3181 25.067 9.96604 25.9175C9.61396 26.768 10.018 27.7429 10.8685 28.095L15.4869 30.0083Z" fill="#4263EB"/>
</g>
<defs>
<clipPath id="clip0_15878_21936">
<rect width="100" height="100" fill="white"/>
</clipPath>
</defs>
</svg>
