<svg width="12" height="12" viewBox="0 0 12 12" fill="none" xmlns="http://www.w3.org/2000/svg">
<path d="M9.50391 11.9297H3.99609C3.45238 11.9291 2.93112 11.7128 2.54666 11.3283C2.1622 10.9439 1.94593 10.4226 1.94531 9.87891V0.574219C1.94531 0.434358 2.00087 0.300227 2.09977 0.20133C2.19866 0.102434 2.3328 0.046875 2.47266 0.046875C2.61252 0.046875 2.74665 0.102434 2.84554 0.20133C2.94444 0.300227 3 0.434358 3 0.574219V9.87891C3.0003 10.143 3.10534 10.3962 3.29208 10.5829C3.47882 10.7697 3.732 10.8747 3.99609 10.875H9.50391C9.64377 10.875 9.7779 10.9306 9.87679 11.0295C9.97569 11.1284 10.0312 11.2625 10.0312 11.4023C10.0312 11.5422 9.97569 11.6763 9.87679 11.7752C9.7779 11.8741 9.64377 11.9297 9.50391 11.9297Z" fill="black"/>
</svg>
