<svg width="138" height="26" viewBox="0 0 138 26" fill="none" xmlns="http://www.w3.org/2000/svg">
<g clip-path="url(#clip0_1458_2403)">
<mask id="mask0_1458_2403" style="mask-type:luminance" maskUnits="userSpaceOnUse" x="0" y="0" width="27" height="26">
<path d="M26.1595 0H0V26H26.1595V0Z" fill="white"/>
</mask>
<g mask="url(#mask0_1458_2403)">
<path d="M9.50324 0C7.43738 0 5.66909 1.28956 4.96976 3.10122C6.63367 3.13038 8.19219 3.78657 9.36972 4.95691C9.37411 4.96108 9.3785 4.96544 9.38269 4.96981C9.903 5.49488 9.36194 6.36391 8.65343 6.1467C8.42491 6.07668 8.21535 5.95726 8.03472 5.80135C7.07195 4.96981 5.8553 4.57923 4.65343 4.62803V4.62505C2.06965 4.72999 0 6.85188 0 9.44529C0 10.8124 0.583574 12.097 1.5731 13C0.583574 13.9029 0 15.1875 0 16.5547C0 19.1481 2.06965 21.27 4.65363 21.3749C4.759 23.9429 6.89392 25.9999 9.50324 25.9999C9.54894 25.9999 9.59445 25.9994 9.63955 25.9982C10.6309 25.9708 11.5655 25.6086 12.3133 24.969V1.0309C11.5655 0.391372 10.6309 0.0291595 9.63975 0.00178527C9.59445 0.000595094 9.54894 0 9.50324 0Z" fill="#4263EB"/>
<path d="M24.5879 13C25.5775 12.097 26.161 10.8124 26.161 9.44529C26.161 6.85188 24.0914 4.72999 21.5076 4.62505C21.402 2.05703 19.2671 0 16.6578 0C16.6121 0 16.5666 0.000595094 16.5217 0.00178527C15.5302 0.0291595 14.5957 0.391372 13.8477 1.0309V24.9692C14.5957 25.6086 15.5302 25.9708 16.5213 25.9982C16.5666 25.9994 16.6121 25.9999 16.6578 25.9999C18.7237 25.9999 20.4919 24.7104 21.1915 22.8987C19.5274 22.8696 17.9688 22.2134 16.7913 21.0432C16.7869 21.0389 16.7827 21.0345 16.7783 21.0301C16.258 20.5051 16.7991 19.636 17.5076 19.8532C17.7363 19.9233 17.9457 20.0427 18.1263 20.1986C19.0893 21.0301 20.3059 21.4207 21.5076 21.3719V21.3749C24.0914 21.27 26.161 19.1481 26.161 16.5547C26.161 15.1875 25.5775 13.9029 24.5879 13Z" fill="#4263EB"/>
</g>
<path d="M39.2915 7.09619C39.9581 7.09619 40.5744 7.19053 41.1404 7.37919C41.7064 7.56786 42.2033 7.84458 42.6309 8.20934V11.6242C42.1278 11.2217 41.6498 10.9199 41.197 10.7186C40.7442 10.5048 40.1531 10.3979 39.4236 10.3979C38.8575 10.3979 38.3293 10.5425 37.8387 10.8318C37.3608 11.1211 36.9709 11.5173 36.669 12.0204C36.3671 12.511 36.2162 13.0707 36.2162 13.6996C36.2162 14.3285 36.3671 14.8945 36.669 15.3976C36.9709 15.8881 37.3608 16.2781 37.8387 16.5674C38.3293 16.8566 38.8575 17.0013 39.4236 17.0013C40.1531 17.0013 40.7442 16.9007 41.197 16.6994C41.6498 16.4856 42.1278 16.1774 42.6309 15.7749V19.1898C42.2033 19.5546 41.7064 19.8313 41.1404 20.02C40.5744 20.2087 39.9581 20.303 39.2915 20.303C38.4362 20.303 37.606 20.1583 36.8011 19.8691C36.0087 19.5672 35.2917 19.1332 34.6502 18.5672C34.0213 18.0012 33.5182 17.3095 33.1409 16.4919C32.7761 15.6743 32.5938 14.7436 32.5938 13.6996C32.5938 12.6556 32.7761 11.7249 33.1409 10.9073C33.5182 10.0897 34.0213 9.39795 34.6502 8.83194C35.2917 8.26594 36.0087 7.83829 36.8011 7.549C37.606 7.24713 38.4362 7.09619 39.2915 7.09619Z" fill="#4263EB"/>
<path d="M53.4326 10.3979V16.1712C53.4326 17.039 53.2313 17.7811 52.8288 18.3974C52.4389 19.0138 51.8981 19.4854 51.2063 19.8125C50.5145 20.1395 49.7221 20.303 48.8291 20.303C47.936 20.303 47.1436 20.1395 46.4518 19.8125C45.7601 19.4854 45.2129 19.0138 44.8104 18.3974C44.4205 17.7811 44.2255 17.039 44.2255 16.1712V10.3979H47.4706L47.4895 15.3033C47.4895 15.9573 47.5901 16.4353 47.7914 16.7372C48.0052 17.039 48.3511 17.19 48.8291 17.19C49.307 17.19 49.6466 17.039 49.8479 16.7372C50.0617 16.4353 50.1686 15.9573 50.1686 15.3033L50.1875 10.3979H53.4326Z" fill="#4263EB"/>
<path d="M58.9515 10.1149C59.5804 10.1149 60.159 10.2092 60.6873 10.3979C61.2281 10.574 61.6621 10.8193 61.9891 11.1337V13.6807C61.6621 13.4795 61.291 13.2908 60.8759 13.1147C60.4609 12.9261 60.0143 12.8317 59.5364 12.8317C59.2345 12.8317 58.9641 12.8946 58.7251 13.0204C58.4987 13.1336 58.3855 13.316 58.3855 13.5675C58.3855 13.7436 58.4547 13.8757 58.593 13.9637C58.7314 14.0518 59.0018 14.1461 59.4043 14.2467L59.9892 14.3977C61.6621 14.8253 62.4985 15.7246 62.4985 17.0956C62.4985 17.7245 62.3098 18.2842 61.9325 18.7748C61.5677 19.2527 61.0835 19.6301 60.4797 19.9068C59.8886 20.1709 59.2471 20.303 58.5553 20.303C57.8384 20.303 57.1717 20.2024 56.5554 20.0011C55.9391 19.7873 55.4108 19.5295 54.9706 19.2276V16.6994C55.4234 16.9761 55.9328 17.2088 56.4988 17.3975C57.0774 17.5862 57.5931 17.6805 58.0459 17.6805C58.4107 17.6805 58.6748 17.6365 58.8383 17.5484C59.0144 17.4604 59.1024 17.3032 59.1024 17.0768C59.1024 16.9007 59.0018 16.7686 58.8006 16.6806C58.5993 16.5799 58.31 16.4667 57.9327 16.341L56.9705 16.0391C56.2661 15.8253 55.7504 15.4919 55.4234 15.0391C55.0964 14.5738 54.9329 14.0078 54.9329 13.3411C54.9329 12.6745 55.109 12.1022 55.4611 11.6242C55.8133 11.1463 56.2913 10.7752 56.895 10.5111C57.5113 10.247 58.1968 10.1149 58.9515 10.1149Z" fill="#4263EB"/>
<path d="M68.1118 7.56786V10.3979H70.6399V12.9449H68.1118V15.6429C68.1118 16.1083 68.2061 16.4793 68.3948 16.756C68.596 17.0202 68.8727 17.1522 69.2249 17.1522C69.7783 17.1522 70.2877 17.0139 70.7531 16.7372V19.2653C70.5519 19.542 70.2311 19.7873 69.7909 20.0011C69.3633 20.2024 68.835 20.303 68.2061 20.303C67.6023 20.303 67.0489 20.1646 66.5458 19.8879C66.0427 19.6112 65.6339 19.215 65.3195 18.6993C65.0176 18.1836 64.8666 17.561 64.8666 16.8315V12.9449H63.2441V10.9639C63.8604 10.8004 64.4642 10.4482 65.0553 9.90735C65.6591 9.35393 66.0993 8.5741 66.376 7.56786H68.1118Z" fill="#4263EB"/>
<path d="M76.9701 10.1149C77.6367 10.1149 78.2845 10.2407 78.9134 10.4922C79.5423 10.7438 80.1083 11.096 80.6114 11.5488C81.1145 12.0016 81.5107 12.5424 81.8 13.1713C82.1019 13.7876 82.2528 14.4668 82.2528 15.2089C82.2528 15.951 82.1019 16.6365 81.8 17.2654C81.5107 17.8817 81.1145 18.4163 80.6114 18.8691C80.1083 19.3219 79.5423 19.6741 78.9134 19.9257C78.2845 20.1772 77.6367 20.303 76.9701 20.303C76.3035 20.303 75.6557 20.1772 75.0268 19.9257C74.3979 19.6741 73.8319 19.3219 73.3288 18.8691C72.8257 18.4163 72.4232 17.8817 72.1213 17.2654C71.832 16.6365 71.6874 15.951 71.6874 15.2089C71.6874 14.4668 71.832 13.7876 72.1213 13.1713C72.4232 12.5424 72.8257 12.0016 73.3288 11.5488C73.8319 11.096 74.3979 10.7438 75.0268 10.4922C75.6557 10.2407 76.3035 10.1149 76.9701 10.1149ZM76.9701 13.2279C76.7437 13.2279 76.4859 13.2782 76.1966 13.3789C75.9199 13.4795 75.6809 13.6744 75.4796 13.9637C75.2784 14.2404 75.1778 14.6555 75.1778 15.2089C75.1778 15.7498 75.2784 16.1649 75.4796 16.4542C75.6809 16.7434 75.9199 16.9384 76.1966 17.039C76.4859 17.1397 76.7437 17.19 76.9701 17.19C77.2091 17.19 77.4669 17.1397 77.7437 17.039C78.0204 16.9384 78.2594 16.7434 78.4606 16.4542C78.6618 16.1649 78.7625 15.7498 78.7625 15.2089C78.7625 14.6555 78.6618 14.2404 78.4606 13.9637C78.2594 13.6744 78.0204 13.4795 77.7437 13.3789C77.4669 13.2782 77.2091 13.2279 76.9701 13.2279Z" fill="#4263EB"/>
<path d="M87.0926 10.3979V11.6431C87.3944 11.228 87.7152 10.8696 88.0548 10.5677C88.3944 10.2658 88.8849 10.1149 89.5264 10.1149C90.1679 10.1149 90.7402 10.2658 91.2433 10.5677C91.7464 10.857 92.1426 11.2909 92.4319 11.8695C92.7338 11.3664 93.13 10.9513 93.6205 10.6243C94.1236 10.2847 94.6833 10.1149 95.2997 10.1149C96.2807 10.1149 97.0794 10.4482 97.6957 11.1148C98.3246 11.7815 98.6391 12.7688 98.6391 14.0769V20.02H95.394L95.3751 14.5863C95.3751 14.1084 95.2493 13.7751 94.9978 13.5864C94.7588 13.3851 94.4758 13.2845 94.1488 13.2845C93.8595 13.2845 93.6079 13.3726 93.3941 13.5487C93.1929 13.7247 93.0168 13.926 92.8658 14.1524V20.02H89.6207L89.6019 14.5863C89.6019 14.1084 89.4761 13.7751 89.2245 13.5864C88.9855 13.3851 88.7025 13.2845 88.3755 13.2845C88.0862 13.2845 87.841 13.3789 87.6397 13.5675C87.451 13.7436 87.2687 13.9574 87.0926 14.209V20.02H83.8475V10.3979H87.0926Z" fill="#4263EB"/>
<path d="M104.705 7.37919V16.907H110.384V20.02H101.177V7.37919H104.705Z" fill="#4263EB"/>
<path d="M116.356 7.37919V16.907H122.035V20.02H112.828V7.37919H116.356Z" fill="#4263EB"/>
<path d="M137.761 7.19053V20.02H134.233V13.7939L131.648 16.7183H130.591L128.006 13.7939V20.02H124.478V7.19053H125.724L131.12 12.6619L136.515 7.19053H137.761Z" fill="#4263EB"/>
<path fill-rule="evenodd" clip-rule="evenodd" d="M42.7304 8.16517V11.8256L42.5734 11.7001C42.0749 11.3013 41.604 11.0044 41.1607 10.8073L41.1596 10.8069L41.1586 10.8064C40.7232 10.6008 40.1477 10.4949 39.4264 10.4949C38.8779 10.4949 38.3668 10.6348 37.8911 10.9152C37.4275 11.1959 37.0488 11.5804 36.7547 12.0705L36.7541 12.0715C36.4625 12.5454 36.3156 13.0873 36.3156 13.7C36.3156 14.3125 36.4624 14.861 36.7544 15.3479C37.0484 15.8254 37.4271 16.2039 37.8912 16.4849C38.3668 16.7652 38.878 16.9051 39.4264 16.9051C40.1477 16.9051 40.7237 16.8055 41.1597 16.612C41.6037 16.4022 42.075 16.0987 42.5734 15.6999L42.7304 15.5744V19.2348L42.6965 19.2638C42.2588 19.6371 41.7509 19.9197 41.1738 20.112C40.5969 20.3044 39.9701 20.4 39.2943 20.4C38.4279 20.4 37.5867 20.2534 36.7712 19.9604L36.7704 19.9601L36.7695 19.9597C35.9662 19.6537 35.2393 19.2137 34.5892 18.6401L34.5885 18.6395C33.9492 18.0641 33.4385 17.3615 33.056 16.5328L33.0555 16.5317C32.6844 15.6998 32.5 14.7553 32.5 13.7C32.5 12.6447 32.6844 11.7002 33.0555 10.8683L33.056 10.8672C33.4385 10.0385 33.9492 9.33587 34.5885 8.76055L34.5892 8.75991C35.2394 8.18615 35.9667 7.75229 36.7704 7.45881C37.586 7.15299 38.4275 7 39.2943 7C39.9701 7 40.5969 7.09565 41.1738 7.28796C41.7509 7.48031 42.2588 7.76294 42.6965 8.13625L42.7304 8.16517ZM36.8039 7.5494C36.0115 7.83869 35.2946 8.26634 34.6531 8.83235C34.0242 9.39836 33.5211 10.0901 33.1437 10.9077C32.779 11.7253 32.5966 12.656 32.5966 13.7C32.5966 14.744 32.779 15.6747 33.1437 16.4923C33.5211 17.3099 34.0242 18.0016 34.6531 18.5676C35.2946 19.1337 36.0115 19.5676 36.8039 19.8695C37.6089 20.1588 38.439 20.3034 39.2943 20.3034C39.961 20.3034 40.5773 20.2091 41.1433 20.0204C41.7093 19.8317 42.2061 19.555 42.6338 19.1903V15.7754C42.6015 15.8012 42.5693 15.8267 42.5372 15.8517C42.0694 16.217 41.6236 16.4997 41.1999 16.6998C40.7471 16.9011 40.1559 17.0017 39.4264 17.0017C38.8604 17.0017 38.3321 16.8571 37.8416 16.5678C37.3636 16.2785 36.9737 15.8886 36.6718 15.398C36.37 14.8949 36.219 14.3289 36.219 13.7C36.219 13.0711 36.37 12.5114 36.6718 12.0208C36.9737 11.5177 37.3636 11.1215 37.8416 10.8322C38.3321 10.5429 38.8604 10.3983 39.4264 10.3983C40.1559 10.3983 40.7471 10.5052 41.1999 10.719C41.6236 10.9074 42.0694 11.1838 42.5372 11.5484C42.5693 11.5734 42.6015 11.5988 42.6338 11.6246V8.20974C42.2061 7.84498 41.7093 7.56827 41.1433 7.3796C40.5773 7.19093 39.961 7.0966 39.2943 7.0966C38.439 7.0966 37.6089 7.24753 36.8039 7.5494ZM53.532 10.3017V16.1716C53.532 17.0545 53.3272 17.8155 52.913 18.4501C52.5128 19.0824 51.9577 19.5658 51.2504 19.9002C50.5437 20.2343 49.7368 20.4 48.8319 20.4C47.927 20.4 47.1201 20.2343 46.4134 19.9002C45.7062 19.5659 45.145 19.0825 44.7324 18.4507L44.732 18.4501L44.7316 18.4495C44.3302 17.815 44.1318 17.0542 44.1318 16.1716V10.3017H47.5697L47.589 15.3033V15.3037C47.589 15.9511 47.6892 16.405 47.8738 16.6828C48.0645 16.9511 48.3758 17.0938 48.8319 17.0938C49.289 17.0938 49.5925 16.9507 49.7703 16.684L49.7711 16.6828L49.7719 16.6817C49.9682 16.4045 50.0749 15.9513 50.0749 15.3037V15.3033L50.0941 10.3017H53.532ZM47.7942 16.7376C47.593 16.4357 47.4924 15.9577 47.4924 15.3037L47.4735 10.3983H44.2284V16.1716C44.2284 17.0394 44.4234 17.7815 44.8133 18.3978C45.2158 19.0142 45.7629 19.4858 46.4547 19.8129C47.1465 20.1399 47.9389 20.3034 48.8319 20.3034C49.7249 20.3034 50.5174 20.1399 51.2091 19.8129C51.9009 19.4858 52.4418 19.0142 52.8317 18.3978C53.2342 17.7815 53.4354 17.0394 53.4354 16.1716V10.3983H50.1903L50.1715 15.3037C50.1715 15.9577 50.0645 16.4357 49.8507 16.7376C49.6495 17.0394 49.3099 17.1904 48.8319 17.1904C48.3539 17.1904 48.0081 17.0394 47.7942 16.7376ZM55.07 16.7577C55.4984 17.0091 55.9756 17.2225 56.5017 17.3979C57.0803 17.5866 57.5959 17.6809 58.0488 17.6809C58.4135 17.6809 58.6776 17.6369 58.8412 17.5488C59.0172 17.4608 59.1053 17.3036 59.1053 17.0772C59.1053 16.9011 59.0047 16.769 58.8034 16.681C58.6022 16.5803 58.3129 16.4671 57.9355 16.3414L56.9733 16.0395C56.269 15.8257 55.7533 15.4924 55.4263 15.0395C55.0992 14.5742 54.9357 14.0082 54.9357 13.3415C54.9357 12.6749 55.1118 12.1026 55.464 11.6246C55.8162 11.1467 56.2941 10.7756 56.8979 10.5115C57.5142 10.2474 58.1997 10.1153 58.9544 10.1153C59.5833 10.1153 60.1618 10.2096 60.6901 10.3983C61.231 10.5744 61.6649 10.8197 61.9919 11.1341V13.6811C61.9601 13.6616 61.9279 13.6421 61.8953 13.6228C61.5924 13.4433 61.2535 13.2741 60.8788 13.1151C60.4637 12.9265 60.0172 12.8321 59.5392 12.8321C59.2374 12.8321 58.9669 12.895 58.728 13.0208C58.5016 13.134 58.3884 13.3164 58.3884 13.5679C58.3884 13.744 58.4575 13.8761 58.5959 13.9641C58.7342 14.0522 59.0047 14.1465 59.4072 14.2471L59.992 14.3981C61.6649 14.8257 62.5013 15.725 62.5013 17.096C62.5013 17.7249 62.3127 18.2846 61.9353 18.7752C61.5706 19.2531 61.0863 19.6305 60.4826 19.9072C59.8914 20.1713 59.2499 20.3034 58.5582 20.3034C57.8412 20.3034 57.1746 20.2028 56.5583 20.0015C55.942 19.7877 55.4137 19.5299 54.9735 19.228V16.6998C55.0054 16.7193 55.0376 16.7386 55.07 16.7577ZM62.0119 18.8341C61.6366 19.3257 61.1393 19.7125 60.5228 19.995L60.522 19.9954C59.9176 20.2654 59.2626 20.4 58.5582 20.4C57.8321 20.4 57.1552 20.2981 56.5283 20.0934L56.5274 20.0931L56.5266 20.0928C55.9039 19.8767 55.3675 19.6153 54.9188 19.3077L54.8769 19.2789V16.5276L55.0238 16.6174C55.4696 16.8898 55.9721 17.1195 56.5319 17.3062C57.1038 17.4926 57.609 17.5843 58.0488 17.5843C58.4101 17.5843 58.6539 17.5399 58.7954 17.4638L58.7967 17.4631L58.798 17.4624C58.8704 17.4262 58.9213 17.3778 58.955 17.3177C58.9891 17.2567 59.0087 17.178 59.0087 17.0772C59.0087 17.0089 58.9897 16.9527 58.953 16.9046C58.9153 16.8552 58.855 16.809 58.7647 16.7695L58.7624 16.7685L58.7602 16.7674C58.5652 16.6698 58.2812 16.5584 57.9058 16.4333C57.9056 16.4332 57.9053 16.4331 57.905 16.433L56.9453 16.1319C56.9451 16.1319 56.945 16.1318 56.9448 16.1318C56.2269 15.9138 55.6907 15.5707 55.3479 15.0961L55.3472 15.0951C55.0069 14.6108 54.8391 14.0245 54.8391 13.3415C54.8391 12.6569 55.0203 12.0639 55.3862 11.5673C55.7495 11.0743 56.2416 10.6932 56.8592 10.423L56.8598 10.4227C57.4896 10.1528 58.1882 10.0187 58.9544 10.0187C59.5925 10.0187 60.1818 10.1144 60.7213 10.3069C61.272 10.4863 61.7193 10.7379 62.0589 11.0645L62.0885 11.093V13.854L61.9413 13.7634C61.619 13.5651 61.2524 13.3786 60.8411 13.2041L60.8399 13.2036L60.8388 13.2031C60.4369 13.0204 60.0041 12.9287 59.5392 12.9287C59.2512 12.9287 58.9965 12.9886 58.7729 13.1063L58.7721 13.1067L58.7712 13.1072C58.671 13.1572 58.6009 13.22 58.5553 13.2934C58.5098 13.3668 58.485 13.457 58.485 13.5679C58.485 13.7139 58.5396 13.8138 58.6477 13.8826C58.7713 13.9613 59.0274 14.0526 59.4306 14.1534L59.4313 14.1536L60.016 14.3045C60.016 14.3045 60.016 14.3045 60.0161 14.3045C60.8634 14.5211 61.5098 14.8599 61.9447 15.3275C62.3816 15.7972 62.5979 16.3892 62.5979 17.096C62.5979 17.7458 62.4024 18.3263 62.0119 18.8341ZM68.2112 7.47167V10.3017H70.7394V13.0419H68.2112V15.6433C68.2112 16.0953 68.3027 16.4445 68.476 16.6999C68.6576 16.9371 68.9045 17.056 69.2277 17.056C69.7642 17.056 70.2565 16.9222 70.7066 16.6545L70.8526 16.5677V19.2971L70.8341 19.3225C70.6204 19.6164 70.2847 19.8705 69.836 20.0884L69.8349 20.0889C69.3908 20.2979 68.8476 20.4 68.2089 20.4C67.5898 20.4 67.0202 20.2579 66.5021 19.973C65.9834 19.6877 65.5626 19.2793 65.2398 18.75L65.2394 18.7493L65.2389 18.7485C64.9267 18.2151 64.7729 17.5748 64.7729 16.8319V13.0419H63.1503V10.89L63.2222 10.8709C63.8201 10.7123 64.4104 10.3695 64.993 9.83649C65.5801 9.29829 66.0125 8.53609 66.2857 7.54266L66.3052 7.47167H68.2112ZM65.0582 9.90776C64.467 10.4486 63.8633 10.8008 63.2469 10.9643V12.9453H64.8695V16.8319C64.8695 17.5614 65.0204 18.184 65.3223 18.6997C65.6368 19.2154 66.0455 19.6116 66.5486 19.8883C67.0518 20.165 67.6052 20.3034 68.2089 20.3034C68.8378 20.3034 69.3661 20.2028 69.7937 20.0015C70.234 19.7877 70.5547 19.5424 70.756 19.2657V16.7376C70.724 16.7566 70.6918 16.775 70.6594 16.7927C70.2203 17.0326 69.7431 17.1526 69.2277 17.1526C68.8756 17.1526 68.5988 17.0206 68.3976 16.7564C68.2089 16.4797 68.1146 16.1087 68.1146 15.6433V12.9453H70.6428V10.3983H68.1146V7.56827H66.3788C66.1021 8.5745 65.6619 9.35433 65.0582 9.90776ZM72.0369 17.3073L72.0364 17.3062C71.7409 16.6638 71.5936 15.9644 71.5936 15.2093C71.5936 14.4544 71.7409 13.761 72.0367 13.1307L72.0371 13.1299C72.3443 12.49 72.7543 11.9389 73.267 11.4774C73.7786 11.017 74.3544 10.6587 74.9938 10.4029C75.6339 10.1469 76.2938 10.0187 76.973 10.0187C77.6521 10.0187 78.312 10.1469 78.9521 10.4029C79.5916 10.6587 80.1673 11.017 80.6789 11.4774C81.1917 11.9389 81.5956 12.4902 81.8902 13.1303C82.1987 13.7606 82.3523 14.4542 82.3523 15.2093C82.3523 15.965 82.1985 16.6649 81.89 17.3076C81.5953 17.9352 81.1914 18.48 80.6789 18.9413C80.1673 19.4017 79.5916 19.76 78.9521 20.0158C78.312 20.2718 77.6521 20.4 76.973 20.4C76.2938 20.4 75.6339 20.2718 74.9938 20.0158C74.3544 19.76 73.7786 19.4017 73.267 18.9413C72.7546 18.4801 72.3447 17.9356 72.0374 17.3083L72.0369 17.3073ZM81.8029 17.2658C82.1048 16.6369 82.2557 15.9514 82.2557 15.2093C82.2557 14.4673 82.1048 13.788 81.8029 13.1717C81.5136 12.5428 81.1174 12.002 80.6143 11.5492C80.1112 11.0964 79.5451 10.7442 78.9163 10.4926C78.2874 10.2411 77.6396 10.1153 76.973 10.1153C76.3063 10.1153 75.6586 10.2411 75.0297 10.4926C74.4008 10.7442 73.8348 11.0964 73.3317 11.5492C72.8285 12.002 72.4261 12.5428 72.1242 13.1717C71.8349 13.788 71.6902 14.4673 71.6902 15.2093C71.6902 15.9514 71.8349 16.6369 72.1242 17.2658C72.4261 17.8822 72.8285 18.4167 73.3317 18.8695C73.8348 19.3223 74.4008 19.6745 75.0297 19.9261C75.6586 20.1776 76.3063 20.3034 76.973 20.3034C77.6396 20.3034 78.2874 20.1776 78.9163 19.9261C79.5451 19.6745 80.1112 19.3223 80.6143 18.8695C81.1174 18.4167 81.5136 17.8822 81.8029 17.2658ZM75.5612 14.0201L75.5606 14.021C75.3767 14.2738 75.2772 14.6648 75.2772 15.2093C75.2772 15.7403 75.3764 16.1328 75.5618 16.3994C75.7538 16.6754 75.9775 16.8558 76.2317 16.9484C76.5139 17.0465 76.7606 17.0938 76.973 17.0938C77.1984 17.0938 77.445 17.0463 77.7135 16.9487C77.968 16.8561 78.192 16.6756 78.3842 16.3994C78.5696 16.1328 78.6687 15.7403 78.6687 15.2093C78.6687 14.6648 78.5692 14.2738 78.3853 14.021L78.3847 14.0201L78.3842 14.0193C78.192 13.7431 77.968 13.5626 77.7135 13.47C77.445 13.3724 77.1984 13.3249 76.973 13.3249C76.7606 13.3249 76.514 13.3722 76.2318 13.4703C75.9775 13.5629 75.7538 13.7433 75.5618 14.0193L75.5612 14.0201ZM76.1994 13.3793C76.4887 13.2786 76.7466 13.2283 76.973 13.2283C77.2119 13.2283 77.4698 13.2786 77.7465 13.3793C78.0232 13.4799 78.2622 13.6748 78.4634 13.9641C78.6647 14.2408 78.7653 14.6559 78.7653 15.2093C78.7653 15.7502 78.6647 16.1653 78.4634 16.4546C78.2622 16.7439 78.0232 16.9388 77.7465 17.0394C77.4698 17.1401 77.2119 17.1904 76.973 17.1904C76.7466 17.1904 76.4887 17.1401 76.1994 17.0394C75.9227 16.9388 75.6837 16.7439 75.4825 16.4546C75.2812 16.1653 75.1806 15.7502 75.1806 15.2093C75.1806 14.6559 75.2812 14.2408 75.4825 13.9641C75.6837 13.6748 75.9227 13.4799 76.1994 13.3793ZM87.192 10.3017V11.3554C87.446 11.0317 87.7131 10.7451 87.9934 10.4959C88.3568 10.1729 88.8738 10.0187 89.5292 10.0187C90.1862 10.0187 90.7757 10.1734 91.295 10.4848C91.7712 10.7588 92.1533 11.1573 92.442 11.6767C92.7386 11.2253 93.1147 10.8477 93.5696 10.5444C94.0889 10.194 94.6673 10.0187 95.3025 10.0187C96.3078 10.0187 97.1329 10.3614 97.769 11.0491C98.4208 11.7401 98.7385 12.7552 98.7385 14.0773V20.117H95.3006L95.2814 14.5871V14.5867C95.2814 14.1229 95.1593 13.8265 94.9427 13.6641L94.9405 13.6624L94.9384 13.6607C94.7177 13.4748 94.457 13.3815 94.1516 13.3815C93.8842 13.3815 93.655 13.4621 93.4595 13.6227C93.2724 13.7866 93.1076 13.9731 92.9653 14.1823V20.117H89.5273L89.5081 14.5871V14.5867C89.5081 14.1229 89.386 13.8265 89.1694 13.6641L89.1672 13.6624L89.1651 13.6607C88.9445 13.4748 88.6838 13.3815 88.3784 13.3815C88.1123 13.3815 87.891 13.4674 87.7086 13.6384L87.7085 13.6386C87.5317 13.8035 87.3595 14.0038 87.192 14.24V20.117H83.7537V10.3017H87.192ZM87.0954 14.2094C87.2715 13.9578 87.4539 13.744 87.6426 13.5679C87.8438 13.3793 88.0891 13.2849 88.3784 13.2849C88.7054 13.2849 88.9884 13.3856 89.2274 13.5868C89.4789 13.7755 89.6047 14.1088 89.6047 14.5867L89.6236 20.0204H92.8687V14.1528C93.0196 13.9264 93.1957 13.7252 93.3969 13.5491C93.6108 13.373 93.8623 13.2849 94.1516 13.2849C94.4787 13.2849 94.7617 13.3856 95.0006 13.5868C95.2522 13.7755 95.378 14.1088 95.378 14.5867L95.3968 20.0204H98.6419V14.0773C98.6419 12.7692 98.3275 11.7819 97.6986 11.1152C97.0823 10.4486 96.2836 10.1153 95.3025 10.1153C94.6862 10.1153 94.1265 10.2851 93.6234 10.6247C93.1644 10.9307 92.788 11.3137 92.4942 11.7738C92.474 11.8055 92.4542 11.8375 92.4347 11.8699C92.4178 11.836 92.4004 11.8026 92.3827 11.7696C92.0986 11.2409 91.7197 10.8404 91.2461 10.5681C90.743 10.2662 90.1707 10.1153 89.5292 10.1153C88.8878 10.1153 88.3972 10.2662 88.0576 10.5681C87.754 10.838 87.4655 11.1531 87.192 11.5135C87.1596 11.5562 87.1274 11.5995 87.0954 11.6435V10.3983H83.8503V20.0204H87.0954V14.2094ZM104.805 7.283V16.8108H110.484V20.117H101.083V7.283H104.805ZM104.708 16.9074V7.3796H101.18V20.0204H110.387V16.9074H104.708ZM116.455 7.283V16.8108H122.134V20.117H112.734V7.283H116.455ZM116.359 16.9074V7.3796H112.831V20.0204H122.038V16.9074H116.359ZM137.86 7.09433V20.117H134.139V14.0495L131.694 16.8153H130.551L128.106 14.0495V20.117H124.385V7.09433H125.767L131.122 12.5247L136.478 7.09433H137.86ZM131.122 12.6623L125.726 7.19093H124.481V20.0204H128.009V13.7943L130.594 16.7187H131.651L134.235 13.7943V20.0204H137.764V7.19093H136.518L131.122 12.6623Z" fill="#4263EB"/>
</g>
<defs>
<clipPath id="clip0_1458_2403">
<rect width="138" height="26" fill="white"/>
</clipPath>
</defs>
</svg>
