<svg width="16" height="16" viewBox="0 0 16 16" fill="none" xmlns="http://www.w3.org/2000/svg">
<path d="M9.5999 14.4C9.5999 13.5163 8.88356 12.8 7.9999 12.8C7.11625 12.8 6.3999 13.5163 6.3999 14.4C6.3999 15.2837 7.11625 16 7.9999 16C8.88356 16 9.5999 15.2837 9.5999 14.4Z" fill="#B9C5E7"/>
<path d="M9.5999 8.0001C9.5999 7.11644 8.88356 6.4001 7.9999 6.4001C7.11625 6.4001 6.3999 7.11644 6.3999 8.0001C6.3999 8.88375 7.11625 9.6001 7.9999 9.6001C8.88356 9.6001 9.5999 8.88375 9.5999 8.0001Z" fill="#B9C5E7"/>
<path d="M9.5999 1.59994C9.5999 0.716279 8.88356 -6.96182e-05 7.9999 -6.96182e-05C7.11625 -6.96182e-05 6.3999 0.716279 6.3999 1.59994C6.3999 2.4836 7.11625 3.19995 7.9999 3.19995C8.88356 3.19995 9.5999 2.4836 9.5999 1.59994Z" fill="#B9C5E7"/>
</svg>
