<svg width="30" height="30" viewBox="0 0 30 30" fill="none" xmlns="http://www.w3.org/2000/svg">
<path d="M17.3559 16.2256H12.6441C11.2802 16.227 9.97263 16.7694 9.00823 17.7338C8.04382 18.6982 7.5014 20.0058 7.5 21.3697V22.9412C7.5 23.0582 7.54648 23.1704 7.62922 23.2531C7.71195 23.3359 7.82417 23.3824 7.94118 23.3824H22.0588C22.1758 23.3824 22.288 23.3359 22.3708 23.2531C22.4535 23.1704 22.5 23.0582 22.5 22.9412V21.3697C22.4986 20.0058 21.9562 18.6982 20.9918 17.7338C20.0274 16.7694 18.7198 16.227 17.3559 16.2256ZM21.6176 22.5H8.38235V21.3697C8.38375 20.2398 8.83321 19.1567 9.63214 18.3577C10.4311 17.5588 11.5143 17.1093 12.6441 17.1079H17.3559C18.4857 17.1093 19.5689 17.5588 20.3679 18.3577C21.1668 19.1567 21.6162 20.2398 21.6176 21.3697V22.5Z" fill="#37303F"/>
<path d="M14.9999 14.5589C15.7852 14.5589 16.5529 14.326 17.2058 13.8897C17.8588 13.4534 18.3677 12.8333 18.6682 12.1077C18.9688 11.3822 19.0474 10.5839 18.8942 9.81364C18.741 9.04342 18.3628 8.33593 17.8075 7.78064C17.2522 7.22534 16.5447 6.84718 15.7745 6.69397C15.0043 6.54077 14.2059 6.6194 13.4804 6.91992C12.7549 7.22044 12.1348 7.72937 11.6985 8.38233C11.2622 9.03528 11.0293 9.80296 11.0293 10.5883C11.0305 11.641 11.4492 12.6502 12.1935 13.3946C12.9379 14.139 13.9472 14.5577 14.9999 14.5589ZM14.9999 7.50003C15.6107 7.50003 16.2078 7.68115 16.7156 8.02049C17.2235 8.35983 17.6193 8.84215 17.853 9.40645C18.0868 9.97075 18.1479 10.5917 18.0288 11.1908C17.9096 11.7898 17.6155 12.3401 17.1836 12.772C16.7517 13.2039 16.2014 13.498 15.6024 13.6172C15.0033 13.7363 14.3824 13.6752 13.8181 13.4414C13.2538 13.2077 12.7715 12.8119 12.4321 12.304C12.0928 11.7961 11.9116 11.1991 11.9116 10.5883C11.9116 9.76921 12.237 8.98371 12.8162 8.40455C13.3953 7.8254 14.1808 7.50003 14.9999 7.50003Z" fill="#37303F"/>
<path d="M15.0002 1.32349C12.2953 1.32349 9.65105 2.1256 7.40197 3.62839C5.15288 5.13118 3.39994 7.26715 2.3648 9.7662C1.32966 12.2652 1.05882 15.0151 1.58653 17.6681C2.11424 20.3211 3.41679 22.758 5.32948 24.6707C7.24217 26.5834 9.67908 27.8859 12.3321 28.4136C14.985 28.9413 17.7349 28.6705 20.234 27.6354C22.733 26.6002 24.869 24.8473 26.3718 22.5982C27.8746 20.3491 28.6767 17.7049 28.6767 15C28.6727 11.374 27.2305 7.89759 24.6665 5.33362C22.1026 2.76964 18.6262 1.32746 15.0002 1.32349ZM15.0002 27.7941C12.4698 27.7941 9.99616 27.0437 7.89218 25.6379C5.7882 24.232 4.14834 22.2339 3.17998 19.8961C2.21163 17.5582 1.95826 14.9858 2.45192 12.5039C2.94559 10.0221 4.16411 7.74244 5.9534 5.95315C7.74269 4.16386 10.0224 2.94534 12.5042 2.45167C14.986 1.95801 17.5585 2.21138 19.8963 3.17973C22.2341 4.14809 24.2323 5.78794 25.6381 7.89193C27.044 9.99591 27.7943 12.4695 27.7943 15C27.7904 18.3919 26.4411 21.6439 24.0426 24.0424C21.6441 26.4409 18.3922 27.7901 15.0002 27.7941Z" fill="#37303F"/>
</svg>
