<svg width="20" height="20" viewBox="0 0 20 20" fill="none" xmlns="http://www.w3.org/2000/svg">
<g clip-path="url(#clip0_15878_23538)">
<path d="M10 0.901961C12.0989 0.903482 14.1327 1.63044 15.7571 2.9597C17.3814 4.28896 18.4963 6.13881 18.913 8.19593C19.3297 10.253 19.0226 12.391 18.0436 14.2476C17.0646 16.1042 15.474 17.5653 13.5412 18.3835C11.3193 19.314 8.81916 19.3257 6.58871 18.416C4.35825 17.5062 2.57944 15.7493 1.64214 13.5303C0.70484 11.3113 0.68551 8.81123 1.58839 6.578C2.49127 4.34476 4.2427 2.56057 6.45882 1.61647C7.57914 1.14252 8.78356 0.899504 10 0.901961ZM10 0C4.47725 0 0 4.47725 0 10C0 15.5227 4.47725 20 10 20C15.5227 20 20 15.5227 20 10C20 4.47725 15.5227 0 10 0Z" fill="white"/>
<path d="M12.9412 11.4471C12.9412 13.2589 11.5294 14.2 9.94119 14.2C8.69413 14.2 7.56472 13.6471 7.05884 12.4353L8.68237 11.4942C8.8706 12.0353 9.22354 12.3648 9.94119 12.3648C10.7177 12.3648 11.0588 11.953 11.0588 11.4471C11.0588 10.9412 10.7177 10.5295 9.94119 10.5295H9.55296L8.83531 9.45887L10.3294 7.56475H7.31766V5.80005H12.6118V7.32946L11.1882 9.14123C12.2 9.49417 12.9412 10.3059 12.9412 11.4471Z" fill="white"/>
</g>
<defs>
<clipPath id="clip0_15878_23538">
<rect width="20" height="20" fill="white"/>
</clipPath>
</defs>
</svg>
