<svg width="100" height="100" viewBox="0 0 100 100" fill="none" xmlns="http://www.w3.org/2000/svg">
<path d="M49.0685 87.5H13.823C17.9235 82.295 20.1443 75.8568 20.1249 69.2306V12.5H74.4988V42.4164C74.4988 42.8308 74.6634 43.2282 74.9565 43.5212C75.2495 43.8143 75.6469 43.9789 76.0613 43.9789C76.4757 43.9789 76.8732 43.8143 77.1662 43.5212C77.4592 43.2282 77.6238 42.8308 77.6238 42.4164V10.9375C77.6239 10.7323 77.5835 10.5291 77.505 10.3395C77.4265 10.1499 77.3114 9.97763 77.1663 9.83253C77.0212 9.68742 76.8489 9.57233 76.6593 9.49383C76.4697 9.41532 76.2665 9.37495 76.0613 9.375H18.5624C18.3572 9.37495 18.154 9.41532 17.9644 9.49383C17.7748 9.57233 17.6025 9.68742 17.4574 9.83253C17.3123 9.97763 17.1972 10.1499 17.1187 10.3395C17.0402 10.5291 16.9998 10.7323 16.9999 10.9375V69.2306C17.0095 72.7099 16.329 76.1566 14.9976 79.3711C13.6663 82.5856 11.7106 85.5041 9.24384 87.9578C9.02531 88.1763 8.87648 88.4547 8.81617 88.7577C8.75587 89.0608 8.7868 89.375 8.90505 89.6605C9.02331 89.946 9.22357 90.19 9.48052 90.3617C9.73747 90.5334 10.0396 90.625 10.3486 90.625H49.0685C49.4829 90.625 49.8804 90.4604 50.1734 90.1674C50.4664 89.8743 50.631 89.4769 50.631 89.0625C50.631 88.6481 50.4664 88.2507 50.1734 87.9576C49.8804 87.6646 49.4829 87.5 49.0685 87.5Z" fill="#4263EB"/>
<path d="M65.2336 29.0558H29.3899C28.9755 29.0558 28.5781 29.2204 28.285 29.5134C27.992 29.8065 27.8274 30.2039 27.8274 30.6183C27.8274 31.0327 27.992 31.4301 28.285 31.7231C28.5781 32.0162 28.9755 32.1808 29.3899 32.1808H65.2336C65.648 32.1808 66.0455 32.0162 66.3385 31.7231C66.6315 31.4301 66.7961 31.0327 66.7961 30.6183C66.7961 30.2039 66.6315 29.8065 66.3385 29.5134C66.0455 29.2204 65.648 29.0558 65.2336 29.0558Z" fill="#4263EB"/>
<path d="M66.7961 41.2048C66.7962 40.9996 66.7558 40.7964 66.6773 40.6068C66.5988 40.4172 66.4837 40.245 66.3386 40.0999C66.1935 39.9548 66.0212 39.8397 65.8316 39.7612C65.642 39.6827 65.4388 39.6423 65.2336 39.6423H29.3899C28.9755 39.6423 28.5781 39.807 28.285 40.1C27.992 40.393 27.8274 40.7904 27.8274 41.2048C27.8274 41.6192 27.992 42.0167 28.285 42.3097C28.5781 42.6027 28.9755 42.7673 29.3899 42.7673H65.2336C65.4388 42.7674 65.642 42.727 65.8316 42.6485C66.0212 42.57 66.1935 42.4549 66.3386 42.3098C66.4837 42.1647 66.5988 41.9924 66.6773 41.8028C66.7558 41.6132 66.7962 41.41 66.7961 41.2048Z" fill="#4263EB"/>
<path d="M51.2171 51.7914C51.2171 51.5862 51.1767 51.383 51.0982 51.1934C51.0197 51.0038 50.9046 50.8315 50.7595 50.6864C50.6144 50.5413 50.4422 50.4262 50.2526 50.3477C50.063 50.2692 49.8598 50.2288 49.6546 50.2289H29.3901C28.9757 50.2289 28.5783 50.3935 28.2853 50.6865C27.9923 50.9796 27.8276 51.377 27.8276 51.7914C27.8276 52.2058 27.9923 52.6032 28.2853 52.8962C28.5783 53.1893 28.9757 53.3539 29.3901 53.3539H49.6546C49.8598 53.3539 50.063 53.3136 50.2526 53.2351C50.4422 53.1566 50.6144 53.0415 50.7595 52.8964C50.9046 52.7513 51.0197 52.579 51.0982 52.3894C51.1767 52.1998 51.2171 51.9966 51.2171 51.7914Z" fill="#4263EB"/>
<path d="M29.3901 60.8154C28.9757 60.8154 28.5783 60.98 28.2853 61.2731C27.9923 61.5661 27.8276 61.9635 27.8276 62.3779C27.8276 62.7923 27.9923 63.1898 28.2853 63.4828C28.5783 63.7758 28.9757 63.9404 29.3901 63.9404H42.135C42.5494 63.9404 42.9469 63.7758 43.2399 63.4828C43.5329 63.1898 43.6975 62.7923 43.6975 62.3779C43.6975 61.9635 43.5329 61.5661 43.2399 61.2731C42.9469 60.98 42.5494 60.8154 42.135 60.8154H29.3901Z" fill="#4263EB"/>
<path d="M85.2983 56.1447C82.6848 53.5266 79.402 51.6773 75.8086 50.7988C72.2151 49.9203 68.4494 50.0465 64.9228 51.1636C61.3962 52.2807 58.2446 54.3456 55.8123 57.1328C53.3799 59.9199 51.7605 63.3221 51.1311 66.9674L49.8895 65.7257C49.5965 65.4327 49.1991 65.2681 48.7847 65.2681C48.3704 65.2681 47.973 65.4327 47.68 65.7257C47.387 66.0187 47.2224 66.4161 47.2224 66.8304C47.2224 67.2448 47.387 67.6422 47.68 67.9352L51.2755 71.5305C51.5693 71.8229 51.9668 71.987 52.3813 71.987C52.7957 71.987 53.1933 71.8229 53.4871 71.5305L57.0833 67.9352C57.3763 67.6422 57.5409 67.2448 57.5409 66.8304C57.5409 66.4161 57.3763 66.0187 57.0833 65.7257C56.7903 65.4327 56.3929 65.2681 55.9785 65.2681C55.5642 65.2681 55.1668 65.4327 54.8738 65.7257L54.5189 66.0805C55.4797 62.4477 57.6131 59.2337 60.5879 56.9378C63.5626 54.6419 67.2123 53.3926 70.97 53.3837C74.7277 53.3749 78.3831 54.6071 81.3687 56.8889C84.3542 59.1708 86.5027 62.3746 87.4806 66.0029C88.4585 69.6311 88.2109 73.4807 86.7764 76.9538C85.3419 80.4269 82.8007 83.3292 79.5475 85.2099C76.2942 87.0905 72.5111 87.8444 68.7854 87.3543C65.0598 86.8642 61.6003 85.1577 58.9441 82.4997C58.6511 82.2067 58.2537 82.0421 57.8394 82.0421C57.425 82.0421 57.0276 82.2067 56.7346 82.4997C56.4416 82.7927 56.277 83.1901 56.277 83.6044C56.277 84.0188 56.4416 84.4162 56.7346 84.7092C60.5231 88.4939 65.6596 90.6192 71.0147 90.6179C76.3698 90.6165 81.5052 88.4885 85.2918 84.7019C89.0784 80.9152 91.2062 75.7797 91.2074 70.4246C91.2086 65.0695 89.0831 59.9331 85.2983 56.1447Z" fill="#4263EB"/>
<path d="M71.0168 56.8984C70.8116 56.8984 70.6084 56.9388 70.4188 57.0173C70.2292 57.0958 70.057 57.2109 69.9119 57.356C69.7668 57.5011 69.6517 57.6733 69.5732 57.8629C69.4947 58.0525 69.4543 58.2557 69.4543 58.4609V70.4269C69.4568 70.8415 69.6216 71.2386 69.9134 71.5331L75.5762 77.1957C75.8698 77.4856 76.2662 77.6475 76.6788 77.6462C77.0914 77.6449 77.4867 77.4804 77.7785 77.1886C78.0702 76.8969 78.2347 76.5016 78.2361 76.089C78.2374 75.6764 78.0755 75.28 77.7856 74.9863L72.5793 69.78V58.4609C72.5794 58.2557 72.539 58.0525 72.4605 57.8629C72.382 57.6733 72.2669 57.5011 72.1218 57.356C71.9767 57.2109 71.8044 57.0958 71.6149 57.0173C71.4253 56.9388 71.2221 56.8984 71.0168 56.8984Z" fill="#4263EB"/>
</svg>
