<svg width="100" height="100" viewBox="0 0 100 100" fill="none" xmlns="http://www.w3.org/2000/svg">
<path d="M28.9063 6.09375H58.75C59.2187 6.09375 59.6875 6.40625 60 6.71875L68.9062 16.875C69.5312 17.5 69.375 18.4375 68.75 19.0625C68.125 19.6875 67.1875 19.5313 66.5625 18.9063L60.3125 11.7188V25C60.3125 25.4687 60.3125 25.7812 60.4687 26.25C60.625 27.0312 60.1563 27.8125 59.2188 28.125C58.4375 28.2812 57.6562 27.8125 57.3437 26.875C57.1875 26.25 57.1875 25.625 57.1875 25V9.21875H28.9063C26.875 9.21875 25.1563 10.1563 23.75 11.5625C22.3438 13.125 21.5625 15.3125 21.5625 17.6563V65.625C21.5625 66.5625 20.7813 67.1875 20 67.1875C19.0625 67.1875 18.4375 66.4063 18.4375 65.625V17.6563C18.4375 14.5313 19.5313 11.5625 21.4063 9.53125C23.4375 7.34375 26.0938 6.09375 28.9063 6.09375ZM8.75 93.5938C8.125 94.2188 7.1875 94.2188 6.5625 93.5938C5.9375 92.9688 5.9375 92.0313 6.5625 91.4063C34.6875 62.9688 62.9687 34.6875 91.25 6.40625C91.875 5.78125 92.8125 5.78125 93.4375 6.40625C94.0625 7.03125 94.0625 7.96875 93.4375 8.59375L76.7187 25.4687C78.125 27.0312 79.6875 28.75 81.0938 30.3125C81.4063 30.625 81.5625 30.9375 81.5625 31.4063V82.1875C81.5625 85.3125 80.4687 88.2813 78.5937 90.3125C76.7187 92.5 74.0625 93.75 71.0937 93.75H28.9063C25.9375 93.75 23.4375 92.3437 21.4063 90.3125C19.8438 88.4375 18.75 86.0938 18.4375 83.5938L8.75 93.5938ZM74.5312 27.6563L72.3437 29.8438H76.4062L74.5312 27.6563ZM69.2187 32.9688L21.5625 80.625V82.3438C21.5625 84.6875 22.3438 86.875 23.75 88.4375C25.1563 90 26.875 90.9375 28.9063 90.9375H70.9375C72.9687 90.9375 74.6875 90 76.0937 88.4375C77.5 86.875 78.2812 84.6875 78.2812 82.3438V32.9688H69.2187Z" fill="#4263EB"/>
</svg>
