<svg width="30" height="30" viewBox="0 0 30 30" fill="none" xmlns="http://www.w3.org/2000/svg">
<g clip-path="url(#clip0_15878_22917)">
<path d="M28.9268 6.22969L23.7705 1.07344C23.6811 0.987096 23.562 0.938425 23.4377 0.9375H11.7189C11.3463 0.938613 10.9893 1.08713 10.7258 1.35061C10.4623 1.61409 10.3138 1.97113 10.3127 2.34375V5.17969C7.78779 5.29803 5.40548 6.38435 3.66048 8.21305C1.91548 10.0418 0.941895 12.4723 0.941895 15C0.941895 17.5277 1.91548 19.9582 3.66048 21.7869C5.40548 23.6156 7.78779 24.702 10.3127 24.8203V27.6562C10.3138 28.0289 10.4623 28.3859 10.7258 28.6494C10.9893 28.9129 11.3463 29.0614 11.7189 29.0625H27.6564C28.0291 29.0614 28.3861 28.9129 28.6496 28.6494C28.9131 28.3859 29.0616 28.0289 29.0627 27.6562V6.5625C29.0618 6.43823 29.0131 6.31907 28.9268 6.22969ZM23.9064 2.53594L27.4643 6.09375H24.3752C24.2509 6.09375 24.1316 6.04436 24.0437 5.95646C23.9558 5.86855 23.9064 5.74932 23.9064 5.625V2.53594ZM1.8752 15C1.87825 12.7201 2.75445 10.528 4.32372 8.8742C5.89299 7.22036 8.03613 6.23041 10.3127 6.10781V14.8078L4.17207 20.9484C2.69388 19.3199 1.87505 17.1993 1.8752 15ZM4.83301 21.6094L10.9736 15.4688H19.6736C19.5883 17.1484 19.0281 18.7693 18.0583 20.1433C17.0885 21.5173 15.7488 22.588 14.1947 23.231C12.6407 23.8741 10.9361 24.063 9.27902 23.7759C7.6219 23.4889 6.08021 22.7376 4.83301 21.6094ZM28.1252 27.6562C28.1252 27.7806 28.0758 27.8998 27.9879 27.9877C27.9 28.0756 27.7808 28.125 27.6564 28.125H11.7189C11.5946 28.125 11.4754 28.0756 11.3875 27.9877C11.2996 27.8998 11.2502 27.7806 11.2502 27.6562V24.8203C13.7742 24.6984 16.1549 23.6111 17.8998 21.7833C19.6447 19.9555 20.6204 17.527 20.6252 15C20.6252 14.8757 20.5758 14.7565 20.4879 14.6685C20.4 14.5806 20.2808 14.5312 20.1564 14.5312H11.2502V2.34375C11.2502 2.21943 11.2996 2.1002 11.3875 2.01229C11.4754 1.92439 11.5946 1.875 11.7189 1.875H22.9689V5.625C22.9701 5.99762 23.1186 6.35466 23.3821 6.61814C23.6455 6.88162 24.0026 7.03014 24.3752 7.03125H28.1252V27.6562Z" fill="#37303F"/>
<path d="M12.6562 3.28125C12.5319 3.28125 12.4127 3.33064 12.3248 3.41854C12.2369 3.50645 12.1875 3.62568 12.1875 3.75V13.125C12.1875 13.2493 12.2369 13.3685 12.3248 13.4565C12.4127 13.5444 12.5319 13.5938 12.6562 13.5938H22.0312C22.1556 13.5938 22.2748 13.5444 22.3627 13.4565C22.4506 13.3685 22.5 13.2493 22.5 13.125C22.4971 10.5152 21.4591 8.01301 19.6137 6.16757C17.7682 4.32213 15.2661 3.2841 12.6562 3.28125ZM13.125 12.6562V4.23281C15.3208 4.35071 17.3955 5.27603 18.9503 6.8309C20.5052 8.38578 21.4305 10.4605 21.5484 12.6562H13.125Z" fill="#37303F"/>
<path d="M22.9688 18.75C22.1344 18.75 21.3187 18.9974 20.6249 19.461C19.9312 19.9245 19.3904 20.5834 19.0711 21.3543C18.7518 22.1252 18.6683 22.9734 18.8311 23.7918C18.9938 24.6101 19.3956 25.3619 19.9856 25.9519C20.5756 26.5419 21.3274 26.9437 22.1457 27.1064C22.9641 27.2692 23.8123 27.1857 24.5832 26.8664C25.3541 26.5471 26.013 26.0063 26.4765 25.3126C26.9401 24.6188 27.1875 23.8031 27.1875 22.9688C27.1858 21.8504 26.7407 20.7784 25.9499 19.9876C25.1591 19.1968 24.0871 18.7517 22.9688 18.75ZM22.9688 26.25C22.3198 26.25 21.6854 26.0576 21.1458 25.697C20.6062 25.3365 20.1856 24.824 19.9373 24.2244C19.6889 23.6249 19.6239 22.9651 19.7506 22.3286C19.8772 21.6921 20.1897 21.1074 20.6486 20.6486C21.1074 20.1897 21.6921 19.8772 22.3286 19.7505C22.9651 19.6239 23.6249 19.6889 24.2244 19.9373C24.824 20.1856 25.3365 20.6062 25.697 21.1458C26.0576 21.6854 26.25 22.3198 26.25 22.9688C26.249 23.8387 25.903 24.6727 25.2879 25.2878C24.6727 25.903 23.8387 26.249 22.9688 26.25Z" fill="#37303F"/>
<path d="M22.0316 23.7122L20.9568 22.6373L20.2939 23.3001L21.7002 24.7064C21.7881 24.7943 21.9073 24.8436 22.0316 24.8436C22.1559 24.8436 22.2751 24.7943 22.363 24.7064L25.1755 21.8939L24.5127 21.2311L22.0316 23.7122Z" fill="#37303F"/>
<path d="M23.4375 8.90625H27.1875V9.84375H23.4375V8.90625Z" fill="#37303F"/>
<path d="M23.4375 11.7188H27.1875V12.6562H23.4375V11.7188Z" fill="#37303F"/>
<path d="M23.4375 14.5312H27.1875V15.4688H23.4375V14.5312Z" fill="#37303F"/>
</g>
<defs>
<clipPath id="clip0_15878_22917">
<rect width="30" height="30" fill="white"/>
</clipPath>
</defs>
</svg>
