<svg width="16" height="16" viewBox="0 0 16 16" fill="none" xmlns="http://www.w3.org/2000/svg">
<path d="M8.00016 9.05711L4.47157 5.52851C4.21122 5.26816 3.78911 5.26816 3.52876 5.52851C3.26841 5.78886 3.26841 6.21097 3.52876 6.47132L7.52876 10.4713C7.78911 10.7317 8.21122 10.7317 8.47157 10.4713L12.4716 6.47132C12.7319 6.21097 12.7319 5.78886 12.4716 5.52851C12.2112 5.26816 11.7891 5.26816 11.5288 5.52851L8.00016 9.05711Z" fill="#4263EB"/>
<mask id="mask0_15878_21684" style="mask-type:alpha" maskUnits="userSpaceOnUse" x="3" y="5" width="10" height="6">
<path d="M8.00016 9.05711L4.47157 5.52851C4.21122 5.26816 3.78911 5.26816 3.52876 5.52851C3.26841 5.78886 3.26841 6.21097 3.52876 6.47132L7.52876 10.4713C7.78911 10.7317 8.21122 10.7317 8.47157 10.4713L12.4716 6.47132C12.7319 6.21097 12.7319 5.78886 12.4716 5.52851C12.2112 5.26816 11.7891 5.26816 11.5288 5.52851L8.00016 9.05711Z" fill="white"/>
</mask>
<g mask="url(#mask0_15878_21684)">
</g>
</svg>
