<svg width="699" height="812" viewBox="0 0 699 812" fill="none" xmlns="http://www.w3.org/2000/svg">
<path d="M913.237 484.418C913.237 263.088 745.035 83.7203 537.614 83.7203C330.193 83.7203 161.991 263.088 161.991 484.418C161.991 489.259 164.248 494.588 168.69 500.229C173.129 505.865 179.717 511.771 188.298 517.757C205.46 529.728 230.526 541.969 262.104 552.971C325.254 574.973 414.371 591.99 518.183 591.99C621.985 591.99 720.821 571.645 793.703 547.971C830.144 536.134 860.084 523.469 880.903 512.107C891.315 506.425 899.43 501.078 904.934 496.334C907.686 493.961 909.772 491.752 911.165 489.739C912.563 487.72 913.237 485.941 913.237 484.418Z" stroke="url(#paint0_linear_15878_23933)"/>
<path d="M922.406 454.244C906.991 233.526 726.761 67.9827 519.913 84.4199C313.064 100.857 157.82 293.059 173.236 513.777C173.573 518.605 176.196 523.74 181.018 529.012C185.837 534.281 192.818 539.65 201.793 544.939C219.741 555.516 245.59 565.738 277.847 574.207C342.355 591.143 432.411 601.051 535.936 592.824C639.452 584.598 736.598 556.477 807.629 527.094C843.145 512.401 872.12 497.399 892.091 484.419C902.078 477.927 909.798 471.952 914.956 466.784C917.536 464.2 919.461 461.831 920.711 459.713C921.964 457.59 922.512 455.762 922.406 454.244Z" stroke="url(#paint1_linear_15878_23933)"/>
<path d="M928.935 426.078C899.489 206.989 709.126 54.8972 503.803 86.2952C298.48 117.693 155.844 320.707 185.29 539.796C185.935 544.588 188.878 549.521 194.025 554.432C199.169 559.339 206.476 564.189 215.767 568.815C234.347 578.067 260.789 586.39 293.511 592.5C358.949 604.72 449.428 608.075 552.19 592.361C654.942 576.648 750.071 541.548 819.066 507.081C853.564 489.848 881.515 472.779 900.613 458.381C910.163 451.18 917.484 444.659 922.301 439.129C924.71 436.364 926.481 433.861 927.592 431.657C928.707 429.448 929.137 427.584 928.935 426.078Z" stroke="url(#paint2_linear_15878_23933)"/>
<path d="M933.456 398.953C890.818 182.349 691.652 43.6759 488.655 89.1416C285.657 134.607 155.602 347.017 198.24 563.62C199.173 568.357 202.408 573.077 207.842 577.624C213.271 582.166 220.857 586.503 230.408 590.48C249.51 598.434 276.4 604.92 309.423 608.765C375.465 616.455 465.959 613.575 567.556 590.821C669.143 568.068 761.951 526.493 828.717 487.349C862.1 467.777 888.961 448.82 907.148 433.137C916.243 425.294 923.154 418.282 927.627 412.433C929.863 409.507 931.478 406.888 932.455 404.612C933.433 402.33 933.749 400.442 933.456 398.953Z" stroke="url(#paint3_linear_15878_23933)"/>
<path d="M936.2 373.27C881.34 159.822 674.666 34.2692 474.621 92.7678C274.576 151.266 156.823 371.69 211.683 585.139C212.882 589.806 216.38 594.308 222.061 598.495C227.739 602.678 235.557 606.517 245.317 609.869C264.835 616.574 292.044 621.311 325.225 623.016C391.582 626.425 481.747 617.703 581.865 588.426C681.975 559.151 772.252 511.656 836.672 468.271C868.883 446.578 894.618 425.92 911.881 409.09C920.514 400.674 927.014 393.228 931.146 387.101C933.213 384.036 934.676 381.317 935.521 378.983C936.369 376.642 936.577 374.737 936.2 373.27Z" stroke="url(#paint4_linear_15878_23933)"/>
<path d="M937.554 343.446C868.831 134.616 654.43 24.7906 458.709 98.0739C262.987 171.357 159.981 400.028 228.704 608.858C230.206 613.423 233.989 617.652 239.932 621.405C245.869 625.155 253.92 628.401 263.876 631.017C283.786 636.249 311.24 638.944 344.452 638.168C410.87 636.618 500.242 621.19 598.196 584.513C696.141 547.84 783.082 493.725 844.499 445.639C875.209 421.595 899.526 399.067 915.643 380.991C923.703 371.951 929.699 364.038 933.419 357.617C935.28 354.406 936.561 351.584 937.251 349.193C937.943 346.794 938.026 344.879 937.554 343.446Z" stroke="url(#paint5_linear_15878_23933)"/>
<path d="M937.098 316.701C856.245 112.878 635.815 17.5942 444.78 103.815C253.744 190.037 164.375 425.144 245.228 628.967C246.995 633.421 251.018 637.389 257.17 640.738C263.316 644.083 271.542 646.784 281.632 648.73C301.81 652.621 329.369 653.476 362.47 650.483C428.667 644.496 516.958 623.125 612.565 579.974C708.164 536.827 791.755 477.008 850.228 424.911C879.465 398.862 902.411 374.753 917.435 355.635C924.948 346.074 930.468 337.776 933.804 331.119C935.472 327.79 936.585 324.888 937.133 322.455C937.683 320.015 937.652 318.099 937.098 316.701Z" stroke="url(#paint6_linear_15878_23933)"/>
<path d="M934.214 282.535C838.274 86.3036 611.381 10.2135 427.453 112.529C243.525 214.845 172.155 456.851 268.096 653.083C270.192 657.37 274.5 660.98 280.884 663.79C287.263 666.598 295.665 668.586 305.869 669.661C326.276 671.81 353.81 670.301 386.579 664.48C452.112 652.84 538.508 623.972 630.557 572.767C722.598 521.567 801.414 454.777 855.774 397.838C882.955 369.367 904.011 343.37 917.547 323.026C924.316 312.852 929.193 304.108 932.016 297.186C933.429 293.724 934.32 290.737 934.683 288.265C935.047 285.786 934.872 283.88 934.214 282.535Z" stroke="url(#paint7_linear_15878_23933)"/>
<path d="M928.673 248.258C818.068 61.0199 586.12 4.89274 410.612 122.853C235.104 240.813 182.458 488.218 293.063 675.456C295.478 679.545 300.046 682.768 306.624 685.015C313.195 687.259 321.722 688.51 331.974 688.695C352.478 689.064 379.805 685.167 412.021 676.518C476.448 659.223 560.353 622.943 648.186 563.91C736.012 504.882 809.466 431.465 859.298 369.991C884.214 339.254 903.215 311.513 915.152 290.06C921.122 279.331 925.315 270.193 927.6 263.048C928.744 259.475 929.403 256.42 929.577 253.925C929.75 251.423 929.43 249.54 928.673 248.258Z" stroke="url(#paint8_linear_15878_23933)"/>
<path d="M921.781 219.076C799.08 40.6238 564.001 2.07144 396.721 132.937C229.44 263.803 193.278 514.552 315.979 693.004C318.657 696.899 323.426 699.771 330.135 701.517C336.838 703.262 345.427 703.869 355.666 703.282C376.143 702.109 403.146 696.167 434.71 685.117C497.835 663.02 579.134 620.522 662.848 555.032C746.555 489.547 814.975 410.789 860.621 345.721C883.444 313.186 900.565 284.085 911.054 261.788C916.3 250.637 919.879 241.206 921.687 233.907C922.591 230.257 923.048 227.16 923.055 224.658C923.063 222.149 922.62 220.296 921.781 219.076Z" stroke="url(#paint9_linear_15878_23933)"/>
<path d="M912.649 189.538C778.088 21.101 541.001 0.916377 383.1 144.439C225.199 287.962 206.266 540.855 340.826 709.292C343.762 712.967 348.712 715.46 355.524 716.68C362.328 717.9 370.935 717.837 381.108 716.456C401.451 713.695 427.976 705.67 458.702 692.196C520.15 665.252 598.331 616.548 677.349 544.725C756.361 472.908 819.22 389.041 860.3 320.598C880.84 286.376 895.928 256.022 904.867 232.968C909.337 221.439 912.262 211.754 913.567 204.334C914.219 200.624 914.463 197.499 914.3 195.004C914.136 192.5 913.567 190.688 912.649 189.538Z" stroke="url(#paint10_linear_15878_23933)"/>
<path d="M902.175 162.316C757.055 4.17551 519.227 1.46382 370.971 156.257C222.715 311.051 220.172 564.734 365.292 722.875C368.457 726.324 373.555 728.447 380.429 729.164C387.296 729.879 395.879 729.185 405.938 727.059C426.054 722.808 451.998 712.852 481.781 697.152C541.342 665.754 616.191 611.418 690.382 533.956C764.566 456.501 821.857 368.212 858.417 296.911C876.697 261.26 889.788 229.869 897.216 206.213C900.931 194.382 903.223 184.505 904.045 177.006C904.457 173.257 904.498 170.122 904.174 167.644C903.849 165.159 903.164 163.394 902.175 162.316Z" stroke="url(#paint11_linear_15878_23933)"/>
<path d="M890.423 136.84C735.766 -10.6509 498.296 3.5131 360.018 168.487C221.74 333.46 235.025 586.762 389.682 734.252C393.053 737.468 398.271 739.224 405.175 739.452C412.071 739.679 420.592 738.377 430.496 735.542C450.304 729.873 475.569 718.099 504.307 700.32C561.779 664.765 633.075 605.238 702.271 522.683C771.461 440.136 823.12 347.977 855.153 274.24C871.17 237.371 882.274 205.119 888.21 180.988C891.179 168.92 892.851 158.902 893.204 151.362C893.38 147.591 893.226 144.46 892.748 142.012C892.269 139.555 891.475 137.844 890.423 136.84Z" stroke="url(#paint12_linear_15878_23933)"/>
<path d="M878.328 114.232C715.52 -22.9057 479.303 6.69644 350.725 180.373C222.147 354.05 249.914 606.013 412.722 743.151C416.27 746.139 421.577 747.553 428.481 747.33C435.378 747.108 443.808 745.253 453.532 741.779C472.978 734.83 497.523 721.431 525.19 701.813C580.519 662.581 648.274 598.521 712.614 511.612C776.95 424.711 823.237 329.359 850.988 253.672C864.864 215.828 874.102 182.914 878.646 158.441C880.918 146.202 882.013 136.093 881.933 128.544C881.893 124.768 881.56 121.654 880.943 119.241C880.324 116.819 879.435 115.165 878.328 114.232Z" stroke="url(#paint13_linear_15878_23933)"/>
<path d="M773.364 91.5558C603.069 -34.8052 368.967 10.0054 250.488 191.677C132.01 373.348 174.041 623.053 344.336 749.414C348.046 752.167 353.423 753.235 360.302 752.566C367.173 751.898 375.482 749.502 384.991 745.406C404.007 737.213 427.746 722.252 454.248 700.882C507.247 658.146 571.239 589.824 630.525 498.916C689.807 408.016 730.592 309.847 753.994 232.506C765.695 193.834 773.045 160.383 776.191 135.661C777.764 123.297 778.283 113.136 777.774 105.606C777.52 101.84 777.01 98.7523 776.257 96.384C775.502 94.0071 774.521 92.414 773.364 91.5558Z" stroke="url(#paint14_linear_15878_23933)"/>
<path d="M758.99 71.0585C581.902 -44.1809 350.739 15.5184 242.684 204.444C134.629 393.371 190.625 639.937 367.714 755.176C371.57 757.686 376.996 758.408 383.825 757.301C390.646 756.195 398.806 753.272 408.068 748.574C426.589 739.18 449.444 722.727 474.697 699.701C525.2 653.651 585.236 581.359 639.305 486.822C693.37 392.294 728.565 291.692 747.576 212.993C757.082 173.643 762.539 139.781 764.29 114.902C765.165 102.46 765.111 92.2839 764.181 84.7993C763.715 81.0562 763.033 78.0068 762.148 75.6909C761.26 73.3666 760.192 71.8402 758.99 71.0585Z" stroke="url(#paint15_linear_15878_23933)"/>
<path d="M746.298 54.8885C564.09 -50.8737 335.974 20.9349 236.802 215.329C137.631 409.723 204.984 653.036 387.192 758.798C391.158 761.1 396.611 761.536 403.38 760.07C410.142 758.606 418.156 755.256 427.189 750.076C445.253 739.717 467.318 722.079 491.474 697.75C539.781 649.094 596.395 573.725 646.019 476.454C695.639 379.19 726.129 276.856 741.472 197.251C749.143 157.447 753.025 123.339 753.62 98.398C753.918 85.9248 753.393 75.764 752.117 68.3376C751.478 64.6235 750.656 61.6137 749.665 59.3474C748.67 57.0726 747.533 55.6053 746.298 54.8885Z" stroke="url(#paint16_linear_15878_23933)"/>
<path d="M734.557 41.1792C548.2 -56.0037 323.237 26.3475 232.107 225.173C140.978 423.998 218.219 663.945 404.576 761.128C408.631 763.243 414.096 763.425 420.799 761.646C427.494 759.868 435.364 756.149 444.176 750.553C461.8 739.363 483.123 720.716 506.261 695.286C552.533 644.428 606.011 566.497 651.61 467.009C697.206 367.529 723.483 263.874 735.555 183.63C741.592 143.507 744.075 109.251 743.65 84.3058C743.437 71.8305 742.498 61.7037 740.919 54.3436C740.129 50.6626 739.184 47.6941 738.102 45.4761C737.015 43.2497 735.819 41.8374 734.557 41.1792Z" stroke="url(#paint17_linear_15878_23933)"/>
<path d="M721.618 27.4629C531.302 -60.5519 310.093 32.6552 227.559 235.71C145.024 438.764 232.446 674.703 422.762 762.717C426.903 764.632 432.369 764.549 438.989 762.445C445.601 760.344 453.304 756.245 461.868 750.227C478.994 738.191 499.498 718.526 521.525 691.996C565.574 638.94 615.665 558.488 656.963 456.885C698.258 355.291 720.076 250.464 728.705 169.717C733.02 129.342 734.036 95.0001 732.544 70.1015C731.799 57.6494 730.427 47.5787 728.535 40.303C727.589 36.6642 726.517 33.7447 725.341 31.5818C724.161 29.4105 722.905 28.0585 721.618 27.4629Z" stroke="url(#paint18_linear_15878_23933)"/>
<path d="M707.872 14.1602C513.937 -64.3443 297.018 39.7035 223.4 246.625C149.782 453.546 247.37 684.905 441.305 763.409C445.524 765.117 450.98 764.764 457.501 762.335C464.015 759.908 471.531 755.433 479.825 748.997C496.409 736.127 516.036 715.469 536.886 687.878C578.582 632.7 625.121 549.856 661.957 446.319C698.79 342.791 716.027 236.998 721.136 155.91C723.69 115.365 723.212 81.0099 720.64 56.2117C719.354 43.8098 717.545 33.8177 715.339 26.6433C714.236 23.0553 713.039 20.1918 711.77 18.0895C710.496 15.9788 709.184 14.6911 707.872 14.1602Z" stroke="url(#paint19_linear_15878_23933)"/>
<path d="M687.905 -3.09968C489.646 -68.154 279.439 50.5384 218.432 262.079C157.425 473.62 268.746 697.814 467.005 762.868C471.316 764.283 476.738 763.557 483.101 760.686C489.455 757.818 496.686 752.837 504.575 745.847C520.351 731.867 538.693 709.906 557.838 680.943C596.125 623.022 637.58 537.161 668.105 431.314C698.629 325.475 709.459 218.719 709.675 137.448C709.783 96.812 707.237 62.5604 703.177 37.9895C701.146 25.7013 698.74 15.8536 696.106 8.84501C694.789 5.33987 693.422 2.56442 692.029 0.553393C690.631 -1.46568 689.244 -2.66012 687.905 -3.09968Z" stroke="url(#paint20_linear_15878_23933)"/>
<path d="M666.9 -18.9926C465.13 -70.3033 262.518 62.5692 214.398 277.861C166.279 493.153 290.895 709.241 492.665 760.552C497.052 761.667 502.419 760.571 508.595 757.269C514.763 753.971 521.678 748.505 529.129 740.987C544.029 725.953 561.009 702.779 578.367 672.562C613.081 612.133 649.27 523.603 673.347 415.88C697.422 308.165 701.79 200.887 697.103 119.77C694.759 79.2102 690.152 45.2042 684.618 20.9626C681.85 8.83919 678.855 -0.822994 675.804 -7.63635C674.278 -11.0439 672.746 -13.7198 671.235 -15.6309C669.718 -17.5499 668.262 -18.6461 666.9 -18.9926Z" stroke="url(#paint21_linear_15878_23933)"/>
<path d="M652.617 -28.6284C448.996 -70.8036 251.825 71.0769 212.273 288.346C172.72 505.615 305.782 715.895 509.402 758.07C513.828 758.987 519.147 757.651 525.186 754.073C531.218 750.501 537.911 744.727 545.058 736.88C559.349 721.189 575.397 697.27 591.543 666.298C623.833 604.359 656.485 514.278 676.275 405.566C696.064 296.863 696.181 189.484 688.286 108.65C684.338 68.2316 678.389 34.4634 671.9 10.4928C668.655 -1.4952 665.279 -11.0139 661.961 -17.6838C660.302 -21.0196 658.666 -23.6241 657.08 -25.4655C655.488 -27.3144 653.991 -28.3437 652.617 -28.6284Z" stroke="url(#paint22_linear_15878_23933)"/>
<path d="M635.071 -39.2702C429.717 -70.4348 239.507 81.8738 210.279 300.996C181.052 520.118 323.89 722.97 529.245 754.134C533.708 754.812 538.956 753.191 544.819 749.293C550.675 745.4 557.086 739.274 563.852 731.053C577.384 714.612 592.279 689.86 606.94 658.059C636.26 594.461 664.61 502.738 679.234 393.099C693.857 283.469 688.895 176.22 677.187 95.9136C671.333 55.7596 663.794 22.3544 656.18 -1.23661C652.372 -13.0348 648.55 -22.3598 644.921 -28.8426C643.106 -32.0849 641.349 -34.598 639.678 -36.3518C638.001 -38.1127 636.457 -39.0599 635.071 -39.2702Z" stroke="url(#paint23_linear_15878_23933)"/>
<path d="M613.528 -50.7133C406.789 -68.6487 225.51 95.5847 208.689 316.186C191.869 536.787 345.885 730.109 552.624 748.044C557.117 748.434 562.264 746.48 567.897 742.213C573.522 737.952 579.576 731.425 585.867 722.785C598.447 705.506 611.92 679.843 624.762 647.159C650.443 581.795 673.57 488.419 681.987 378.041C690.402 267.671 679.403 160.934 663.188 81.5243C655.081 41.8184 645.673 8.95725 636.742 -14.1027C632.276 -25.6353 627.936 -34.6983 623.947 -40.9367C621.953 -44.0567 620.057 -46.4525 618.291 -48.0959C616.517 -49.7461 614.923 -50.5923 613.528 -50.7133Z" stroke="url(#paint24_linear_15878_23933)"/>
<path d="M593.817 -59.7191C386.475 -65.8096 213.708 108.551 207.996 329.797C202.284 551.044 365.793 735.282 573.135 741.373C577.641 741.505 582.683 739.259 588.093 734.677C593.496 730.1 599.214 723.237 605.061 714.249C616.755 696.276 628.919 669.88 640.1 636.508C662.46 569.77 680.863 475.206 683.721 364.505C686.578 253.813 670.231 147.859 650.05 69.4895C639.96 30.3041 628.913 -1.97196 618.837 -24.4883C613.798 -35.7489 609.009 -44.5509 604.712 -50.5522C602.564 -53.5537 600.55 -55.8378 598.704 -57.3778C596.85 -58.9242 595.216 -59.678 593.817 -59.7191Z" stroke="url(#paint25_linear_15878_23933)"/>
<path d="M570.856 -68.6C363.551 -61.1817 201.082 124.101 208.039 345.306C214.996 566.512 388.742 739.763 596.046 732.345C600.552 732.184 605.455 729.614 610.593 724.688C615.724 719.768 621.038 712.545 626.361 703.193C637.004 684.492 647.636 657.354 656.886 623.316C675.387 555.247 688.344 459.662 684.863 348.981C681.382 238.309 659.004 133.616 634.376 56.7072C622.063 18.2516 609.19 -13.2452 597.845 -35.0635C592.17 -45.9751 586.887 -54.4489 582.255 -60.1595C579.939 -63.0155 577.798 -65.1642 575.867 -66.5812C573.928 -68.004 572.254 -68.65 570.856 -68.6Z" stroke="url(#paint26_linear_15878_23933)"/>
<path d="M546.66 -76.175C340.205 -54.8377 189.005 140.997 209.016 361.295C229.027 581.593 412.661 742.822 619.116 721.485C623.603 721.021 628.345 718.126 633.182 712.865C638.012 707.61 642.889 700.044 647.649 690.353C657.166 670.974 666.173 643.175 673.395 608.583C687.837 539.406 695.122 443.14 685.11 332.913C675.098 222.695 646.579 119.715 617.457 44.6134C602.896 7.06211 588.189 -23.507 575.577 -44.5193C569.269 -55.0278 563.495 -63.1296 558.536 -68.5175C556.055 -71.2121 553.792 -73.2127 551.781 -74.4971C549.762 -75.7868 548.052 -76.319 546.66 -76.175Z" stroke="url(#paint27_linear_15878_23933)"/>
<path d="M521.782 -82.1734C317.021 -46.8445 177.829 158.871 210.962 377.36C244.094 595.848 436.988 744.267 641.75 708.938C646.2 708.17 650.76 704.959 655.272 699.379C659.779 693.806 664.194 685.925 668.365 675.93C676.705 655.943 684.033 627.588 689.173 592.576C699.453 522.558 700.971 425.993 684.393 316.671C667.817 207.358 633.203 106.525 599.653 33.5566C582.878 -2.92859 566.374 -32.4356 552.532 -52.5478C545.61 -62.6062 539.364 -70.2989 534.092 -75.3386C531.456 -77.8592 529.078 -79.7019 526.995 -80.847C524.902 -81.9967 523.164 -82.4118 521.782 -82.1734Z" stroke="url(#paint28_linear_15878_23933)"/>
<path d="M497.006 -86.4022C294.722 -37.4475 167.898 177.174 213.808 393.015C259.719 608.855 460.957 744.082 663.24 695.128C667.638 694.063 672 690.553 676.175 684.682C680.345 678.819 684.289 670.658 687.864 660.404C695.013 639.899 700.659 611.11 703.731 575.823C709.875 505.255 705.714 408.778 682.742 300.781C659.773 192.791 619.3 94.4725 581.527 23.8915C562.64 -11.3998 544.435 -39.7449 529.437 -58.8916C521.937 -68.4671 515.251 -75.7269 509.694 -80.4041C506.915 -82.7434 504.433 -84.4234 502.286 -85.4269C500.131 -86.4344 498.371 -86.7327 497.006 -86.4022Z" stroke="url(#paint29_linear_15878_23933)"/>
<path d="M471.563 -89.0091C272.621 -26.3731 158.909 196.451 217.648 408.721C276.387 620.991 485.31 742.235 684.252 679.599C688.578 678.237 692.721 674.436 696.537 668.293C700.347 662.158 703.794 653.744 706.747 643.268C712.654 622.318 716.565 593.203 717.518 557.779C719.424 486.937 709.495 390.941 680.104 284.729C650.716 178.525 604.439 83.1646 562.517 15.3011C541.556 -18.6315 521.69 -45.6783 505.577 -63.7643C497.519 -72.8092 490.412 -79.5987 484.587 -83.8877C481.673 -86.0327 479.096 -87.5403 476.893 -88.3955C474.682 -89.2542 472.907 -89.4322 471.563 -89.0091Z" stroke="url(#paint30_linear_15878_23933)"/>
<path d="M443.887 -89.8662C249.481 -12.6987 150.495 217.984 222.86 425.408C295.224 632.832 511.509 738.37 705.915 661.203C710.144 659.524 714.031 655.426 717.438 649.016C720.842 642.615 723.735 633.967 726.002 623.298C730.535 601.962 732.549 572.629 731.202 537.22C728.508 466.407 712.378 371.374 676.169 267.586C639.963 163.806 587.612 72.0887 541.39 7.4815C518.278 -24.8229 496.706 -50.3388 479.459 -67.1923C470.833 -75.6209 463.303 -81.8695 457.213 -85.7183C454.168 -87.6432 451.499 -88.957 449.246 -89.6476C446.984 -90.341 445.202 -90.388 443.887 -89.8662Z" stroke="url(#paint31_linear_15878_23933)"/>
<path d="M422.222 -89.1013C232.017 -0.812009 144.895 235.252 227.687 438.188C310.479 641.123 531.805 734.011 722.009 645.721C726.147 643.8 729.821 639.483 732.898 632.886C735.971 626.297 738.42 617.495 740.142 606.711C743.586 585.144 744.107 555.738 740.963 520.459C734.677 449.906 713.744 355.945 672.317 254.402C630.893 152.867 573.962 64.3096 524.526 2.46847C499.808 -28.4528 476.972 -52.6847 458.894 -68.5166C449.853 -76.4344 442.017 -82.2386 435.741 -85.7299C432.602 -87.4759 429.87 -88.6335 427.585 -89.193C425.292 -89.7547 423.509 -89.6988 422.222 -89.1013Z" stroke="url(#paint32_linear_15878_23933)"/>
<path d="M397.929 -86.7645C213.121 13.7295 139.653 255.021 233.887 452.192C328.12 649.363 554.342 727.691 739.151 627.197C743.173 625.01 746.593 620.46 749.287 613.676C751.979 606.899 753.92 597.954 755.022 587.078C757.227 565.329 756.066 535.943 750.913 500.934C740.607 430.922 714.343 338.497 667.19 239.837C620.042 141.184 558.155 56.4937 505.278 -2.01793C478.839 -31.2744 454.66 -53.9763 435.712 -68.6033C426.235 -75.9184 418.082 -81.2023 411.618 -84.2788C408.385 -85.8175 405.593 -86.7954 403.28 -87.2053C400.959 -87.6167 399.181 -87.4453 397.929 -86.7645Z" stroke="url(#paint33_linear_15878_23933)"/>
<path d="M374.237 -82.9177C195.399 29.2032 135.613 274.755 240.745 465.55C345.877 656.344 576.09 720.084 754.928 607.963C758.821 605.522 761.98 600.761 764.289 593.817C766.595 586.88 768.031 577.828 768.52 566.901C769.5 545.05 766.692 515.791 759.582 481.175C745.364 411.947 713.958 321.366 661.352 225.895C608.749 130.432 542.22 49.847 486.152 -5.1817C458.118 -32.6967 432.709 -53.8132 412.973 -67.2034C403.103 -73.9 394.668 -78.6535 388.043 -81.3115C384.73 -82.6409 381.887 -83.4387 379.556 -83.7001C377.215 -83.9626 375.45 -83.6781 374.237 -82.9177Z" stroke="url(#paint34_linear_15878_23933)"/>
<path d="M348.338 -76.9157C176.85 47.5948 132.444 296.832 249.188 479.777C365.932 662.722 599.596 710.064 771.084 585.554C774.82 582.842 777.676 577.867 779.549 570.775C781.419 563.691 782.29 554.557 782.1 543.62C781.72 521.747 777.102 492.752 767.859 458.714C749.374 390.643 712.414 302.48 653.996 210.935C595.582 119.398 524.196 43.6897 464.835 -7.25746C435.155 -32.7316 408.49 -52.0067 387.967 -63.9733C377.703 -69.9579 368.991 -74.105 362.216 -76.2893C358.827 -77.3816 355.942 -77.9768 353.599 -78.073C351.248 -78.1696 349.502 -77.7611 348.338 -76.9157Z" stroke="url(#paint35_linear_15878_23933)"/>
<path d="M324.057 -69.5063C160.274 66.3036 130.707 318.033 258.04 492.751C385.373 667.469 621.372 698.99 785.155 563.18C788.724 560.221 791.281 555.062 792.73 547.859C794.177 540.663 794.505 531.488 793.669 520.586C791.996 498.783 785.672 470.157 774.433 436.809C751.958 370.119 709.855 284.62 646.137 197.191C582.424 109.769 506.701 39.0181 444.445 -7.83114C413.316 -31.2563 385.565 -48.6977 364.374 -59.2588C353.777 -64.5404 344.838 -68.0928 337.947 -69.8165C334.5 -70.6784 331.585 -71.0783 329.241 -71.0166C326.889 -70.9546 325.17 -70.4296 324.057 -69.5063Z" stroke="url(#paint36_linear_15878_23933)"/>
<path d="M298.249 -59.6303C143.57 87.8328 130.245 341.132 268.497 506.13C406.749 671.128 644.218 685.334 798.897 537.871C802.269 534.657 804.489 529.322 805.472 522.029C806.453 514.744 806.192 505.567 804.657 494.752C801.588 473.123 793.44 445.027 780.086 412.579C753.38 347.688 705.885 265.468 636.702 182.901C567.525 100.341 487.436 35.2898 422.317 -6.89961C389.757 -27.9948 360.951 -43.3672 339.133 -52.3548C328.221 -56.8496 319.075 -59.7402 312.089 -60.9562C308.596 -61.5644 305.662 -61.7503 303.327 -61.5174C300.985 -61.2837 299.302 -60.6342 298.249 -59.6303Z" stroke="url(#paint37_linear_15878_23933)"/>
<path d="M269.718 -46.1193C126.287 113.767 131.527 367.403 281.418 520.393C431.309 673.383 669.092 667.797 812.523 507.911C815.652 504.424 817.474 498.919 817.921 491.567C818.367 484.223 817.435 475.096 815.115 464.441C810.474 443.134 800.296 415.801 784.611 384.564C753.242 322.093 699.881 244.074 624.872 167.515C549.87 90.9611 465.27 32.7712 397.265 -3.87249C363.262 -22.1947 333.42 -35.1238 311.011 -42.269C299.805 -45.8423 290.475 -47.9632 283.422 -48.5944C279.895 -48.9101 276.956 -48.8513 274.646 -48.4249C272.327 -47.9971 270.696 -47.2094 269.718 -46.1193Z" stroke="url(#paint38_linear_15878_23933)"/>
<path d="M244.99 -31.9908C112.416 138.23 134.315 390.85 293.887 532.254C453.458 673.657 690.291 650.31 822.865 480.089C825.758 476.374 827.214 470.745 827.177 463.378C827.139 456.018 825.61 446.983 822.595 436.529C816.565 415.622 804.616 389.117 786.917 359.13C751.521 299.158 693.164 225.322 613.309 154.559C533.461 83.8028 445.246 32.0818 375.001 0.613185C339.878 -15.1215 309.26 -25.7874 286.437 -31.2394C275.023 -33.966 265.577 -35.3841 258.5 -35.4864C254.961 -35.5375 252.033 -35.2593 249.756 -34.6611C247.472 -34.061 245.895 -33.153 244.99 -31.9908Z" stroke="url(#paint39_linear_15878_23933)"/>
<path d="M308.77 -12.0001C189.784 169.293 231.116 419.131 401.058 546.033C570.999 672.936 805.225 628.871 924.211 447.577C926.809 443.62 927.826 437.88 927.219 430.541C926.614 423.21 924.392 414.34 920.58 404.186C912.957 383.88 899.003 358.516 879.049 330.185C839.144 273.527 775.286 205.068 690.24 141.56C605.201 78.0583 513.293 34.262 440.858 9.07057C404.639 -3.52539 373.302 -11.4655 350.136 -14.8942C338.551 -16.609 329.028 -17.1925 321.967 -16.6728C318.436 -16.413 315.54 -15.8785 313.317 -15.0823C311.086 -14.2836 309.583 -13.2397 308.77 -12.0001Z" stroke="url(#paint40_linear_15878_23933)"/>
<path d="M277.993 13.3743C176.078 206.146 239.973 450.517 420.662 559.207C601.351 667.896 830.458 599.775 932.374 407.003C934.6 402.793 935.089 396.973 933.817 389.732C932.546 382.498 929.528 373.9 924.809 364.19C915.373 344.77 899.176 320.972 876.736 294.843C831.86 242.589 762.07 181.071 671.643 126.677C581.224 72.2872 485.763 38.2218 411.376 20.6554C374.182 11.872 342.271 7.21661 318.902 6.20461C307.216 5.69847 297.685 6.10452 290.705 7.35323C287.215 7.97771 284.381 8.80978 282.24 9.83273C280.094 10.8587 278.691 12.054 277.993 13.3743Z" stroke="url(#paint41_linear_15878_23933)"/>
<path d="M249.529 41.9806C165.748 244.453 251.718 480.998 441.489 570.342C631.261 659.686 853.037 568.027 936.817 365.554C938.648 361.129 938.601 355.285 936.673 348.212C934.746 341.144 930.954 332.902 925.369 323.73C914.2 305.386 895.902 283.39 871.177 259.724C821.732 212.395 746.643 158.442 651.669 113.729C556.703 69.0192 458.58 45.0617 382.941 35.3287C345.121 30.4621 312.936 29.1535 289.587 30.5807C277.91 31.2944 268.462 32.6914 261.631 34.6612C258.214 35.6463 255.47 36.7696 253.433 38.0108C251.391 39.2555 250.103 40.5918 249.529 41.9806Z" stroke="url(#paint42_linear_15878_23933)"/>
<path d="M228.955 66.6194C160.093 275.396 262.946 504.146 458.618 577.578C654.291 651.011 868.765 541.348 937.627 332.571C939.133 328.007 938.662 322.183 936.227 315.29C933.794 308.403 929.416 300.498 923.184 291.813C910.719 274.446 890.882 254.023 864.517 232.466C811.791 189.355 733.019 141.754 635.09 105.003C537.169 68.255 437.604 52.4575 361.487 48.9884C323.428 47.2538 291.244 48.6021 268.069 51.9496C256.479 53.6238 247.161 55.7954 240.492 58.3223C237.157 59.586 234.503 60.9322 232.562 62.3376C230.615 63.747 229.428 65.186 228.955 66.6194Z" stroke="url(#paint43_linear_15878_23933)"/>
<path d="M212.019 90.1901C156.936 303.573 274.458 524.137 474.442 582.874C674.426 641.61 881.231 516.304 936.314 302.921C937.519 298.255 936.669 292.479 933.79 285.784C930.914 279.093 926.032 271.532 919.248 263.331C905.682 246.93 884.561 228.03 856.854 208.481C801.445 169.386 719.76 127.744 619.672 98.3477C519.593 68.9539 419.24 60.5814 343.081 62.7679C305.001 63.8612 272.983 67.5939 250.083 72.6526C238.63 75.1825 229.476 78.0402 222.988 81.0557C219.744 82.5637 217.184 84.1036 215.339 85.6497C213.489 87.2 212.398 88.7241 212.019 90.1901Z" stroke="url(#paint44_linear_15878_23933)"/>
<path d="M194.608 118.558C155.587 335.936 289.163 545.845 492.886 587.453C696.609 629.061 893.432 486.632 932.452 269.253C933.306 264.499 932.028 258.813 928.66 252.383C925.295 245.957 919.865 238.834 912.492 231.233C897.747 216.034 875.286 198.982 846.211 181.843C788.067 147.566 703.539 112.976 601.579 92.1519C499.628 71.3297 398.968 71.4857 323.213 80.1174C285.335 84.4334 253.697 90.8668 231.245 97.8497C220.017 101.342 211.105 104.966 204.862 108.522C201.741 110.3 199.303 112.052 197.579 113.749C195.851 115.451 194.876 117.063 194.608 118.558Z" stroke="url(#paint45_linear_15878_23933)"/>
<path d="M178.486 150.219C156.797 370.336 306.5 567.475 512.785 590.602C719.071 613.729 903.928 454.098 925.618 233.981C926.092 229.167 924.369 223.615 920.504 217.511C916.643 211.411 910.669 204.802 902.721 197.892C886.827 184.073 863.097 169.104 832.771 154.642C772.123 125.719 685.161 98.8592 581.918 87.2843C478.684 75.7106 378.396 84.924 303.593 100.342C266.191 108.051 235.175 117.308 213.356 126.287C202.444 130.777 193.85 135.19 187.911 139.294C184.942 141.347 182.651 143.312 181.067 145.159C179.48 147.01 178.636 148.705 178.486 150.219Z" stroke="url(#paint46_linear_15878_23933)"/>
<path d="M167.519 176.285C159.69 397.458 321.428 583.467 528.702 591.815C735.975 600.162 910.402 427.692 918.23 206.519C918.402 201.681 916.334 196.265 912.095 190.45C907.859 184.64 901.484 178.472 893.121 172.145C876.395 159.492 851.779 146.25 820.614 133.986C758.287 109.458 669.835 88.8669 566.097 84.689C462.368 80.5114 362.883 96.8641 289.216 117.588C252.382 127.95 222.016 139.401 200.809 149.917C190.203 155.176 181.906 160.193 176.238 164.712C173.403 166.972 171.241 169.096 169.777 171.052C168.309 173.013 167.573 174.764 167.519 176.285Z" stroke="url(#paint47_linear_15878_23933)"/>
<path d="M154.399 215.955C167.031 436.875 345.159 604.987 552.195 591.517C759.232 578.048 916.884 388.09 904.252 167.17C903.975 162.338 901.418 157.166 896.662 151.824C891.911 146.487 884.997 141.019 876.09 135.602C858.277 124.768 832.559 114.176 800.412 105.246C736.123 87.3858 646.2 76.1875 542.58 82.9289C438.97 89.6697 341.479 116.395 270.084 144.758C234.385 158.939 205.224 173.525 185.092 186.218C175.023 192.565 167.229 198.43 162.006 203.523C159.395 206.069 157.439 208.41 156.163 210.51C154.883 212.616 154.312 214.436 154.399 215.955Z" stroke="url(#paint48_linear_15878_23933)"/>
<path d="M146.141 250.801C176.158 469.802 366.916 621.329 572.157 589.322C777.398 557.315 919.503 353.879 889.486 134.878C888.83 130.088 885.873 125.164 880.713 120.269C875.557 115.377 868.237 110.549 858.934 105.95C840.33 96.7534 813.866 88.5084 781.129 82.4951C715.659 70.4695 625.171 67.3829 522.451 83.4019C419.74 99.4195 324.703 134.802 255.798 169.472C221.346 186.808 193.439 203.96 174.379 218.415C164.847 225.644 157.543 232.187 152.741 237.731C150.339 240.503 148.575 243.011 147.469 245.218C146.36 247.431 145.935 249.296 146.141 250.801Z" stroke="url(#paint49_linear_15878_23933)"/>
<path d="M141.057 282.895C186.639 498.815 387.671 634.39 590.029 585.785C792.387 537.181 919.537 322.779 873.955 106.859C872.958 102.137 869.659 97.4681 864.164 93.0065C858.674 88.5482 851.029 84.3295 841.425 80.5007C822.217 72.8437 795.242 66.7748 762.169 63.4412C696.03 56.7746 605.585 61.0556 504.308 85.3814C403.041 109.705 310.809 152.713 244.583 192.886C211.469 212.973 184.869 232.344 166.898 248.308C157.91 256.291 151.096 263.409 146.703 269.327C144.506 272.286 142.927 274.931 141.982 277.221C141.034 279.518 140.744 281.411 141.057 282.895Z" stroke="url(#paint50_linear_15878_23933)"/>
<path d="M829.965 431.122C829.965 209.791 661.763 30.4239 454.342 30.4239C246.921 30.4239 78.7192 209.791 78.7192 431.122C78.7192 435.963 80.9769 441.292 85.4186 446.932C89.8571 452.568 96.4456 458.475 105.027 464.461C122.188 476.431 147.255 488.673 178.832 499.675C241.982 521.676 331.099 538.693 434.911 538.693C538.714 538.693 637.55 518.349 710.431 494.675C746.873 482.838 776.812 470.173 797.632 458.811C808.044 453.129 816.158 447.782 821.662 443.037C824.415 440.665 826.5 438.455 827.894 436.442C829.291 434.424 829.965 432.644 829.965 431.122Z" stroke="url(#paint51_linear_15878_23933)"/>
<path d="M839.135 400.948C823.72 180.23 643.49 14.6873 436.642 31.1245C229.793 47.5618 74.5494 239.763 89.9649 460.481C90.3021 465.309 92.9246 470.444 97.7469 475.717C102.566 480.986 109.547 486.354 118.522 491.643C136.47 502.221 162.319 512.442 194.576 520.911C259.084 537.848 349.14 547.756 452.665 539.529C556.181 531.303 653.327 503.182 724.358 473.798C759.874 459.106 788.849 444.103 808.82 431.123C818.807 424.632 826.527 418.656 831.685 413.489C834.265 410.905 836.19 408.536 837.44 406.418C838.693 404.294 839.241 402.466 839.135 400.948Z" stroke="url(#paint52_linear_15878_23933)"/>
<path d="M845.663 372.782C816.217 153.693 625.854 1.60127 420.531 32.9993C215.208 64.3974 72.5725 267.412 102.019 486.5C102.663 491.292 105.606 496.225 110.753 501.136C115.897 506.043 123.204 510.893 132.495 515.519C151.075 524.771 177.517 533.094 210.239 539.204C275.677 551.424 366.156 554.779 468.918 539.065C571.67 523.352 666.799 488.252 735.794 453.786C770.292 436.552 798.243 419.483 817.341 405.085C826.891 397.884 834.212 391.363 839.029 385.833C841.438 383.068 843.209 380.565 844.32 378.361C845.435 376.152 845.865 374.289 845.663 372.782Z" stroke="url(#paint53_linear_15878_23933)"/>
<path d="M850.182 345.658C807.544 129.054 608.378 -9.61946 405.38 35.8462C202.383 81.3119 72.3275 293.722 114.966 510.325C115.898 515.062 119.134 519.782 124.567 524.328C129.997 528.871 137.583 533.208 147.134 537.185C166.235 545.138 193.126 551.624 226.149 555.47C292.19 563.16 382.684 560.28 484.281 537.525C585.869 514.772 678.677 473.198 745.442 434.054C778.826 414.482 805.686 395.525 823.873 379.841C832.968 371.998 839.88 364.987 844.352 359.137C846.589 356.212 848.204 353.592 849.18 351.317C850.159 349.035 850.475 347.146 850.182 345.658Z" stroke="url(#paint54_linear_15878_23933)"/>
<path d="M852.926 319.974C798.066 106.525 591.392 -19.0271 391.347 39.4714C191.302 97.9699 73.5488 318.393 128.409 531.842C129.608 536.509 133.105 541.011 138.787 545.198C144.464 549.382 152.283 553.22 162.042 556.573C181.56 563.278 208.77 568.015 241.951 569.719C308.308 573.128 398.472 564.407 498.591 535.13C598.7 505.855 688.977 458.36 753.398 414.974C785.608 393.281 811.343 372.623 828.606 355.794C837.239 347.377 843.74 339.932 847.872 333.804C849.938 330.74 851.402 328.021 852.247 325.686C853.094 323.345 853.303 321.441 852.926 319.974Z" stroke="url(#paint55_linear_15878_23933)"/>
<path d="M854.273 290.151C785.551 81.3212 571.15 -28.5044 375.428 44.779C179.707 118.062 76.7007 346.733 145.423 555.563C146.926 560.128 150.709 564.357 156.651 568.11C162.589 571.86 170.64 575.106 180.596 577.722C200.506 582.954 227.96 585.649 261.171 584.874C327.59 583.323 416.962 567.895 514.916 531.218C612.86 494.545 699.801 440.43 761.219 392.344C791.928 368.3 816.245 345.772 832.362 327.696C840.423 318.656 846.419 310.743 850.139 304.322C851.999 301.111 853.281 298.289 853.971 295.898C854.663 293.499 854.745 291.584 854.273 290.151Z" stroke="url(#paint56_linear_15878_23933)"/>
<path d="M853.817 263.405C772.964 59.5819 552.535 -35.7017 361.5 50.5195C170.464 136.741 81.0946 371.848 161.948 575.671C163.715 580.125 167.738 584.093 173.889 587.442C180.036 590.787 188.261 593.489 198.351 595.434C218.53 599.326 246.088 600.18 279.189 597.187C345.387 591.2 433.677 569.829 529.285 526.679C624.883 483.531 708.475 423.712 766.948 371.615C796.184 345.566 819.131 321.457 834.154 302.339C841.668 292.778 847.188 284.481 850.523 277.823C852.191 274.494 853.305 271.592 853.853 269.159C854.403 266.719 854.372 264.803 853.817 263.405Z" stroke="url(#paint57_linear_15878_23933)"/>
<path d="M850.933 229.239C754.992 33.0077 528.1 -43.0824 344.172 59.2331C160.243 161.549 88.8742 403.555 184.815 599.787C186.911 604.074 191.219 607.684 197.603 610.494C203.981 613.302 212.384 615.29 222.588 616.365C242.995 618.514 270.529 617.005 303.298 611.184C368.831 599.544 455.227 570.676 547.276 519.471C639.316 468.271 718.133 401.481 772.493 344.542C799.674 316.072 820.73 290.074 834.265 269.73C841.034 259.556 845.911 250.812 848.735 243.89C850.147 240.429 851.038 237.441 851.401 234.969C851.766 232.49 851.591 230.584 850.933 229.239Z" stroke="url(#paint58_linear_15878_23933)"/>
<path d="M845.399 194.962C734.794 7.72399 502.846 -48.4032 327.338 69.557C151.83 187.517 99.184 434.922 209.789 622.16C212.204 626.249 216.773 629.472 223.35 631.719C229.921 633.963 238.448 635.214 248.701 635.399C269.204 635.768 296.531 631.871 328.747 623.222C393.174 605.927 477.08 569.647 564.913 510.614C652.738 451.586 726.192 378.169 776.024 316.695C800.94 285.958 819.941 258.217 831.878 236.764C837.848 226.035 842.041 216.897 844.327 209.752C845.47 206.18 846.13 203.124 846.303 200.629C846.476 198.127 846.156 196.244 845.399 194.962Z" stroke="url(#paint59_linear_15878_23933)"/>
<path d="M838.507 165.781C715.807 -12.6711 480.727 -51.2235 313.447 79.6425C146.166 210.509 110.004 461.257 232.705 639.709C235.383 643.604 240.152 646.476 246.861 648.222C253.565 649.967 262.153 650.574 272.392 649.987C292.869 648.814 319.872 642.872 351.436 631.822C414.561 609.725 495.86 567.227 579.574 501.737C663.281 436.252 731.702 357.494 777.347 292.426C800.17 259.891 817.291 230.79 827.78 208.493C833.026 197.342 836.605 187.911 838.413 180.612C839.317 176.962 839.774 173.865 839.782 171.363C839.789 168.854 839.346 167.001 838.507 165.781Z" stroke="url(#paint60_linear_15878_23933)"/>
<path d="M829.374 136.243C694.813 -32.1949 457.726 -52.3795 299.825 91.1433C141.924 234.666 122.991 487.559 257.551 655.996C260.487 659.671 265.438 662.164 272.249 663.385C279.053 664.604 287.66 664.542 297.833 663.161C318.176 660.399 344.701 652.374 375.427 638.9C436.875 611.956 515.056 563.252 594.074 491.429C673.086 419.612 735.946 335.745 777.025 267.303C797.565 233.08 812.653 202.726 821.592 179.672C826.062 168.143 828.987 158.458 830.292 151.038C830.945 147.328 831.188 144.203 831.025 141.708C830.861 139.204 830.292 137.392 829.374 136.243Z" stroke="url(#paint61_linear_15878_23933)"/>
<path d="M818.9 109.021C673.78 -49.1194 435.952 -51.8311 287.696 102.962C139.441 257.756 136.897 511.439 282.017 669.58C285.182 673.029 290.281 675.152 297.155 675.869C304.022 676.585 312.604 675.89 322.663 673.764C342.78 669.513 368.724 659.557 398.507 643.857C458.068 612.459 532.917 558.123 607.107 480.661C681.291 403.206 738.583 314.917 775.142 243.616C793.423 207.965 806.513 176.574 813.941 152.918C817.656 141.087 819.949 131.21 820.771 123.712C821.182 119.962 821.223 116.827 820.899 114.349C820.574 111.864 819.89 110.099 818.9 109.021Z" stroke="url(#paint62_linear_15878_23933)"/>
<path d="M807.147 83.5437C652.491 -63.9468 415.02 -49.7828 276.742 115.191C138.464 280.164 151.75 533.466 306.406 680.956C309.778 684.172 314.996 685.929 321.899 686.156C328.796 686.383 337.316 685.081 347.221 682.246C367.028 676.578 392.294 664.803 421.032 647.024C478.504 611.469 549.799 551.942 618.995 469.388C688.185 386.84 739.845 294.681 771.877 220.944C787.894 184.075 798.999 151.824 804.935 127.692C807.904 115.624 809.575 105.606 809.928 98.0661C810.105 94.2952 809.95 91.1643 809.472 88.7156C808.993 86.2586 808.2 84.5478 807.147 83.5437Z" stroke="url(#paint63_linear_15878_23933)"/>
<path d="M794.982 60.9368C632.173 -76.2011 395.956 -46.599 267.379 127.078C138.801 300.755 166.568 552.718 329.376 689.856C332.923 692.844 338.231 694.258 345.135 694.035C352.032 693.812 360.462 691.958 370.186 688.483C389.632 681.535 414.176 668.136 441.843 648.518C497.173 609.286 564.927 545.225 629.268 458.317C693.604 371.416 739.891 276.063 767.642 200.377C781.518 162.533 790.755 129.618 795.299 105.145C797.572 92.9062 798.667 82.7978 798.587 75.2485C798.547 71.473 798.214 68.3581 797.597 65.9453C796.978 63.524 796.089 61.8692 794.982 60.9368Z" stroke="url(#paint64_linear_15878_23933)"/>
<path d="M225.495 -65.295C106.509 115.998 147.842 365.836 317.783 492.739C487.724 619.641 721.951 575.576 840.937 394.282C843.535 390.325 844.551 384.585 843.945 377.246C843.339 369.915 841.118 361.045 837.306 350.891C829.683 330.585 815.729 305.221 795.775 276.89C755.869 220.232 692.011 151.773 606.965 88.2654C521.927 24.7633 430.018 -19.0329 357.583 -44.2244C321.365 -56.8203 290.028 -64.7605 266.862 -68.1892C255.276 -69.9039 245.753 -70.4874 238.693 -69.9678C235.162 -69.7079 232.266 -69.1734 230.042 -68.3772C227.812 -67.5785 226.309 -66.5346 225.495 -65.295Z" stroke="url(#paint65_linear_15878_23933)"/>
<path d="M194.719 -39.9206C92.8036 152.851 156.699 397.222 337.388 505.912C518.077 614.601 747.184 546.48 849.1 353.708C851.326 349.498 851.815 343.678 850.543 336.437C849.273 329.203 846.254 320.605 841.535 310.895C832.099 291.475 815.902 267.677 793.462 241.548C748.586 189.294 678.796 127.776 588.369 73.3817C497.95 18.9922 402.489 -15.0731 328.102 -32.6395C290.908 -41.4229 258.997 -46.0783 235.628 -47.0903C223.942 -47.5965 214.411 -47.1904 207.431 -45.9417C203.941 -45.3172 201.107 -44.4851 198.967 -43.4622C196.82 -42.4362 195.417 -41.2409 194.719 -39.9206Z" stroke="url(#paint66_linear_15878_23933)"/>
<path d="M166.253 -11.3143C82.4729 191.158 168.443 427.703 358.214 517.047C547.985 606.391 769.762 514.732 853.542 312.259C855.373 307.834 855.326 301.99 853.397 294.917C851.47 287.849 847.679 279.607 842.094 270.435C830.925 252.091 812.626 230.095 787.902 206.429C738.456 159.1 663.368 105.147 568.394 60.4338C473.428 15.7242 375.304 -8.23319 299.666 -17.9662C261.846 -22.8329 229.661 -24.1415 206.312 -22.7143C194.635 -22.0005 185.187 -20.6035 178.355 -18.6337C174.939 -17.6487 172.195 -16.5253 170.158 -15.2842C168.115 -14.0394 166.828 -12.7031 166.253 -11.3143Z" stroke="url(#paint67_linear_15878_23933)"/>
<path d="M145.681 13.324C76.8187 222.101 179.672 450.851 375.344 524.283C571.017 597.715 785.491 488.053 854.353 279.276C855.859 274.712 855.388 268.888 852.953 261.995C850.52 255.107 846.142 247.203 839.91 238.518C827.445 221.15 807.608 200.728 781.243 179.171C728.517 136.06 649.745 88.4583 551.816 51.7072C453.896 14.9596 354.33 -0.837932 278.213 -4.307C240.154 -6.04158 207.97 -4.6933 184.795 -1.34576C173.205 0.328371 163.887 2.49995 157.218 5.02693C153.883 6.2906 151.229 7.63681 149.288 9.04222C147.341 10.4516 146.154 11.8906 145.681 13.324Z" stroke="url(#paint68_linear_15878_23933)"/>
<path d="M128.745 36.8942C73.6624 250.278 191.184 470.841 391.168 529.578C591.152 588.315 797.958 463.008 853.041 249.625C854.245 244.959 853.395 239.183 850.516 232.488C847.64 225.797 842.758 218.237 835.974 210.036C822.408 193.635 801.287 174.734 773.58 155.185C718.171 116.09 636.486 74.4484 536.398 45.0518C436.319 15.658 335.966 7.28554 259.807 9.472C221.727 10.5653 189.709 14.298 166.809 19.3567C155.356 21.8867 146.202 24.7443 139.714 27.7598C136.47 29.2678 133.91 30.8077 132.065 32.3538C130.215 33.9041 129.124 35.4282 128.745 36.8942Z" stroke="url(#paint69_linear_15878_23933)"/>
<path d="M111.333 65.262C72.312 282.641 205.888 492.55 409.611 534.157C613.334 575.765 810.157 433.336 849.177 215.958C850.031 211.204 848.753 205.517 845.385 199.087C842.02 192.661 836.59 185.538 829.217 177.938C814.472 162.738 792.011 145.686 762.936 128.547C704.792 94.27 620.264 59.6801 518.304 38.856C416.353 18.0338 315.693 18.1898 239.938 26.8215C202.06 31.1375 170.422 37.5709 147.97 44.5538C136.742 48.046 127.83 51.6701 121.587 55.2257C118.466 57.0037 116.028 58.7557 114.304 60.4533C112.576 62.1554 111.601 63.7676 111.333 65.262Z" stroke="url(#paint70_linear_15878_23933)"/>
<path d="M95.2124 96.9234C73.523 317.04 223.226 514.18 429.511 537.307C635.797 560.434 820.654 400.803 842.344 180.686C842.818 175.871 841.095 170.32 837.23 164.215C833.369 158.115 827.395 151.506 819.447 144.596C803.553 130.778 779.823 115.808 749.497 101.346C688.849 72.424 601.887 45.5637 498.644 33.9889C395.41 22.4152 295.122 31.6286 220.319 47.0464C182.917 54.7555 151.901 64.0129 130.082 72.9912C119.17 77.4813 110.576 81.8944 104.637 85.999C101.668 88.0516 99.3769 90.0167 97.7935 91.8634C96.2058 93.715 95.3616 95.4095 95.2124 96.9234Z" stroke="url(#paint71_linear_15878_23933)"/>
<path d="M84.2453 122.99C76.4165 344.163 238.154 530.172 445.428 538.52C652.701 546.867 827.128 374.397 834.957 153.224C835.128 148.386 833.06 142.97 828.821 137.155C824.585 131.345 818.21 125.177 809.847 118.85C793.121 106.197 768.506 92.9555 737.34 80.6909C675.013 56.1635 586.561 35.572 482.823 31.3941C379.094 27.2165 279.609 43.5692 205.942 64.2929C169.108 74.6549 138.742 86.106 117.535 96.6218C106.929 101.881 98.6316 106.898 92.9638 111.417C90.1294 113.677 87.9673 115.801 86.5032 117.757C85.0352 119.718 84.2992 121.469 84.2453 122.99Z" stroke="url(#paint72_linear_15878_23933)"/>
<path d="M71.1246 162.66C83.757 383.58 261.884 551.692 468.921 538.222C675.957 524.753 833.61 334.795 820.977 113.875C820.701 109.043 818.143 103.871 813.388 98.5293C808.636 93.192 801.723 87.724 792.816 82.3066C775.003 71.4726 749.284 60.8815 717.137 51.9508C652.849 34.0909 562.926 22.8926 459.306 29.634C355.696 36.3748 258.204 63.1002 186.809 91.4627C151.111 105.644 121.95 120.23 101.817 132.923C91.749 139.271 83.9549 145.135 78.7319 150.228C76.1201 152.774 74.1646 155.115 72.8882 157.215C71.6085 159.321 71.0377 161.141 71.1246 162.66Z" stroke="url(#paint73_linear_15878_23933)"/>
<path d="M62.8672 197.506C92.8843 416.506 283.642 568.033 488.883 536.026C694.124 504.019 836.229 300.583 806.212 81.5823C805.556 76.7924 802.599 71.8681 797.439 66.9726C792.283 62.0807 784.963 57.2527 775.66 52.6541C757.056 43.4575 730.592 35.2125 697.855 29.1992C632.385 17.1736 541.897 14.087 439.177 30.106C336.466 46.1236 241.429 81.5057 172.525 116.177C138.072 133.512 110.165 150.664 91.105 165.119C81.573 172.348 74.2692 178.891 69.4666 184.435C67.0649 187.207 65.301 189.715 64.1949 191.922C63.0859 194.135 62.6608 196 62.8672 197.506Z" stroke="url(#paint74_linear_15878_23933)"/>
<path d="M57.7828 229.599C103.365 445.519 304.397 581.094 506.755 532.489C709.113 483.885 836.263 269.483 790.681 53.5632C789.684 48.8415 786.385 44.1722 780.89 39.7106C775.399 35.2523 767.755 31.0336 758.151 27.2048C738.943 19.5478 711.967 13.4789 678.895 10.1453C612.756 3.47874 522.311 7.75968 421.034 32.0855C319.766 56.4091 227.534 99.4168 161.308 139.59C128.195 159.677 101.595 179.049 83.6236 195.012C74.6361 202.995 67.8211 210.113 63.4286 216.031C61.2321 218.99 59.6526 221.635 58.7075 223.925C57.7598 226.222 57.4695 228.115 57.7828 229.599Z" stroke="url(#paint75_linear_15878_23933)"/>
<path d="M46.3462 323.689C111.611 533.778 324.166 647.613 521.066 578.017C717.966 508.422 824.732 281.722 759.467 71.6328C758.04 67.0399 754.328 62.7399 748.448 58.8761C742.573 55.0154 734.577 51.6189 724.666 48.8161C704.845 43.2108 677.44 40.0006 644.221 40.1521C577.787 40.4551 488.175 54.202 389.631 89.0328C291.096 123.86 203.275 176.334 141.073 223.259C109.972 246.722 85.2864 268.79 68.8736 286.561C60.6654 295.448 54.5396 303.247 50.7139 309.597C48.8008 312.772 47.4728 315.57 46.7435 317.948C46.0121 320.333 45.898 322.246 46.3462 323.689Z" stroke="url(#paint76_linear_15878_23933)"/>
<path d="M47.2708 368.645C132.901 570.235 355.505 659.58 544.45 568.263C733.395 476.947 817.195 239.518 731.565 37.9278C729.694 33.5226 725.579 29.6639 719.35 26.4816C713.127 23.3019 704.84 20.8219 694.707 19.1473C674.443 15.7982 646.874 15.6825 613.853 19.5626C547.818 27.3221 460.059 51.0533 365.498 96.754C270.946 142.451 188.79 204.492 131.564 258.141C102.95 284.965 80.5788 309.682 66.0104 329.197C58.7246 338.956 53.4022 347.399 50.2242 354.144C48.635 357.517 47.5905 360.447 47.0999 362.894C46.6079 365.348 46.6836 367.262 47.2708 368.645Z" stroke="url(#paint77_linear_15878_23933)"/>
<path d="M53.9597 420.678C162.156 609.512 393.364 669.014 570.366 553.623C747.368 438.232 803.179 191.618 694.982 2.78455C692.619 -1.33936 688.093 -4.62903 681.545 -6.97103C675.003 -9.311 666.493 -10.6863 656.244 -11.0203C635.747 -11.6883 608.372 -8.18999 576.049 -0.0118002C511.406 16.3433 427.044 51.3962 338.463 109.144C249.89 166.886 175.502 239.225 124.888 299.967C99.5804 330.339 80.2255 357.8 68.015 379.077C61.9085 389.717 57.5987 398.794 55.2216 405.905C54.0329 409.46 53.3339 412.506 53.1288 414.998C52.9232 417.498 53.219 419.386 53.9597 420.678Z" stroke="url(#paint78_linear_15878_23933)"/>
<path d="M62.9418 459.116C187.086 636.427 422.47 672.806 588.682 540.399C754.894 407.992 789.018 156.919 664.873 -20.3924C662.163 -24.2626 657.372 -27.09 650.648 -28.7742C643.931 -30.4569 635.338 -30.9844 625.104 -30.3031C604.637 -28.9406 577.684 -22.7493 546.21 -11.4086C483.268 11.2709 402.316 54.5185 319.137 120.78C235.965 187.036 168.187 266.423 123.071 331.911C100.513 364.655 83.6293 393.913 73.3212 416.306C68.166 427.505 64.6639 436.97 62.9152 444.285C62.0408 447.943 61.6095 451.044 61.6221 453.546C61.6347 456.055 62.0934 457.904 62.9418 459.116Z" stroke="url(#paint79_linear_15878_23933)"/>
<defs>
<linearGradient id="paint0_linear_15878_23933" x1="537.614" y1="592.49" x2="537.614" y2="83.2203" gradientUnits="userSpaceOnUse">
<stop stop-color="white"/>
<stop offset="1" stop-color="white" stop-opacity="0"/>
</linearGradient>
<linearGradient id="paint1_linear_15878_23933" x1="555.348" y1="591.783" x2="515.021" y2="84.3071" gradientUnits="userSpaceOnUse">
<stop stop-color="white"/>
<stop offset="1" stop-color="white" stop-opacity="0"/>
</linearGradient>
<linearGradient id="paint2_linear_15878_23933" x1="571.491" y1="589.915" x2="494.615" y2="87.1945" gradientUnits="userSpaceOnUse">
<stop stop-color="white"/>
<stop offset="1" stop-color="white" stop-opacity="0"/>
</linearGradient>
<linearGradient id="paint3_linear_15878_23933" x1="586.668" y1="587.052" x2="475.686" y2="91.5339" gradientUnits="userSpaceOnUse">
<stop stop-color="white"/>
<stop offset="1" stop-color="white" stop-opacity="0"/>
</linearGradient>
<linearGradient id="paint4_linear_15878_23933" x1="600.729" y1="583.43" x2="458.475" y2="96.9688" gradientUnits="userSpaceOnUse">
<stop stop-color="white"/>
<stop offset="1" stop-color="white" stop-opacity="0"/>
</linearGradient>
<linearGradient id="paint5_linear_15878_23933" x1="616.686" y1="578.123" x2="439.444" y2="104.754" gradientUnits="userSpaceOnUse">
<stop stop-color="white"/>
<stop offset="1" stop-color="white" stop-opacity="0"/>
</linearGradient>
<linearGradient id="paint6_linear_15878_23933" x1="630.644" y1="572.363" x2="423.3" y2="112.962" gradientUnits="userSpaceOnUse">
<stop stop-color="white"/>
<stop offset="1" stop-color="white" stop-opacity="0"/>
</linearGradient>
<linearGradient id="paint7_linear_15878_23933" x1="648.005" y1="563.633" x2="404.004" y2="125.002" gradientUnits="userSpaceOnUse">
<stop stop-color="white"/>
<stop offset="1" stop-color="white" stop-opacity="0"/>
</linearGradient>
<linearGradient id="paint8_linear_15878_23933" x1="664.88" y1="553.292" x2="386.202" y2="138.658" gradientUnits="userSpaceOnUse">
<stop stop-color="white"/>
<stop offset="1" stop-color="white" stop-opacity="0"/>
</linearGradient>
<linearGradient id="paint9_linear_15878_23933" x1="678.8" y1="543.186" x2="372.304" y2="151.405" gradientUnits="userSpaceOnUse">
<stop stop-color="white"/>
<stop offset="1" stop-color="white" stop-opacity="0"/>
</linearGradient>
<linearGradient id="paint10_linear_15878_23933" x1="692.451" y1="531.673" x2="359.425" y2="165.284" gradientUnits="userSpaceOnUse">
<stop stop-color="white"/>
<stop offset="1" stop-color="white" stop-opacity="0"/>
</linearGradient>
<linearGradient id="paint11_linear_15878_23933" x1="704.605" y1="519.826" x2="348.618" y2="178.875" gradientUnits="userSpaceOnUse">
<stop stop-color="white"/>
<stop offset="1" stop-color="white" stop-opacity="0"/>
</linearGradient>
<linearGradient id="paint12_linear_15878_23933" x1="715.583" y1="507.577" x2="339.42" y2="192.284" gradientUnits="userSpaceOnUse">
<stop stop-color="white"/>
<stop offset="1" stop-color="white" stop-opacity="0"/>
</linearGradient>
<linearGradient id="paint13_linear_15878_23933" x1="725.039" y1="495.669" x2="332.065" y2="204.739" gradientUnits="userSpaceOnUse">
<stop stop-color="white"/>
<stop offset="1" stop-color="white" stop-opacity="0"/>
</linearGradient>
<linearGradient id="paint14_linear_15878_23933" x1="642.023" y1="482.2" x2="233.973" y2="216.087" gradientUnits="userSpaceOnUse">
<stop stop-color="white"/>
<stop offset="1" stop-color="white" stop-opacity="0"/>
</linearGradient>
<linearGradient id="paint15_linear_15878_23933" x1="649.844" y1="469.402" x2="228.423" y2="228.373" gradientUnits="userSpaceOnUse">
<stop stop-color="white"/>
<stop offset="1" stop-color="white" stop-opacity="0"/>
</linearGradient>
<linearGradient id="paint16_linear_15878_23933" x1="655.739" y1="458.499" x2="224.438" y2="238.467" gradientUnits="userSpaceOnUse">
<stop stop-color="white"/>
<stop offset="1" stop-color="white" stop-opacity="0"/>
</linearGradient>
<linearGradient id="paint17_linear_15878_23933" x1="660.588" y1="448.62" x2="221.405" y2="247.326" gradientUnits="userSpaceOnUse">
<stop stop-color="white"/>
<stop offset="1" stop-color="white" stop-opacity="0"/>
</linearGradient>
<linearGradient id="paint18_linear_15878_23933" x1="665.146" y1="438.079" x2="218.548" y2="256.553" gradientUnits="userSpaceOnUse">
<stop stop-color="white"/>
<stop offset="1" stop-color="white" stop-opacity="0"/>
</linearGradient>
<linearGradient id="paint19_linear_15878_23933" x1="669.314" y1="427.129" x2="216.027" y2="265.859" gradientUnits="userSpaceOnUse">
<stop stop-color="white"/>
<stop offset="1" stop-color="white" stop-opacity="0"/>
</linearGradient>
<linearGradient id="paint20_linear_15878_23933" x1="674.294" y1="411.66" x2="213.129" y2="278.663" gradientUnits="userSpaceOnUse">
<stop stop-color="white"/>
<stop offset="1" stop-color="white" stop-opacity="0"/>
</linearGradient>
<linearGradient id="paint21_linear_15878_23933" x1="678.338" y1="395.842" x2="210.869" y2="291.359" gradientUnits="userSpaceOnUse">
<stop stop-color="white"/>
<stop offset="1" stop-color="white" stop-opacity="0"/>
</linearGradient>
<linearGradient id="paint22_linear_15878_23933" x1="680.469" y1="385.322" x2="209.712" y2="299.623" gradientUnits="userSpaceOnUse">
<stop stop-color="white"/>
<stop offset="1" stop-color="white" stop-opacity="0"/>
</linearGradient>
<linearGradient id="paint23_linear_15878_23933" x1="682.465" y1="372.655" x2="208.647" y2="309.455" gradientUnits="userSpaceOnUse">
<stop stop-color="white"/>
<stop offset="1" stop-color="white" stop-opacity="0"/>
</linearGradient>
<linearGradient id="paint24_linear_15878_23933" x1="684.06" y1="357.426" x2="207.812" y2="321.113" gradientUnits="userSpaceOnUse">
<stop stop-color="white"/>
<stop offset="1" stop-color="white" stop-opacity="0"/>
</linearGradient>
<linearGradient id="paint25_linear_15878_23933" x1="684.755" y1="343.802" x2="207.452" y2="331.479" gradientUnits="userSpaceOnUse">
<stop stop-color="white"/>
<stop offset="1" stop-color="white" stop-opacity="0"/>
</linearGradient>
<linearGradient id="paint26_linear_15878_23933" x1="684.711" y1="328.249" x2="207.475" y2="343.259" gradientUnits="userSpaceOnUse">
<stop stop-color="white"/>
<stop offset="1" stop-color="white" stop-opacity="0"/>
</linearGradient>
<linearGradient id="paint27_linear_15878_23933" x1="683.733" y1="312.232" x2="207.982" y2="355.448" gradientUnits="userSpaceOnUse">
<stop stop-color="white"/>
<stop offset="1" stop-color="white" stop-opacity="0"/>
</linearGradient>
<linearGradient id="paint28_linear_15878_23933" x1="681.783" y1="296.126" x2="209.009" y2="367.819" gradientUnits="userSpaceOnUse">
<stop stop-color="white"/>
<stop offset="1" stop-color="white" stop-opacity="0"/>
</linearGradient>
<linearGradient id="paint29_linear_15878_23933" x1="678.929" y1="280.451" x2="210.546" y2="380.078" gradientUnits="userSpaceOnUse">
<stop stop-color="white"/>
<stop offset="1" stop-color="white" stop-opacity="0"/>
</linearGradient>
<linearGradient id="paint30_linear_15878_23933" x1="675.08" y1="264.701" x2="212.684" y2="392.655" gradientUnits="userSpaceOnUse">
<stop stop-color="white"/>
<stop offset="1" stop-color="white" stop-opacity="0"/>
</linearGradient>
<linearGradient id="paint31_linear_15878_23933" x1="669.857" y1="247.977" x2="215.705" y2="406.418" gradientUnits="userSpaceOnUse">
<stop stop-color="white"/>
<stop offset="1" stop-color="white" stop-opacity="0"/>
</linearGradient>
<linearGradient id="paint32_linear_15878_23933" x1="665.017" y1="235.187" x2="218.626" y2="417.302" gradientUnits="userSpaceOnUse">
<stop stop-color="white"/>
<stop offset="1" stop-color="white" stop-opacity="0"/>
</linearGradient>
<linearGradient id="paint33_linear_15878_23933" x1="658.805" y1="221.133" x2="222.551" y2="429.63" gradientUnits="userSpaceOnUse">
<stop stop-color="white"/>
<stop offset="1" stop-color="white" stop-opacity="0"/>
</linearGradient>
<linearGradient id="paint34_linear_15878_23933" x1="651.929" y1="207.761" x2="227.113" y2="441.845" gradientUnits="userSpaceOnUse">
<stop stop-color="white"/>
<stop offset="1" stop-color="white" stop-opacity="0"/>
</linearGradient>
<linearGradient id="paint35_linear_15878_23933" x1="643.467" y1="193.508" x2="233.048" y2="455.411" gradientUnits="userSpaceOnUse">
<stop stop-color="white"/>
<stop offset="1" stop-color="white" stop-opacity="0"/>
</linearGradient>
<linearGradient id="paint36_linear_15878_23933" x1="634.596" y1="180.509" x2="239.64" y2="468.351" gradientUnits="userSpaceOnUse">
<stop stop-color="white"/>
<stop offset="1" stop-color="white" stop-opacity="0"/>
</linearGradient>
<linearGradient id="paint37_linear_15878_23933" x1="624.116" y1="167.102" x2="247.904" y2="482.331" gradientUnits="userSpaceOnUse">
<stop stop-color="white"/>
<stop offset="1" stop-color="white" stop-opacity="0"/>
</linearGradient>
<linearGradient id="paint38_linear_15878_23933" x1="611.167" y1="152.813" x2="258.81" y2="498.031" gradientUnits="userSpaceOnUse">
<stop stop-color="white"/>
<stop offset="1" stop-color="white" stop-opacity="0"/>
</linearGradient>
<linearGradient id="paint39_linear_15878_23933" x1="598.671" y1="140.921" x2="270.034" y2="511.783" gradientUnits="userSpaceOnUse">
<stop stop-color="white"/>
<stop offset="1" stop-color="white" stop-opacity="0"/>
</linearGradient>
<linearGradient id="paint40_linear_15878_23933" x1="674.596" y1="129.256" x2="376.564" y2="528.365" gradientUnits="userSpaceOnUse">
<stop stop-color="white"/>
<stop offset="1" stop-color="white" stop-opacity="0"/>
</linearGradient>
<linearGradient id="paint41_linear_15878_23933" x1="654.952" y1="116.054" x2="396.702" y2="545.376" gradientUnits="userSpaceOnUse">
<stop stop-color="white"/>
<stop offset="1" stop-color="white" stop-opacity="0"/>
</linearGradient>
<linearGradient id="paint42_linear_15878_23933" x1="634.084" y1="104.898" x2="419.556" y2="560.568" gradientUnits="userSpaceOnUse">
<stop stop-color="white"/>
<stop offset="1" stop-color="white" stop-opacity="0"/>
</linearGradient>
<linearGradient id="paint43_linear_15878_23933" x1="616.917" y1="97.6491" x2="439.325" y2="570.872" gradientUnits="userSpaceOnUse">
<stop stop-color="white"/>
<stop offset="1" stop-color="white" stop-opacity="0"/>
</linearGradient>
<linearGradient id="paint44_linear_15878_23933" x1="601.064" y1="92.3614" x2="458.241" y2="578.636" gradientUnits="userSpaceOnUse">
<stop stop-color="white"/>
<stop offset="1" stop-color="white" stop-opacity="0"/>
</linearGradient>
<linearGradient id="paint45_linear_15878_23933" x1="582.583" y1="87.7621" x2="480.922" y2="585.52" gradientUnits="userSpaceOnUse">
<stop stop-color="white"/>
<stop offset="1" stop-color="white" stop-opacity="0"/>
</linearGradient>
<linearGradient id="paint46_linear_15878_23933" x1="562.643" y1="84.6203" x2="505.946" y2="590.339" gradientUnits="userSpaceOnUse">
<stop stop-color="white"/>
<stop offset="1" stop-color="white" stop-opacity="0"/>
</linearGradient>
<linearGradient id="paint47_linear_15878_23933" x1="546.698" y1="83.4073" x2="526.206" y2="592.214" gradientUnits="userSpaceOnUse">
<stop stop-color="white"/>
<stop offset="1" stop-color="white" stop-opacity="0"/>
</linearGradient>
<linearGradient id="paint48_linear_15878_23933" x1="523.157" y1="83.6915" x2="556.212" y2="591.757" gradientUnits="userSpaceOnUse">
<stop stop-color="white"/>
<stop offset="1" stop-color="white" stop-opacity="0"/>
</linearGradient>
<linearGradient id="paint49_linear_15878_23933" x1="503.157" y1="85.9049" x2="581.515" y2="588.369" gradientUnits="userSpaceOnUse">
<stop stop-color="white"/>
<stop offset="1" stop-color="white" stop-opacity="0"/>
</linearGradient>
<linearGradient id="paint50_linear_15878_23933" x1="485.249" y1="89.4453" x2="603.795" y2="582.993" gradientUnits="userSpaceOnUse">
<stop stop-color="white"/>
<stop offset="1" stop-color="white" stop-opacity="0"/>
</linearGradient>
<linearGradient id="paint51_linear_15878_23933" x1="454.342" y1="539.193" x2="454.342" y2="29.9239" gradientUnits="userSpaceOnUse">
<stop stop-color="white"/>
<stop offset="1" stop-color="white" stop-opacity="0"/>
</linearGradient>
<linearGradient id="paint52_linear_15878_23933" x1="472.077" y1="538.488" x2="431.75" y2="31.0117" gradientUnits="userSpaceOnUse">
<stop stop-color="white"/>
<stop offset="1" stop-color="white" stop-opacity="0"/>
</linearGradient>
<linearGradient id="paint53_linear_15878_23933" x1="488.219" y1="536.619" x2="411.343" y2="33.8986" gradientUnits="userSpaceOnUse">
<stop stop-color="white"/>
<stop offset="1" stop-color="white" stop-opacity="0"/>
</linearGradient>
<linearGradient id="paint54_linear_15878_23933" x1="503.394" y1="533.757" x2="392.412" y2="38.2385" gradientUnits="userSpaceOnUse">
<stop stop-color="white"/>
<stop offset="1" stop-color="white" stop-opacity="0"/>
</linearGradient>
<linearGradient id="paint55_linear_15878_23933" x1="517.455" y1="530.134" x2="375.2" y2="43.6724" gradientUnits="userSpaceOnUse">
<stop stop-color="white"/>
<stop offset="1" stop-color="white" stop-opacity="0"/>
</linearGradient>
<linearGradient id="paint56_linear_15878_23933" x1="533.406" y1="524.829" x2="356.164" y2="51.4587" gradientUnits="userSpaceOnUse">
<stop stop-color="white"/>
<stop offset="1" stop-color="white" stop-opacity="0"/>
</linearGradient>
<linearGradient id="paint57_linear_15878_23933" x1="547.364" y1="519.067" x2="340.02" y2="59.6661" gradientUnits="userSpaceOnUse">
<stop stop-color="white"/>
<stop offset="1" stop-color="white" stop-opacity="0"/>
</linearGradient>
<linearGradient id="paint58_linear_15878_23933" x1="564.724" y1="510.337" x2="320.723" y2="71.7059" gradientUnits="userSpaceOnUse">
<stop stop-color="white"/>
<stop offset="1" stop-color="white" stop-opacity="0"/>
</linearGradient>
<linearGradient id="paint59_linear_15878_23933" x1="581.606" y1="499.996" x2="302.928" y2="85.3618" gradientUnits="userSpaceOnUse">
<stop stop-color="white"/>
<stop offset="1" stop-color="white" stop-opacity="0"/>
</linearGradient>
<linearGradient id="paint60_linear_15878_23933" x1="595.526" y1="489.891" x2="289.03" y2="98.1104" gradientUnits="userSpaceOnUse">
<stop stop-color="white"/>
<stop offset="1" stop-color="white" stop-opacity="0"/>
</linearGradient>
<linearGradient id="paint61_linear_15878_23933" x1="609.176" y1="478.377" x2="276.15" y2="111.988" gradientUnits="userSpaceOnUse">
<stop stop-color="white"/>
<stop offset="1" stop-color="white" stop-opacity="0"/>
</linearGradient>
<linearGradient id="paint62_linear_15878_23933" x1="621.331" y1="466.531" x2="265.344" y2="125.58" gradientUnits="userSpaceOnUse">
<stop stop-color="white"/>
<stop offset="1" stop-color="white" stop-opacity="0"/>
</linearGradient>
<linearGradient id="paint63_linear_15878_23933" x1="632.308" y1="454.282" x2="256.145" y2="138.988" gradientUnits="userSpaceOnUse">
<stop stop-color="white"/>
<stop offset="1" stop-color="white" stop-opacity="0"/>
</linearGradient>
<linearGradient id="paint64_linear_15878_23933" x1="641.693" y1="442.373" x2="248.719" y2="151.444" gradientUnits="userSpaceOnUse">
<stop stop-color="white"/>
<stop offset="1" stop-color="white" stop-opacity="0"/>
</linearGradient>
<linearGradient id="paint65_linear_15878_23933" x1="591.322" y1="75.9609" x2="293.289" y2="475.071" gradientUnits="userSpaceOnUse">
<stop stop-color="white"/>
<stop offset="1" stop-color="white" stop-opacity="0"/>
</linearGradient>
<linearGradient id="paint66_linear_15878_23933" x1="571.678" y1="62.7589" x2="313.428" y2="492.081" gradientUnits="userSpaceOnUse">
<stop stop-color="white"/>
<stop offset="1" stop-color="white" stop-opacity="0"/>
</linearGradient>
<linearGradient id="paint67_linear_15878_23933" x1="550.809" y1="51.6028" x2="336.281" y2="507.273" gradientUnits="userSpaceOnUse">
<stop stop-color="white"/>
<stop offset="1" stop-color="white" stop-opacity="0"/>
</linearGradient>
<linearGradient id="paint68_linear_15878_23933" x1="533.643" y1="44.3537" x2="356.051" y2="517.576" gradientUnits="userSpaceOnUse">
<stop stop-color="white"/>
<stop offset="1" stop-color="white" stop-opacity="0"/>
</linearGradient>
<linearGradient id="paint69_linear_15878_23933" x1="517.79" y1="39.0655" x2="374.967" y2="525.34" gradientUnits="userSpaceOnUse">
<stop stop-color="white"/>
<stop offset="1" stop-color="white" stop-opacity="0"/>
</linearGradient>
<linearGradient id="paint70_linear_15878_23933" x1="499.308" y1="34.4662" x2="397.648" y2="532.224" gradientUnits="userSpaceOnUse">
<stop stop-color="white"/>
<stop offset="1" stop-color="white" stop-opacity="0"/>
</linearGradient>
<linearGradient id="paint71_linear_15878_23933" x1="479.369" y1="31.3248" x2="422.672" y2="537.043" gradientUnits="userSpaceOnUse">
<stop stop-color="white"/>
<stop offset="1" stop-color="white" stop-opacity="0"/>
</linearGradient>
<linearGradient id="paint72_linear_15878_23933" x1="463.424" y1="30.1124" x2="442.932" y2="538.92" gradientUnits="userSpaceOnUse">
<stop stop-color="white"/>
<stop offset="1" stop-color="white" stop-opacity="0"/>
</linearGradient>
<linearGradient id="paint73_linear_15878_23933" x1="439.883" y1="30.3966" x2="472.937" y2="538.462" gradientUnits="userSpaceOnUse">
<stop stop-color="white"/>
<stop offset="1" stop-color="white" stop-opacity="0"/>
</linearGradient>
<linearGradient id="paint74_linear_15878_23933" x1="419.883" y1="32.609" x2="498.241" y2="535.073" gradientUnits="userSpaceOnUse">
<stop stop-color="white"/>
<stop offset="1" stop-color="white" stop-opacity="0"/>
</linearGradient>
<linearGradient id="paint75_linear_15878_23933" x1="401.975" y1="36.1494" x2="520.52" y2="529.697" gradientUnits="userSpaceOnUse">
<stop stop-color="white"/>
<stop offset="1" stop-color="white" stop-opacity="0"/>
</linearGradient>
<linearGradient id="paint76_linear_15878_23933" x1="371.038" y1="95.0746" x2="539.607" y2="571.994" gradientUnits="userSpaceOnUse">
<stop stop-color="white"/>
<stop offset="1" stop-color="white" stop-opacity="0"/>
</linearGradient>
<linearGradient id="paint77_linear_15878_23933" x1="347.604" y1="104.848" x2="566.653" y2="558.087" gradientUnits="userSpaceOnUse">
<stop stop-color="white"/>
<stop offset="1" stop-color="white" stop-opacity="0"/>
</linearGradient>
<linearGradient id="paint78_linear_15878_23933" x1="321.635" y1="119.518" x2="594.688" y2="538.363" gradientUnits="userSpaceOnUse">
<stop stop-color="white"/>
<stop offset="1" stop-color="white" stop-opacity="0"/>
</linearGradient>
<linearGradient id="paint79_linear_15878_23933" x1="303.282" y1="132.773" x2="613.049" y2="521.626" gradientUnits="userSpaceOnUse">
<stop stop-color="white"/>
<stop offset="1" stop-color="white" stop-opacity="0"/>
</linearGradient>
</defs>
</svg>
