<svg width="16" height="16" viewBox="0 0 16 16" fill="none" xmlns="http://www.w3.org/2000/svg">
<path fill-rule="evenodd" clip-rule="evenodd" d="M4.33335 2.90909H2.87935L2.86877 2.90902L2.85819 2.90909H1.40002C0.995012 2.90909 0.666687 3.2347 0.666687 3.63636C0.666687 4.03803 0.995012 4.36364 1.40002 4.36364H2.13544V13.8181C2.13544 15.0231 3.12041 15.9999 4.33544 15.9999H11.6688C12.8838 15.9999 13.8688 15.0231 13.8688 13.8181V4.36364H14.6C15.005 4.36364 15.3334 4.03803 15.3334 3.63636C15.3334 3.2347 15.005 2.90909 14.6 2.90909H13.146L13.1354 2.90902L13.1249 2.90909H11.6667V2.18182C11.6667 0.976833 10.6817 0 9.46669 0H6.53335C5.31833 0 4.33335 0.976833 4.33335 2.18182V2.90909ZM5.80002 2.90909H10.2V2.18182C10.2 1.78016 9.8717 1.45455 9.46669 1.45455H6.53335C6.12835 1.45455 5.80002 1.78016 5.80002 2.18182V2.90909ZM10.9334 4.36364H5.06669H3.6021V13.8181C3.6021 14.2198 3.93043 14.5454 4.33544 14.5454H11.6688C12.0738 14.5454 12.4021 14.2198 12.4021 13.8181V4.36364H10.9334ZM5.7995 7.27268V11.6363C5.7995 12.038 6.12782 12.3636 6.53283 12.3636C6.93784 12.3636 7.26617 12.038 7.26617 11.6363V7.27268C7.26617 6.87102 6.93784 6.54541 6.53283 6.54541C6.12782 6.54541 5.7995 6.87102 5.7995 7.27268ZM8.7344 11.6363V7.27268C8.7344 6.87102 9.06272 6.54541 9.46773 6.54541C9.87274 6.54541 10.2011 6.87102 10.2011 7.27268V11.6363C10.2011 12.038 9.87274 12.3636 9.46773 12.3636C9.06272 12.3636 8.7344 12.038 8.7344 11.6363Z" fill="#B9C5E7"/>
</svg>
