<svg width="16" height="16" viewBox="0 0 16 16" fill="none" xmlns="http://www.w3.org/2000/svg">
<path fill-rule="evenodd" clip-rule="evenodd" d="M4.33317 2.90909H2.87917L2.86859 2.90902L2.85801 2.90909H1.39984C0.994828 2.90909 0.666504 3.2347 0.666504 3.63636C0.666504 4.03803 0.994828 4.36364 1.39984 4.36364H2.13525V13.8181C2.13525 15.0231 3.12023 15.9999 4.33525 15.9999H11.6686C12.8836 15.9999 13.8686 15.0231 13.8686 13.8181V4.36364H14.5998C15.0048 4.36364 15.3332 4.03803 15.3332 3.63636C15.3332 3.2347 15.0048 2.90909 14.5998 2.90909H13.1458L13.1353 2.90902L13.1247 2.90909H11.6665V2.18182C11.6665 0.976833 10.6815 0 9.4665 0H6.53317C5.31814 0 4.33317 0.976833 4.33317 2.18182V2.90909ZM5.79984 2.90909H10.1998V2.18182C10.1998 1.78016 9.87151 1.45455 9.4665 1.45455H6.53317C6.12816 1.45455 5.79984 1.78016 5.79984 2.18182V2.90909ZM10.9332 4.36364H5.0665H3.60192V13.8181C3.60192 14.2198 3.93025 14.5454 4.33525 14.5454H11.6686C12.0736 14.5454 12.4019 14.2198 12.4019 13.8181V4.36364H10.9332ZM5.79932 7.27268V11.6363C5.79932 12.038 6.12764 12.3636 6.53265 12.3636C6.93766 12.3636 7.26598 12.038 7.26598 11.6363V7.27268C7.26598 6.87102 6.93766 6.54541 6.53265 6.54541C6.12764 6.54541 5.79932 6.87102 5.79932 7.27268ZM8.73421 11.6363V7.27268C8.73421 6.87102 9.06254 6.54541 9.46755 6.54541C9.87255 6.54541 10.2009 6.87102 10.2009 7.27268V11.6363C10.2009 12.038 9.87255 12.3636 9.46755 12.3636C9.06254 12.3636 8.73421 12.038 8.73421 11.6363Z" fill="#495057"/>
</svg>
