<svg width="16" height="16" viewBox="0 0 16 16" fill="none" xmlns="http://www.w3.org/2000/svg">
<path fill-rule="evenodd" clip-rule="evenodd" d="M4.09634 0H9.45109L13.9825 4.72993V13.9153C13.9825 15.0657 13.054 16 11.9036 16H4.09634C2.95182 16 2.01752 15.0657 2.01752 13.9153V2.07883C2.0175 0.934301 2.95182 0 4.09634 0Z" fill="#00733B"/>
<path opacity="0.302" fill-rule="evenodd" clip-rule="evenodd" d="M9.44525 0V4.68905H13.9825L9.44525 0Z" fill="white"/>
<path d="M6.99268 11.6497H6.21604L5.68466 10.7562L5.15327 11.6497H4.37079L5.29342 10.0964L4.48175 8.74745H5.26421L5.68464 9.44817L6.09923 8.74745H6.88171L6.07586 10.1022L6.99268 11.6497ZM7.26713 11.6497V8.74745H8.00873V11.019H9.27004V11.6496H7.26713V11.6497ZM10.4963 11.6847C10.2043 11.6847 9.94742 11.5912 9.72553 11.4102C9.50946 11.235 9.38685 11.0131 9.36933 10.7504L10.0058 10.5635C10.0234 10.7037 10.0817 10.8263 10.181 10.9197C10.2861 11.0132 10.4029 11.0599 10.5314 11.0599C10.6365 11.0599 10.7241 11.0365 10.7941 10.9898C10.8584 10.9431 10.8934 10.8789 10.8934 10.8029C10.8934 10.7387 10.8642 10.6862 10.8117 10.6394C10.7591 10.5986 10.689 10.5635 10.6073 10.5343C10.5255 10.5051 10.4263 10.4759 10.327 10.4526C10.2219 10.4234 10.1167 10.3884 10.0175 10.3416C9.91239 10.3008 9.81895 10.2482 9.7372 10.184C9.6496 10.1256 9.58537 10.038 9.53281 9.92703C9.48025 9.82193 9.45106 9.69345 9.45106 9.54747C9.45106 9.30806 9.55032 9.10952 9.7547 8.95185C9.95909 8.78834 10.2043 8.71243 10.4905 8.71243C10.7766 8.71243 11.0277 8.7825 11.2379 8.91682C11.4481 9.05695 11.5824 9.23799 11.635 9.45988L10.9693 9.74017C10.9401 9.61754 10.8817 9.51828 10.7999 9.44237C10.7182 9.3723 10.6131 9.33143 10.4905 9.33143C10.397 9.33143 10.327 9.35478 10.2686 9.38983C10.216 9.42486 10.1927 9.47742 10.1927 9.54165C10.1927 9.60005 10.2277 9.6526 10.2978 9.69347C10.3678 9.72851 10.4613 9.7577 10.5664 9.77523C10.6715 9.79275 10.7883 9.82195 10.9109 9.86282C11.0394 9.90954 11.1503 9.95626 11.2613 10.0205C11.3664 10.0789 11.454 10.1782 11.524 10.3066C11.5999 10.4409 11.635 10.5986 11.635 10.7796C11.635 11.0482 11.5299 11.2701 11.3196 11.4336C11.1094 11.5971 10.835 11.6847 10.4963 11.6847Z" fill="white"/>
</svg>
